<svg id="Layer_1" data-name="Layer 1" xmlns="http://www.w3.org/2000/svg" xmlns:xlink="http://www.w3.org/1999/xlink" viewBox="0 0 343.51 343.47"><defs><style>.cls-1,.cls-3,.cls-9{fill:none;}.cls-11,.cls-2,.cls-5{fill:#fff;}.cls-2,.cls-3,.cls-8,.cls-9{stroke:#9a3699;stroke-miterlimit:10;}.cls-2,.cls-9{stroke-width:4px;}.cls-3{stroke-width:20px;stroke-dasharray:36.25 36.25;}.cls-4,.cls-8{fill:#9a3699;}.cls-6{fill:#d58bc0;}.cls-7{fill:url(#Red_Radial);}.cls-8{stroke-width:2px;}.cls-9{stroke-dasharray:20.17 20.17;}.cls-10{clip-path:url(#clip-path);}.cls-11{opacity:0.53;}.cls-12{opacity:0.2;}.cls-13{fill:#522217;}.cls-14{fill:#fce853;}.cls-15{fill:#855b25;}.cls-16{fill:#ff4a62;}.cls-17{opacity:0.6;}.cls-18{fill:#a3702e;}.cls-19{fill:#fc9d53;}.cls-20{fill:#c23b37;}.cls-21{fill:#c25537;}.cls-22{fill:#50bff2;}.cls-23{fill:#27558a;}.cls-24{fill:#994f2f;}.cls-25{fill:#522917;}.cls-26{fill:#732020;}.cls-27{fill:#f42130;}.cls-28{fill:#ff6198;}.cls-29{fill:#8c223b;}.cls-30{fill:#c7385a;}.cls-31{fill:#e5a241;}.cls-32{opacity:0.3;}.cls-33{fill:#eb4987;}.cls-34{fill:#a6264d;}.cls-35{fill:#ba355d;}.cls-36{fill:#ffe08a;}</style><radialGradient id="Red_Radial" cx="171.76" cy="171.75" r="139.34" gradientUnits="userSpaceOnUse"><stop offset="0.01" stop-color="#f9e7ef"/><stop offset="0.45" stop-color="#f2ccdd"/><stop offset="1" stop-color="#edb6cf"/></radialGradient><clipPath id="clip-path"><path class="cls-1" d="M171.83,51.45A120.27,120.27,0,0,0,66.26,229.39H277.39A120.25,120.25,0,0,0,171.83,51.45Z"/></clipPath></defs><ellipse class="cls-2" cx="171.76" cy="171.73" rx="160.04" ry="160.01"/><circle class="cls-3" cx="171.76" cy="171.75" r="150"/><path class="cls-4" d="M171.76,331.75a160.92,160.92,0,0,1-19.17-1.14L155,310.75a142.87,142.87,0,0,0,33.77,0l2.4,19.86A162.43,162.43,0,0,1,171.76,331.75Zm-56.65-10.32A159.53,159.53,0,0,1,81,303.5L92.31,287a139.44,139.44,0,0,0,29.88,15.68Zm113.47-.07-7.11-18.69A139.79,139.79,0,0,0,251.32,287l11.38,16.45A160.24,160.24,0,0,1,228.58,321.36ZM52.08,277.94a160.2,160.2,0,0,1-21.95-31.69l17.69-9.32A140.58,140.58,0,0,0,67,264.67Zm239.46-.11-15-13.27a140.33,140.33,0,0,0,19.19-27.76l17.7,9.3A160.32,160.32,0,0,1,291.54,277.83ZM16.41,210.2a160.64,160.64,0,0,1-4.65-38.28l20,0a140.49,140.49,0,0,0,4.07,33.51ZM327.15,210l-19.43-4.77a140.32,140.32,0,0,0,4-33.5v-.33h20v.33A160.52,160.52,0,0,1,327.15,210ZM35.75,138.39l-19.43-4.74A158.94,158.94,0,0,1,30,97.55l17.71,9.29A139.4,139.4,0,0,0,35.75,138.39Zm271.9-.45a139.39,139.39,0,0,0-12-31.51l17.68-9.34a159.1,159.1,0,0,1,13.76,36ZM66.84,79.05l-15-13.25A160.91,160.91,0,0,1,80.67,40.19l11.4,16.43A141.21,141.21,0,0,0,66.84,79.05Zm209.54-.33a140.77,140.77,0,0,0-25.3-22.35L262.42,39.9a160.92,160.92,0,0,1,28.9,25.52ZM121.89,40.89,114.77,22.2a159.09,159.09,0,0,1,37.44-9.27l2.42,19.85A139.62,139.62,0,0,0,121.89,40.89Zm99.29-.17a138.85,138.85,0,0,0-32.78-8l2.35-19.87A159.38,159.38,0,0,1,228.24,22Z"/><path class="cls-5" d="M153,330.68a159.75,159.75,0,0,1-37.48-9.14l7-18.72a140.08,140.08,0,0,0,32.78,8Zm38.59-.14-2.49-19.85a140.43,140.43,0,0,0,16.57-3.1,142.11,142.11,0,0,0,16.19-5.08l7.13,18.69a162.15,162.15,0,0,1-37.4,9.34ZM81.28,303.71a160.32,160.32,0,0,1-29-25.45l14.91-13.33a141.28,141.28,0,0,0,25.35,22.29Zm181.78-.52-11.42-16.42a139.26,139.26,0,0,0,25.18-22.47l15,13.21A159.58,159.58,0,0,1,263.06,303.19ZM30.29,246.58a160.24,160.24,0,0,1-13.75-36l19.4-4.85a140.54,140.54,0,0,0,12,31.53Zm283.35-.87-17.73-9.25a140.74,140.74,0,0,0,11.9-31.58l19.43,4.74A160,160,0,0,1,313.64,245.71ZM11.72,172.3v-.62A158.92,158.92,0,0,1,16.25,134l19.43,4.73a139.09,139.09,0,0,0-4,32.93v.57Zm300.07-.92a141,141,0,0,0-4.19-33.5l19.34-5.09.09.35a160.14,160.14,0,0,1,4.76,38.17ZM47.56,107.12,29.83,97.88A160.77,160.77,0,0,1,51.61,66.07l15,13.19A141.48,141.48,0,0,0,47.56,107.12Zm247.93-1a139.87,139.87,0,0,0-19.27-27.68l14.91-13.33a159.55,159.55,0,0,1,22,31.66ZM91.79,56.78,80.37,40.37a159.17,159.17,0,0,1,34.1-18L121.61,41A139.21,139.21,0,0,0,91.79,56.78Zm159.06-.55A141.18,141.18,0,0,0,220.9,40.64l7-18.72a160.92,160.92,0,0,1,34.2,17.8ZM154.38,32.82,151.87,13a159.7,159.7,0,0,1,38.59-.18l-2.34,19.87A139,139,0,0,0,154.38,32.82Z"/><circle class="cls-6" cx="171.76" cy="171.75" r="139.31"/><circle class="cls-6" cx="171.76" cy="171.75" r="139.31"/><path class="cls-5" d="M171.76,307.05c-74.61,0-135.3-60.7-135.3-135.3s60.69-135.3,135.3-135.3,135.3,60.69,135.3,135.3S246.36,307.05,171.76,307.05Zm0-255.6a120.3,120.3,0,1,0,120.3,120.3A120.43,120.43,0,0,0,171.76,51.45Z"/><circle class="cls-7" cx="171.76" cy="171.75" r="139.31"/><path class="cls-8" d="M306.92,138.05A139.3,139.3,0,1,0,205.46,306.92,139.3,139.3,0,0,0,306.92,138.05Zm-135.16,169c-74.61,0-135.3-60.7-135.3-135.3s60.69-135.3,135.3-135.3,135.3,60.69,135.3,135.3S246.36,307.05,171.76,307.05Z"/><path class="cls-5" d="M171.76,307.05c-74.61,0-135.3-60.7-135.3-135.3s60.69-135.3,135.3-135.3,135.3,60.69,135.3,135.3S246.36,307.05,171.76,307.05Zm0-255.6a120.3,120.3,0,1,0,120.3,120.3A120.43,120.43,0,0,0,171.76,51.45Z"/><circle class="cls-9" cx="171.83" cy="171.75" r="128.41" transform="translate(-71.12 171.8) rotate(-45)"/><path class="cls-4" d="M66.41,229.77a120.24,120.24,0,0,0,210.7,0Z"/><g class="cls-10"><polygon class="cls-11" points="164.29 -5.68 173.7 195.03 193.13 -4.96 181.5 195.63 221.72 -1.23 189.19 197.05 249.78 5.47 196.7 199.26 276.98 15.07 203.93 202.25 303.02 27.45 210.81 205.97 327.63 42.49 217.26 210.4 350.53 60.02 223.22 215.47 371.48 79.85 228.61 221.14 390.23 101.76 233.38 227.34 406.6 125.51 237.48 234.01 420.39 150.84 240.86 241.07 431.46 177.48 243.48 248.44 439.68 205.12 245.31 256.05 444.97 233.47 246.34 263.81 447.27 262.22 246.56 271.63 446.55 291.06 245.95 279.43 442.82 319.66 244.54 287.13 436.12 347.71 242.32 294.63 426.52 374.91 239.34 301.86 414.13 400.95 235.61 308.74 399.09 425.56 231.19 315.2 381.56 448.46 226.11 321.15 361.73 469.41 220.44 326.55 339.82 488.17 214.24 331.32 316.07 504.53 207.57 335.41 290.74 518.32 200.51 338.79 264.11 529.39 193.14 341.41 236.46 537.61 185.54 343.25 208.11 542.9 177.78 344.28 179.36 545.2 169.96 344.49 150.53 544.48 162.16 343.88 121.93 540.75 154.46 342.47 93.88 534.05 146.96 340.25 66.68 524.45 139.72 337.27 40.63 512.07 132.84 333.54 16.02 497.02 126.39 329.12 -6.88 479.49 120.43 324.04 -27.82 459.66 115.04 318.37 -46.58 437.75 110.27 312.17 -62.95 414 106.17 305.5 -76.74 388.67 102.8 298.45 -87.81 362.04 100.17 291.07 -96.03 334.4 98.34 283.47 -101.32 306.04 97.31 275.71 -103.61 277.29 97.1 267.89 -102.89 248.46 97.7 260.09 -99.16 219.86 99.12 252.39 -92.46 191.81 101.33 244.89 -82.87 164.61 104.32 237.66 -70.48 138.56 108.04 230.77 -55.44 113.95 112.47 224.32 -37.91 91.05 117.54 218.36 -18.08 70.11 123.21 212.97 3.83 51.35 129.41 208.2 27.58 34.99 136.08 204.1 52.91 21.2 143.14 200.73 79.55 10.13 150.51 198.11 107.19 1.9 158.12 196.27 135.54 -3.39 165.87 195.24 164.29 -5.68"/></g><g class="cls-12"><ellipse class="cls-13" cx="171.9" cy="264.08" rx="56.65" ry="6.45"/></g><path class="cls-14" d="M200.26,121.08c0,13.82-12.15,25-27.14,25S146,134.9,146,121.08a24,24,0,0,1,7.74-17.5,27.24,27.24,0,0,1,5.55-4,29.18,29.18,0,0,1,25.63-1,26.87,26.87,0,0,1,9.51,7A23.75,23.75,0,0,1,200.26,121.08Z"/><path class="cls-15" d="M178.27,110.06a5.14,5.14,0,0,1-3,4.46,8,8,0,0,1-3.26.61,7.75,7.75,0,0,1-3-.51,4.77,4.77,0,0,1-3-4.56Z"/><path class="cls-16" d="M175.26,114.52a8,8,0,0,1-3.26.61,7.75,7.75,0,0,1-3-.51,3.22,3.22,0,0,1,6.24-.1Z"/><path class="cls-15" d="M172,115.88a6.91,6.91,0,0,1-5.24-1.89,5.77,5.77,0,0,1-1.48-4,.75.75,0,0,1,.75-.7h12.24a.74.74,0,0,1,.74.75S178.93,115.88,172,115.88Zm-5.17-5.08a4.06,4.06,0,0,0,1,2.18,5.51,5.51,0,0,0,4.14,1.41c4.11,0,5.16-2.33,5.43-3.59Z"/><ellipse class="cls-15" cx="178.2" cy="105.31" rx="1.77" ry="2.83"/><ellipse class="cls-5" cx="177.85" cy="104.6" rx="0.71" ry="1.13"/><ellipse class="cls-15" cx="165.54" cy="105.31" rx="1.84" ry="2.94"/><ellipse class="cls-5" cx="165.9" cy="104.57" rx="0.73" ry="1.18"/><g class="cls-17"><path class="cls-5" d="M153.72,107.57a28.69,28.69,0,0,1,40.69,2,23.83,23.83,0,0,1,5.77,13.71c0-.62.08-1.24.08-1.87a23.71,23.71,0,0,0-5.85-15.52,28.66,28.66,0,0,0-40.69-2,24,24,0,0,0-7.74,17.5c0,.63,0,1.26.08,1.89A24.15,24.15,0,0,1,153.72,107.57Z"/></g><g class="cls-12"><path class="cls-18" d="M184.9,98.54a21.59,21.59,0,0,1-13.52,4.31,22.45,22.45,0,0,1-12.11-3.29,29.18,29.18,0,0,1,25.63-1Z"/></g><g class="cls-12"><path class="cls-18" d="M200.26,121.08c0,13.82-12.15,25-27.14,25S146,134.9,146,121.08a24,24,0,0,1,7.74-17.5s4.76,11.24,21,12.17,19.65-10.19,19.65-10.19A23.75,23.75,0,0,1,200.26,121.08Z"/></g><path class="cls-18" d="M173.12,147.33c-15.64,0-28.37-11.78-28.37-26.25s12.73-26.25,28.37-26.25,28.37,11.78,28.37,26.25S188.76,147.33,173.12,147.33Zm0-50c-14.29,0-25.91,10.67-25.91,23.79s11.62,23.79,25.91,23.79S199,134.2,199,121.08,187.41,97.29,173.12,97.29Z"/><path class="cls-19" d="M183.82,141c0,13.4-11.29,24.26-25.22,24.26S133.38,154.41,133.38,141a23.3,23.3,0,0,1,1.13-7.21,25.14,25.14,0,0,1,24.09-17,25.93,25.93,0,0,1,12,2.93A24.12,24.12,0,0,1,183.82,141Z"/><g class="cls-17"><path class="cls-5" d="M133.69,143.16a23.3,23.3,0,0,1,1.13-7.21,25.14,25.14,0,0,1,24.09-17,25.93,25.93,0,0,1,12,2.93,24.37,24.37,0,0,1,12.77,16.91,24.24,24.24,0,0,0-13.08-19.06,25.93,25.93,0,0,0-12-2.93,25.14,25.14,0,0,0-24.09,17,23.37,23.37,0,0,0-.71,11.59C133.73,144.65,133.69,143.91,133.69,143.16Z"/></g><g class="cls-12"><path class="cls-20" d="M183.82,141c0,13.4-11.29,24.26-25.22,24.26S133.38,154.41,133.38,141a23.3,23.3,0,0,1,1.13-7.21l.37.13c28,10.14,34.78-10.51,35.75-14.24A24.12,24.12,0,0,1,183.82,141Z"/></g><path class="cls-20" d="M144.43,131.81a.76.76,0,0,1-.73-.54,2.93,2.93,0,0,1,2.15-3.52,3.3,3.3,0,0,1,2.26.09,2.58,2.58,0,0,1,1.49,1.61.76.76,0,1,1-1.46.45,1.09,1.09,0,0,0-.63-.65,1.85,1.85,0,0,0-1.21,0,1.42,1.42,0,0,0-1.13,1.6.77.77,0,0,1-.51,1A.62.62,0,0,1,144.43,131.81Z"/><path class="cls-20" d="M159.25,127.62a.76.76,0,0,1-.73-.54,2.91,2.91,0,0,1,2.12-3.51,3.27,3.27,0,0,1,2.25.1,2.59,2.59,0,0,1,1.48,1.61.77.77,0,0,1-1.47.45,1.1,1.1,0,0,0-.62-.65,1.73,1.73,0,0,0-1.19,0,1.38,1.38,0,0,0-1.1,1.59.78.78,0,0,1-.51,1A.91.91,0,0,1,159.25,127.62Z"/><path class="cls-20" d="M154.92,134.7a3.44,3.44,0,0,1-3.32-2.56.77.77,0,1,1,1.49-.39,1.89,1.89,0,0,0,2.31,1.35,1.87,1.87,0,0,0,1.35-2.31.77.77,0,1,1,1.49-.39,3.44,3.44,0,0,1-2.45,4.19A3.7,3.7,0,0,1,154.92,134.7Z"/><path class="cls-21" d="M158.6,166.49c-14.59,0-26.45-11.43-26.45-25.48S144,115.53,158.6,115.53,185.05,127,185.05,141,173.18,166.49,158.6,166.49Zm0-48.5c-13.23,0-24,10.33-24,23s10.77,23,24,23,24-10.33,24-23S171.83,118,158.6,118Z"/><path class="cls-22" d="M215,144.41c0,13.39-11.3,24.25-25.23,24.25s-25.22-10.86-25.22-24.25A23.53,23.53,0,0,1,169.51,130h0a25.51,25.51,0,0,1,20.28-9.84,25.14,25.14,0,0,1,24.11,17.08A23.59,23.59,0,0,1,215,144.41Z"/><ellipse class="cls-23" cx="187.12" cy="129.55" rx="1.93" ry="3.09"/><ellipse class="cls-23" cx="195.58" cy="129.59" rx="1.9" ry="3.04"/><ellipse class="cls-5" cx="195.2" cy="128.84" rx="0.76" ry="1.22"/><ellipse class="cls-5" cx="187.51" cy="128.78" rx="0.77" ry="1.23"/><path class="cls-23" d="M191.69,138.53a21.2,21.2,0,0,1-4.92-.6,24.93,24.93,0,0,1-7.65-3.25,1,1,0,1,1,1.1-1.6h0c.47.32,11.53,7.78,21.58,0a1,1,0,1,1,1.18,1.54A18.18,18.18,0,0,1,191.69,138.53Z"/><path class="cls-23" d="M200.87,132a2.77,2.77,0,0,1,1.61.45,3.53,3.53,0,0,1,1.2,1.2,3.48,3.48,0,0,1,.55,1.61,3.36,3.36,0,0,1,0,.84,2.75,2.75,0,0,1-.11.41,2.78,2.78,0,0,1-.16.4c-.16-.26-.25-.5-.37-.73s-.2-.45-.32-.65a12.23,12.23,0,0,0-.66-1.19,12.73,12.73,0,0,0-.78-1.13C201.53,132.87,201.22,132.49,200.87,132Z"/><path class="cls-23" d="M178.52,135.43a2.2,2.2,0,0,1-.31-1.43,3.69,3.69,0,0,1,.39-1.35,3.87,3.87,0,0,1,.81-1.11,4.51,4.51,0,0,1,.54-.44,3.1,3.1,0,0,1,.66-.32,4.53,4.53,0,0,1-.15.7,5.64,5.64,0,0,1-.21.62,11.65,11.65,0,0,1-.49,1.13c-.18.36-.38.7-.58,1.05S178.76,135,178.52,135.43Z"/><g class="cls-17"><path class="cls-5" d="M168.29,133.38h0a25.51,25.51,0,0,1,20.29-9.83,25.13,25.13,0,0,1,24.1,17.08,23.45,23.45,0,0,1,0,14.29,23.47,23.47,0,0,0,1.52-18,25.14,25.14,0,0,0-24.1-17.08,25.51,25.51,0,0,0-20.28,9.84h0A24,24,0,0,0,166,137,23.9,23.9,0,0,1,168.29,133.38Z"/></g><g class="cls-12"><path class="cls-23" d="M215,144.41c0,13.39-11.3,24.25-25.23,24.25s-25.22-10.86-25.22-24.25A23.53,23.53,0,0,1,169.51,130h0s10.46,23.2,44.39,7.24A23.59,23.59,0,0,1,215,144.41Z"/></g><path class="cls-23" d="M189.8,169.89c-14.58,0-26.45-11.43-26.45-25.48s11.87-25.48,26.45-25.48,26.45,11.43,26.45,25.48S204.39,169.89,189.8,169.89Zm0-48.5c-13.23,0-24,10.32-24,23s10.76,23,24,23,24-10.32,24-23S203,121.39,189.8,121.39Z"/><path class="cls-24" d="M179.66,167.58c0,15.61-13.16,28.27-29.4,28.27s-29.4-12.66-29.4-28.27a27.4,27.4,0,0,1,.52-5.31c2.58-13.07,14.53-23,28.88-23a30,30,0,0,1,18.08,6A27.83,27.83,0,0,1,179.66,167.58Z"/><ellipse class="cls-25" cx="143.25" cy="157.75" rx="2.6" ry="4.34"/><ellipse class="cls-25" cx="155.59" cy="156.75" rx="2.4" ry="3.99"/><ellipse class="cls-5" cx="155.19" cy="155.95" rx="0.96" ry="1.6"/><ellipse class="cls-5" cx="143.69" cy="156.45" rx="1.04" ry="1.73"/><ellipse class="cls-25" cx="149.92" cy="167.09" rx="2.6" ry="4.34"/><g class="cls-17"><path class="cls-5" d="M121.38,164.73c2.58-13.08,14.53-23,28.88-23a30,30,0,0,1,18.08,6,27.87,27.87,0,0,1,11.29,21.07c0-.41,0-.82,0-1.24a27.83,27.83,0,0,0-11.32-22.29,30,30,0,0,0-18.08-6c-14.35,0-26.3,9.89-28.88,23a27.4,27.4,0,0,0-.52,5.31c0,.42,0,.83,0,1.24A26.27,26.27,0,0,1,121.38,164.73Z"/></g><g class="cls-12"><path class="cls-25" d="M179.66,167.58c0,15.61-13.16,28.27-29.4,28.27s-29.4-12.66-29.4-28.27a27.4,27.4,0,0,1,.52-5.31s5.17,16.73,26.36,10.59,20.09-27.24,20.09-27.24l.51-.33A27.83,27.83,0,0,1,179.66,167.58Z"/></g><path class="cls-25" d="M150.26,197.08c-16.89,0-30.63-13.23-30.63-29.5s13.74-29.5,30.63-29.5,30.63,13.24,30.63,29.5S167.15,197.08,150.26,197.08Zm0-56.54c-15.54,0-28.17,12.13-28.17,27s12.63,27,28.17,27,28.17-12.13,28.17-27S165.79,140.54,150.26,140.54Z"/><path class="cls-26" d="M158.41,64.58a1.62,1.62,0,0,1,.4,0l.15,0,.24.08a4.09,4.09,0,0,1,.42.16c.26.11.51.22.75.34.49.24,1,.49,1.42.77s.9.56,1.34.87.86.62,1.27,1a23.74,23.74,0,0,1,4.37,4.64,20.31,20.31,0,0,1,1.65,2.72,18.3,18.3,0,0,1,1.22,2.93,15.5,15.5,0,0,1,.42,1.52c.1.51.23,1,.28,1.54a18.08,18.08,0,0,1,.17,3.11.17.17,0,0,1-.17.16.17.17,0,0,1-.16-.14h0a21.51,21.51,0,0,0-1.82-5.69c-.2-.44-.45-.87-.68-1.3-.12-.21-.26-.42-.38-.63s-.26-.41-.4-.62c-.26-.41-.56-.8-.84-1.19s-.61-.76-.93-1.13a28.61,28.61,0,0,0-4.28-4c-.77-.58-1.57-1.14-2.38-1.66-.41-.25-.82-.51-1.24-.74l-.61-.34-.29-.14-.11-.06,0,0a.55.55,0,0,0,.23,0,1.15,1.15,0,1,1,0-2.3Z"/><ellipse class="cls-27" cx="171.99" cy="90.5" rx="11.89" ry="9.89"/><g class="cls-17"><path class="cls-5" d="M172,82.76c6.26,0,11.38,4,11.86,9.12,0-.25,0-.51,0-.77,0-5.46-5.32-9.88-11.89-9.88s-11.89,4.42-11.89,9.88c0,.26,0,.52,0,.77C160.61,86.78,165.73,82.76,172,82.76Z"/></g><g class="cls-12"><path class="cls-26" d="M172.3,94.24c-5.28,0-9.76-2.86-11.31-6.81a8.34,8.34,0,0,0-.59,3.07c0,5.46,5.33,9.88,11.9,9.88S184.19,96,184.19,90.5a8.34,8.34,0,0,0-.59-3.07C182.05,91.38,177.58,94.24,172.3,94.24Z"/></g><path class="cls-26" d="M172,101.61c-7.24,0-13.12-5-13.12-11.11S164.75,79.38,172,79.38s13.12,5,13.12,11.12S179.23,101.61,172,101.61Zm0-19.77c-5.88,0-10.67,3.88-10.67,8.66s4.79,8.66,10.67,8.66,10.67-3.89,10.67-8.66S177.87,81.84,172,81.84Z"/><ellipse class="cls-26" cx="171.84" cy="82" rx="2.78" ry="0.93"/><path class="cls-5" d="M131.5,115.8A42.41,42.41,0,0,1,117.19,110a3.69,3.69,0,0,1,2.14-2.43l4-1.67a3.69,3.69,0,0,1,4.83,2Z"/><path class="cls-28" d="M135.35,125a43.13,43.13,0,0,1-15.13-5.78l-2.88-6.91a3.68,3.68,0,0,1-.15-2.4,42.41,42.41,0,0,0,14.31,5.85Z"/><path class="cls-5" d="M139.3,134.51a44,44,0,0,1-14.85-5.12l-4.23-10.13A43.13,43.13,0,0,0,135.35,125Z"/><path class="cls-28" d="M143.08,143.57a44.5,44.5,0,0,1-14.71-4.75l-3.92-9.43a44,44,0,0,0,14.85,5.12Z"/><path class="cls-5" d="M144.39,146.71a30.14,30.14,0,0,0-10.66,5l-5.36-12.85a44.5,44.5,0,0,0,14.71,4.75Z"/><g class="cls-12"><path class="cls-29" d="M131.45,136.67l-3.93-9.42-4.22-10.13-2.89-6.92a3.68,3.68,0,0,1-.15-2.4,3.77,3.77,0,0,1,.75-1.41l-2,.82a3.7,3.7,0,0,0-2.13,2.43A3.56,3.56,0,0,0,117,112l2.88,6.92,4.22,10.13,3.93,9.42,5.36,12.85a27.21,27.21,0,0,1,3.27-2.09Z"/></g><path class="cls-30" d="M131.5,117a1.07,1.07,0,0,1-.25,0,43.83,43.83,0,0,1-14.73-6,1.23,1.23,0,0,1-.51-1.36,4.85,4.85,0,0,1,2.85-3.23l4-1.68a4.91,4.91,0,0,1,6.43,2.65l3.33,8a1.23,1.23,0,0,1-1.14,1.7Zm-12.75-7.55A40.91,40.91,0,0,0,129.44,114l-2.39-5.73a2.48,2.48,0,0,0-3.23-1.33l-4,1.68A2.43,2.43,0,0,0,118.75,109.48Z"/><path class="cls-30" d="M135.35,126.27l-.22,0a44.31,44.31,0,0,1-15.56-6,1.25,1.25,0,0,1-.48-.56l-2.88-6.92a4.82,4.82,0,0,1-.2-3.2,1.23,1.23,0,0,1,1.86-.7,41.21,41.21,0,0,0,13.89,5.68,1.25,1.25,0,0,1,.88.73l3.85,9.24a1.23,1.23,0,0,1-1.14,1.7Zm-14.14-7.84a41.61,41.61,0,0,0,12.11,4.93l-2.7-6.5a44.09,44.09,0,0,1-12-4.6Z"/><path class="cls-30" d="M139.3,135.73h-.19a44.91,44.91,0,0,1-15.27-5.26,1.22,1.22,0,0,1-.53-.59l-4.22-10.13a1.23,1.23,0,0,1,1.79-1.51,42,42,0,0,0,14.7,5.6,1.24,1.24,0,0,1,.91.74l3.94,9.46a1.23,1.23,0,0,1-1.13,1.7Zm-13.88-7.2a42,42,0,0,0,11.88,4.36l-2.83-6.77a45.42,45.42,0,0,1-11.73-4Z"/><path class="cls-30" d="M143.08,144.8h-.18a45.62,45.62,0,0,1-15.11-4.89,1.26,1.26,0,0,1-.55-.61l-3.93-9.42a1.23,1.23,0,0,1,1.75-1.54,42.43,42.43,0,0,0,14.43,5,1.23,1.23,0,0,1,.94.74l3.78,9.07a1.22,1.22,0,0,1-.16,1.22A1.26,1.26,0,0,1,143.08,144.8Zm-13.74-6.86A42.33,42.33,0,0,0,141.09,142l-2.66-6.38A45.71,45.71,0,0,1,126.88,132Z"/><path class="cls-30" d="M133.73,152.9a1.65,1.65,0,0,1-.32,0,1.22,1.22,0,0,1-.81-.72l-5.36-12.85a1.23,1.23,0,0,1,1.72-1.55,43,43,0,0,0,14.29,4.61,1.24,1.24,0,0,1,1,.75l1.31,3.14a1.22,1.22,0,0,1-.83,1.66,28.53,28.53,0,0,0-10.22,4.75A1.27,1.27,0,0,1,133.73,152.9Zm-3-11.55,3.52,8.43a31.32,31.32,0,0,1,8.44-3.89l-.51-1.21A46.46,46.46,0,0,1,130.76,141.35Z"/><path class="cls-31" d="M205.46,263.36H138.83a10.2,10.2,0,0,1-10.1-8.78l-7.25-51.16H222.81l-7.25,51.16A10.2,10.2,0,0,1,205.46,263.36Z"/><g class="cls-12"><rect class="cls-13" x="208.6" y="258.59" width="6.87" height="0.97" transform="translate(-115.23 329.63) rotate(-62.87)"/><rect class="cls-13" x="194.81" y="247.93" width="30.83" height="0.97" transform="translate(-106.72 322.22) rotate(-62.87)"/><rect class="cls-13" x="180.29" y="236.2" width="57.07" height="0.97" transform="translate(-96.7 315.93) rotate(-63.12)"/><rect class="cls-13" x="170.84" y="232.51" width="65.47" height="0.97" transform="translate(-96.62 307.92) rotate(-62.87)"/><rect class="cls-13" x="163.57" y="232.51" width="65.47" height="0.97" transform="translate(-100.58 301.44) rotate(-62.87)"/><rect class="cls-13" x="156.29" y="232.51" width="65.47" height="0.97" transform="translate(-104.54 294.97) rotate(-62.87)"/><rect class="cls-13" x="149.02" y="232.51" width="65.47" height="0.97" transform="translate(-108.5 288.49) rotate(-62.87)"/><rect class="cls-13" x="141.74" y="232.51" width="65.47" height="0.97" transform="translate(-112.45 282.02) rotate(-62.87)"/><rect class="cls-13" x="134.47" y="232.51" width="65.47" height="0.97" transform="translate(-116.41 275.54) rotate(-62.87)"/><rect class="cls-13" x="127.19" y="232.51" width="65.47" height="0.97" transform="translate(-120.37 269.07) rotate(-62.87)"/><rect class="cls-13" x="119.92" y="232.51" width="65.47" height="0.97" transform="translate(-124.32 262.59) rotate(-62.87)"/><rect class="cls-13" x="114.74" y="231.23" width="62.58" height="0.97" transform="translate(-126.78 256.01) rotate(-62.87)"/><rect class="cls-13" x="113.63" y="227.47" width="54.12" height="0.97" transform="translate(-126.34 249.2) rotate(-62.87)"/><rect class="cls-13" x="115.29" y="222" width="41.85" height="0.97" transform="translate(-123.91 242.25) rotate(-62.87)"/><rect class="cls-13" x="116.95" y="216.54" width="29.57" height="0.97" transform="translate(-121.49 235.29) rotate(-62.87)"/><rect class="cls-13" x="119.38" y="210.61" width="16.24" height="0.97" transform="translate(-118.51 228.3) rotate(-62.87)"/><rect class="cls-13" x="131.87" y="236.74" width="0.97" height="26.87" transform="translate(-99.53 87.89) rotate(-27.13)"/><rect class="cls-13" x="134.39" y="216.98" width="0.97" height="47.86" transform="translate(-95.02 88.02) rotate(-27.13)"/><rect class="cls-13" x="137.62" y="200.26" width="0.97" height="65.47" transform="translate(-91.06 88.62) rotate(-27.13)"/><rect class="cls-13" x="144.89" y="200.26" width="0.97" height="65.47" transform="translate(-90.26 91.94) rotate(-27.13)"/><rect class="cls-13" x="152.17" y="200.26" width="0.97" height="65.47" transform="translate(-89.46 95.25) rotate(-27.13)"/><rect class="cls-13" x="159.44" y="200.26" width="0.97" height="65.47" transform="translate(-88.66 98.57) rotate(-27.13)"/><rect class="cls-13" x="166.72" y="200.26" width="0.97" height="65.47" transform="translate(-87.86 101.89) rotate(-27.13)"/><rect class="cls-13" x="173.99" y="200.26" width="0.97" height="65.47" transform="translate(-87.06 105.21) rotate(-27.13)"/><rect class="cls-13" x="181.27" y="200.26" width="0.97" height="65.47" transform="translate(-86.26 108.52) rotate(-27.13)"/><rect class="cls-13" x="188.54" y="200.26" width="0.97" height="65.47" transform="translate(-85.46 111.84) rotate(-27.13)"/><rect class="cls-13" x="195.82" y="200.26" width="0.97" height="65.47" transform="translate(-84.66 115.16) rotate(-27.13)"/><rect class="cls-13" x="201.02" y="200.76" width="0.97" height="56.41" transform="translate(-82.24 117.09) rotate(-27.13)"/><rect class="cls-13" x="205.5" y="201.44" width="0.97" height="44.15" transform="translate(-79.26 118.53) rotate(-27.13)"/><rect class="cls-13" x="209.98" y="202.11" width="0.97" height="31.87" transform="translate(-76.28 119.97) rotate(-27.13)"/><rect class="cls-13" x="214.46" y="202.79" width="0.97" height="19.59" transform="translate(-73.29 121.41) rotate(-27.13)"/><rect class="cls-13" x="218.48" y="202.96" width="0.97" height="10.71" transform="translate(-71.16 123.63) rotate(-27.3)"/></g><rect class="cls-31" x="114.69" y="179.93" width="112.46" height="24.41" rx="11.6"/><g class="cls-12"><rect class="cls-13" x="217.61" y="196" width="15.31" height="0.97" transform="translate(-42.25 329.84) rotate(-67.59)"/><rect class="cls-13" x="207.09" y="191.25" width="25.6" height="0.97" transform="translate(-41.55 321.21) rotate(-67.43)"/><rect class="cls-13" x="199.39" y="190.79" width="26.57" height="0.97" transform="translate(-45.23 314.98) rotate(-67.59)"/><rect class="cls-13" x="192.02" y="190.79" width="26.57" height="0.97" transform="translate(-49.79 308.17) rotate(-67.59)"/><rect class="cls-13" x="184.65" y="190.79" width="26.57" height="0.97" transform="translate(-54.35 301.36) rotate(-67.59)"/><rect class="cls-13" x="177.28" y="190.79" width="26.57" height="0.97" transform="translate(-58.91 294.54) rotate(-67.59)"/><rect class="cls-13" x="169.91" y="190.79" width="26.57" height="0.97" transform="translate(-63.47 287.73) rotate(-67.59)"/><rect class="cls-13" x="162.54" y="190.79" width="26.57" height="0.97" transform="translate(-68.03 280.92) rotate(-67.59)"/><rect class="cls-13" x="155.18" y="190.79" width="26.57" height="0.97" transform="translate(-72.59 274.11) rotate(-67.59)"/><rect class="cls-13" x="147.81" y="190.79" width="26.57" height="0.97" transform="translate(-77.15 267.29) rotate(-67.59)"/><rect class="cls-13" x="140.44" y="190.79" width="26.57" height="0.97" transform="translate(-81.71 260.48) rotate(-67.59)"/><rect class="cls-13" x="133.07" y="190.79" width="26.57" height="0.97" transform="translate(-86.27 253.67) rotate(-67.59)"/><rect class="cls-13" x="125.7" y="190.79" width="26.57" height="0.97" transform="translate(-90.83 246.86) rotate(-67.59)"/><rect class="cls-13" x="118.33" y="190.79" width="26.57" height="0.97" transform="translate(-95.39 240.04) rotate(-67.59)"/><rect class="cls-13" x="111.6" y="190.33" width="25.6" height="0.97" transform="translate(-99.55 232.47) rotate(-67.43)"/><rect class="cls-13" x="111.44" y="185.54" width="15.21" height="0.97" transform="translate(-98.31 225.17) rotate(-67.59)"/><rect class="cls-13" x="118.56" y="188.93" width="0.97" height="15.21" transform="translate(-65.95 60.25) rotate(-22.42)"/><rect class="cls-13" x="123.91" y="178.94" width="0.97" height="25.6" transform="translate(-64.06 62.42) rotate(-22.57)"/><rect class="cls-13" x="131.13" y="177.99" width="0.97" height="26.57" transform="translate(-62.99 64.64) rotate(-22.42)"/><rect class="cls-13" x="138.5" y="177.99" width="0.97" height="26.57" transform="translate(-62.44 67.45) rotate(-22.42)"/><rect class="cls-13" x="145.87" y="177.99" width="0.97" height="26.57" transform="translate(-61.88 70.26) rotate(-22.42)"/><rect class="cls-13" x="153.24" y="177.99" width="0.97" height="26.57" transform="translate(-61.32 73.07) rotate(-22.42)"/><rect class="cls-13" x="160.61" y="177.99" width="0.97" height="26.57" transform="translate(-60.77 75.88) rotate(-22.42)"/><rect class="cls-13" x="167.98" y="177.99" width="0.97" height="26.57" transform="translate(-60.21 78.69) rotate(-22.42)"/><rect class="cls-13" x="175.34" y="177.99" width="0.97" height="26.57" transform="matrix(0.92, -0.38, 0.38, 0.92, -59.65, 81.5)"/><rect class="cls-13" x="182.71" y="177.99" width="0.97" height="26.57" transform="translate(-59.1 84.31) rotate(-22.42)"/><rect class="cls-13" x="190.08" y="177.99" width="0.97" height="26.57" transform="translate(-58.54 87.12) rotate(-22.42)"/><rect class="cls-13" x="197.45" y="177.99" width="0.97" height="26.57" transform="translate(-57.98 89.93) rotate(-22.42)"/><rect class="cls-13" x="204.82" y="177.99" width="0.97" height="26.57" transform="translate(-57.43 92.74) rotate(-22.42)"/><rect class="cls-13" x="212.19" y="177.99" width="0.97" height="26.57" transform="translate(-56.87 95.55) rotate(-22.42)"/><rect class="cls-13" x="219.41" y="178.02" width="0.97" height="25.6" transform="translate(-56.39 99) rotate(-22.57)"/><rect class="cls-13" x="224.78" y="178.42" width="0.97" height="15.31" transform="translate(-53.93 99.96) rotate(-22.42)"/></g><g class="cls-17"><path class="cls-5" d="M119.18,200.37v-11a6.69,6.69,0,0,1,6.69-6.69H225a6.66,6.66,0,0,1,3.11.77,6.69,6.69,0,0,0-6.49-5.07H122.49A6.69,6.69,0,0,0,115.8,185v11a6.68,6.68,0,0,0,3.58,5.92A6.66,6.66,0,0,1,119.18,200.37Z"/></g><path class="cls-13" d="M177,240.28a8.82,8.82,0,0,1-5,1.35,9,9,0,0,1-4.78-1.21c-4.57-2.82-4.14-9.53-4.14-9.53H180.9S181.32,237.39,177,240.28Z"/><path class="cls-28" d="M177,240.28a8.82,8.82,0,0,1-5,1.35,9,9,0,0,1-4.78-1.21,5,5,0,0,1,9.77-.14Z"/><path class="cls-13" d="M172,242.86a10.18,10.18,0,0,1-5.43-1.4c-5.13-3.16-4.74-10.35-4.72-10.65a1.23,1.23,0,0,1,1.23-1.15H180.9a1.23,1.23,0,0,1,1.23,1.15c0,.29.41,7.25-4.47,10.49h0A10,10,0,0,1,172,242.86Zm-7.68-10.75c.12,1.87.72,5.52,3.54,7.26a7.75,7.75,0,0,0,4.14,1,7.67,7.67,0,0,0,4.31-1.15h0c2.69-1.79,3.26-5.32,3.36-7.15ZM177,240.28h0Z"/><path class="cls-13" d="M141.89,223.83a7.16,7.16,0,0,1,1.66-1.72,9.07,9.07,0,0,1,2.11-1.18,8.35,8.35,0,0,1,5-.35,8.92,8.92,0,0,1,1.24.39,9.58,9.58,0,0,1,1.15.59,4.41,4.41,0,0,1,.53.35c.16.12.34.24.5.37a8.05,8.05,0,0,1,.89.86,9.66,9.66,0,0,1,2.25,4.07.6.6,0,0,1-.43.73.58.58,0,0,1-.54-.13h0a29.12,29.12,0,0,0-3.14-2.52,9.73,9.73,0,0,0-1.58-.85,6.77,6.77,0,0,0-1.6-.51,10.47,10.47,0,0,0-3.45,0c-.61.08-1.24.2-1.88.35s-1.32.33-2,.49h-.08a.6.6,0,0,1-.64-.91Z"/><path class="cls-13" d="M201.68,224.73c-.67-.16-1.35-.35-2-.49s-1.27-.27-1.88-.35a10.47,10.47,0,0,0-3.45,0,7,7,0,0,0-1.61.51,9.65,9.65,0,0,0-1.57.85A29.12,29.12,0,0,0,188,227.8h0a.59.59,0,0,1-.84-.06.57.57,0,0,1-.13-.54,9.56,9.56,0,0,1,2.25-4.07,8.05,8.05,0,0,1,.89-.86c.16-.13.33-.25.5-.37a4.41,4.41,0,0,1,.53-.35,8.89,8.89,0,0,1,1.15-.59,8.52,8.52,0,0,1,1.24-.39,8.36,8.36,0,0,1,5,.35,8.81,8.81,0,0,1,2.1,1.18,7,7,0,0,1,1.67,1.72.61.61,0,0,1-.17.83.6.6,0,0,1-.47.08Z"/><path class="cls-13" d="M205.46,264.58H138.83a11.49,11.49,0,0,1-11.32-9.82l-7.25-51.17a1.21,1.21,0,0,1,.29-1,1.25,1.25,0,0,1,.93-.42H222.81a1.23,1.23,0,0,1,1.22,1.4l-7.25,51.17A11.49,11.49,0,0,1,205.46,264.58Zm-82.57-59.93,7,49.76a9,9,0,0,0,8.89,7.72h66.63a9,9,0,0,0,8.88-7.72l7.06-49.76Z"/><path class="cls-13" d="M221.68,204.65H122.6a7.92,7.92,0,0,1-7.91-7.92v-11a7.93,7.93,0,0,1,7.91-7.92h99.08a7.93,7.93,0,0,1,7.92,7.92v11A7.93,7.93,0,0,1,221.68,204.65ZM122.6,180.24a5.47,5.47,0,0,0-5.46,5.46v11a5.47,5.47,0,0,0,5.46,5.46h99.08a5.47,5.47,0,0,0,5.47-5.46v-11a5.47,5.47,0,0,0-5.47-5.46Z"/><g class="cls-32"><path class="cls-13" d="M212.56,203.42l-6.21,43.8A10.21,10.21,0,0,1,196.24,256H129.62l-.6,0a10.21,10.21,0,0,0,9.81,7.39h66.63a10.2,10.2,0,0,0,10.1-8.78l7.25-51.16Z"/></g><g class="cls-32"><path class="cls-13" d="M228.37,185.7v11a6.69,6.69,0,0,1-6.69,6.69H122.6a6.7,6.7,0,0,1-6.69-6.69V196a6.45,6.45,0,0,0,1.17.1h68.3a32.45,32.45,0,0,1,.12-8.13c-8.28.4-10.36-5.28-10.36-5.28-8,.45-9-3.64-9-3.64l56.69.17v4.12h-10.7c-2.35,16.3-11.91,8.85-11.91,8.85a18.1,18.1,0,0,1-.53,3.91h16.45a6.69,6.69,0,0,0,6.69-6.69v-6.07h.69v-4A6.68,6.68,0,0,1,228.37,185.7Z"/></g><g class="cls-12"><path class="cls-13" d="M223.54,179.28v4h-.69v-4.17l.28,0h0Z"/></g><g class="cls-17"><ellipse class="cls-33" cx="205.15" cy="231.81" rx="3.84" ry="1.54"/><ellipse class="cls-33" cx="139.14" cy="231.81" rx="3.84" ry="1.54"/></g><path class="cls-28" d="M224.05,170.22a25.83,25.83,0,0,1-1.63,8.95l-14.31-.08c-.17,6-.86,11.27-4.57,11.25s-1.5-6.5-4.9-7.14c-4.26-.8-1.95,16.36-6,16.34s-4-8.06-3.94-12.38-2.18-2.35-5.54-2.82c-3.56-.49-5.09-3.89-5.61-5.44l-8.23-.05a26.32,26.32,0,0,1-.81-14.89c2.88-12.06,14.16-21,27.56-20.94a28.11,28.11,0,0,1,26.24,17.72A25.84,25.84,0,0,1,224.05,170.22Z"/><path class="cls-34" d="M203,160.53h-4.91a1.14,1.14,0,0,1,0-2.27H203a1.14,1.14,0,1,1,0,2.27Z"/><circle class="cls-34" cx="191.64" cy="166.15" r="4.61"/><path class="cls-34" d="M191.64,172a5.83,5.83,0,1,1,5.84-5.83A5.84,5.84,0,0,1,191.64,172Zm0-9.21a3.38,3.38,0,1,0,3.38,3.38A3.38,3.38,0,0,0,191.64,162.77Z"/><path class="cls-34" d="M187,160.22h-4.61a1.13,1.13,0,0,1,0-2.26H187a1.13,1.13,0,0,1,0,2.26Z"/><ellipse class="cls-16" cx="190.11" cy="169.37" rx="3.68" ry="4.45"/><path class="cls-34" d="M190.11,175.05c-2.71,0-4.92-2.54-4.92-5.68s2.21-5.68,4.92-5.68,4.91,2.55,4.91,5.68S192.82,175.05,190.11,175.05Zm0-8.9c-1.36,0-2.46,1.45-2.46,3.22s1.1,3.23,2.46,3.23,2.45-1.45,2.45-3.23S191.46,166.15,190.11,166.15Z"/><path class="cls-34" d="M192,165.68a2.26,2.26,0,0,0-.26.17l-.28.22c-.18.15-.35.31-.52.48a6.1,6.1,0,0,0-.87,1.15c-.13.21-.22.44-.33.66a6,6,0,0,0-.22.72,5.49,5.49,0,0,0-.14,1.52,5.78,5.78,0,0,1-.24-1.56,5.56,5.56,0,0,1,0-.82,7.84,7.84,0,0,1,.18-.81,6.91,6.91,0,0,1,.65-1.54,7.92,7.92,0,0,1,.47-.71c.08-.12.17-.23.26-.35s.18-.21.32-.34l0-.05a.8.8,0,0,1,1.11,0,.79.79,0,0,1,0,1.11A.8.8,0,0,1,192,165.68Z"/><g class="cls-17"><path class="cls-5" d="M168.75,173a25.72,25.72,0,0,1,.71-5.92c2.89-12.06,14.16-21,27.57-20.94a28.1,28.1,0,0,1,26.23,17.72q.15.39.27.78a25,25,0,0,0-1.19-4.15,28.12,28.12,0,0,0-26.24-17.73c-13.4-.08-24.68,8.88-27.56,20.94a26.21,26.21,0,0,0,.73,14.63A26,26,0,0,1,168.75,173Z"/></g><g class="cls-12"><path class="cls-35" d="M224.05,170.22a25.83,25.83,0,0,1-1.63,8.95l-14.31-.08c-.17,6-.86,11.27-4.57,11.25s-1.5-6.5-4.9-7.14c-4.26-.8-1.95,16.36-6,16.34s-4-8.06-3.94-12.38-2.18-2.35-5.54-2.82c-3.56-.49-5.09-3.89-5.61-5.44l-8.23-.05a26.32,26.32,0,0,1-.81-14.89c1.27,9,7.2,10.15,10,11.45s2.39,3.59,4.69,4.52,6.29-.63,7.37,0,.15,14.27,1.69,14.11,1.53-4.6,1.53-8.6,1.92-7,5.09-6.32c2.28.49,3.29,3.67,4.12,6.63.56,2,2.36,1.9,2.15-2.15-.46-8.9,3.07-10.13,3.07-10.13,12.81-1.71,14-11.33,14.12-12.73A25.84,25.84,0,0,1,224.05,170.22Z"/></g><path class="cls-35" d="M192.68,200.77h0c-2.4,0-4-1.89-4.68-5.58a43.69,43.69,0,0,1-.48-8c0-1.33-.22-1.59-.23-1.59a4.63,4.63,0,0,0-1.35,0,13.36,13.36,0,0,1-2.9,0c-3.66-.51-5.49-3.53-6.29-5.44l-7.38,0a1.22,1.22,0,0,1-1.15-.81,27.24,27.24,0,0,1-1.6-9.4c.09-15.52,13.23-28.08,29.32-28.08h.19a29.73,29.73,0,0,1,20.68,8.39,27.53,27.53,0,0,1,8.49,20,27.13,27.13,0,0,1-1.71,9.37,1.22,1.22,0,0,1-1.16.8l-13.11-.08c-.16,4.49-.78,11.24-5.73,11.24h0c-2.91,0-3.44-2.7-3.79-4.48s-.58-2.53-1.33-2.67h-.06s-.43.2-.85,1.92a47.56,47.56,0,0,0-.74,5.14C196.24,196.25,195.74,200.77,192.68,200.77Zm-5.85-17.71a2.88,2.88,0,0,1,2.11.7c.72.66,1,1.71,1,3.4a42.22,42.22,0,0,0,.43,7.57c.45,2.37,1.22,3.57,2.29,3.58h0c.07,0,.44-.29.81-1.65a41.07,41.07,0,0,0,.83-5.47c.43-4,.81-7.46,2.54-8.74a2.52,2.52,0,0,1,2-.46c2.46.47,2.93,2.86,3.28,4.61.41,2.08.64,2.5,1.4,2.51h0c2.13,0,3.13-3,3.32-10.06a1.22,1.22,0,0,1,1.24-1.19l13.43.08a25,25,0,0,0-6.47-26,27.24,27.24,0,0,0-19-7.69h-.18c-14.74,0-26.78,11.47-26.87,25.64a25,25,0,0,0,1.19,7.74l7.35,0a1.24,1.24,0,0,1,1.15.84c.42,1.25,1.72,4.21,4.62,4.62a10.89,10.89,0,0,0,2.36,0C186.09,183.09,186.46,183.06,186.83,183.06Zm37.23-12.84Z"/><path class="cls-36" d="M224.51,149.82c-1.55,2.07-2.67,9.14-7.77,12.45a26.14,26.14,0,0,0-8-10.42c2.91-3.12,7.57-6,9-7.59,1.86-2.17,7.11-17.61,15.14-11.13C240.18,139.05,226.37,147.35,224.51,149.82Z"/><g class="cls-17"><path class="cls-5" d="M218.64,146.71c1.85-2.16,7.1-17.61,15.13-11.12a5.76,5.76,0,0,1,1.79,2.25,4.79,4.79,0,0,0-2.09-4.4c-8-6.49-13.29,9-15.14,11.12-1.39,1.62-6.05,4.48-9,7.6.41.32.86.7,1.33,1.12C213.58,150.57,217.4,148.15,218.64,146.71Z"/></g><g class="cls-12"><path class="cls-13" d="M232.85,133.13a6.68,6.68,0,0,0-3.14-1.52l.38.3c7.33,5.91-6.49,14.21-8.34,16.68-1.38,1.84-2.42,7.61-6.19,11.2a22.69,22.69,0,0,1,1.18,2.48c5.1-3.31,6.22-10.38,7.77-12.45C226.37,147.35,240.18,139.05,232.85,133.13Z"/></g><path class="cls-13" d="M216.74,163.5a1.24,1.24,0,0,1-.37-.06,1.19,1.19,0,0,1-.76-.71,24.84,24.84,0,0,0-7.62-9.92,1.23,1.23,0,0,1-.46-.87,1.19,1.19,0,0,1,.33-.93,47.5,47.5,0,0,1,5.79-4.95,26.61,26.61,0,0,0,3.13-2.6,19.1,19.1,0,0,0,1.36-2.39c2-3.86,5.09-9.69,9.61-10.62a6.91,6.91,0,0,1,5.88,1.73,6.18,6.18,0,0,1,2.58,4.8c0,4.37-5,8.63-8.37,11.45a20.73,20.73,0,0,0-2.35,2.12,16,16,0,0,0-1.27,2.77c-1.24,3.16-2.94,7.47-6.81,10A1.22,1.22,0,0,1,216.74,163.5Zm-6.17-11.73a27.27,27.27,0,0,1,6.67,8.58c2.43-2.18,3.72-5.45,4.7-7.93a15.19,15.19,0,0,1,1.59-3.34h0a18.53,18.53,0,0,1,2.73-2.53c2.81-2.37,7.52-6.33,7.49-9.55a3.8,3.8,0,0,0-1.67-2.91,4.5,4.5,0,0,0-3.83-1.23c-3.38.69-6.23,6.11-7.93,9.35a17.18,17.18,0,0,1-1.67,2.84,25.47,25.47,0,0,1-3.51,3A57.29,57.29,0,0,0,210.57,151.77Z"/><path class="cls-35" d="M217.82,166.84a18.44,18.44,0,0,1-1.39-2.29c-.4-.75-.75-1.5-1.11-2.24s-.69-1.5-1.07-2.24a14,14,0,0,0-1.32-2.11,32.71,32.71,0,0,0-3.4-3.67c-.58-.59-1.19-1.16-1.77-1.78a10.88,10.88,0,0,1-1.58-2.21h0a.24.24,0,0,1,.09-.32l.11,0a5.83,5.83,0,0,1,2.76.77,13.51,13.51,0,0,1,2.22,1.61,23.35,23.35,0,0,1,3.57,4.18c.52.75,1,1.51,1.54,2.29a14,14,0,0,1,1.28,2.46,10,10,0,0,1,.69,2.69,7.18,7.18,0,0,1-.21,2.83.24.24,0,0,1-.29.15.27.27,0,0,1-.12-.09Z"/><path class="cls-25" d="M129.83,154.94a3,3,0,0,1,.39-1.67,5.38,5.38,0,0,1,1-1.15,15.46,15.46,0,0,1,2.32-1.89,32.41,32.41,0,0,1,5.3-2.73c.91-.39,1.84-.74,2.78-1s1.89-.55,2.84-.84a12,12,0,0,1,1.44-.34,8.22,8.22,0,0,1,1.49-.07,6.94,6.94,0,0,1,3,.71.2.2,0,0,1,.09.29.18.18,0,0,1-.07.08h0a13.92,13.92,0,0,1-2.68,1.2,12.56,12.56,0,0,1-1.33.38c-.44.1-.9.16-1.35.23a17.62,17.62,0,0,0-2.66.69c-.87.28-1.73.6-2.57,1a24.21,24.21,0,0,0-4.7,2.73c-.73.52-1.47,1-2.2,1.58a4.17,4.17,0,0,1-2.76,1.13A.28.28,0,0,1,129.83,154.94Z"/><g class="cls-12"><path class="cls-13" d="M190.44,204.07a8.65,8.65,0,0,1-1.57.14,6.26,6.26,0,0,1-1.34-.14Z"/></g><g class="cls-12"><polygon class="cls-13" points="220.76 179.82 220.76 183.94 220.07 183.94 220.07 179.82 220.36 179.82 220.76 179.82"/></g></svg>