<svg id="Layer_1" data-name="Layer 1" xmlns="http://www.w3.org/2000/svg" viewBox="0 0 599.28 1015.66"><defs><style>.cls-1{opacity:0.2;}.cls-2{fill:#581f13;}.cls-3{fill:#fde81c;}.cls-4{fill:#8a5a15;}.cls-5{fill:#ff305d;}.cls-6{fill:#fff;}.cls-7{opacity:0.6;}.cls-8{fill:#a96e19;}.cls-9{fill:#ff983f;}.cls-10{fill:#d02a2f;}.cls-11{fill:#ce4d2b;}.cls-12{fill:#08c0f6;}.cls-13{fill:#19558d;}.cls-14{fill:#a24b25;}.cls-15{fill:#572712;}.cls-16{fill:#7c161c;}.cls-17{fill:#ff001f;}.cls-18{fill:#ff5098;}.cls-19{fill:#96103a;}.cls-20{fill:#d52358;}.cls-21{fill:#ed9f1f;}.cls-22{opacity:0.3;}.cls-23{fill:#fc3287;}.cls-24{fill:#b20b4c;}.cls-25{fill:#c7215c;}.cls-26{fill:#ffdf7c;}</style></defs><g class="cls-1"><ellipse class="cls-2" cx="283.07" cy="959.18" rx="264.88" ry="30.15"/></g><path class="cls-3" d="M415.66,290.53c0,64.61-56.81,117-126.89,117s-126.9-52.37-126.9-117c0-31.84,13.8-60.71,36.19-81.8A125.52,125.52,0,0,1,224,189.92a136.47,136.47,0,0,1,119.84-4.8A126.05,126.05,0,0,1,388.31,218C405.43,237.91,415.66,263.12,415.66,290.53Z"/><path class="cls-4" d="M312.82,239s0,14.55-14.06,20.87a42.08,42.08,0,0,1-29.17.49c-14.91-6-14-21.36-14-21.36Z"/><path class="cls-5" d="M298.76,259.86a42.08,42.08,0,0,1-29.17.49c.58-6.48,6.91-11.59,14.61-11.59C291.73,248.76,297.91,253.61,298.76,259.86Z"/><path class="cls-4" d="M283.51,266.21c-10.72,0-18.95-3-24.47-8.82-7.47-7.93-7-18.17-6.94-18.61a3.49,3.49,0,0,1,3.49-3.28h57.23a3.49,3.49,0,0,1,3.49,3.49C316.31,239.26,315.94,266.21,283.51,266.21Zm-24.18-23.73a19.21,19.21,0,0,0,4.85,10.18c4.15,4.36,10.65,6.57,19.33,6.57,19.24,0,24.15-10.86,25.4-16.75Z"/><ellipse class="cls-4" cx="312.53" cy="216.78" rx="8.28" ry="13.25"/><ellipse class="cls-6" cx="310.88" cy="213.47" rx="3.31" ry="5.3"/><ellipse class="cls-4" cx="253.31" cy="216.78" rx="8.58" ry="13.74"/><ellipse class="cls-6" cx="255.02" cy="213.35" rx="3.43" ry="5.49"/><g class="cls-7"><path class="cls-6" d="M198.06,227.39c23-21.72,55.16-35.19,90.71-35.19,40.34,0,76.29,17.37,99.54,44.43a111.43,111.43,0,0,1,27,64.1c.23-2.89.36-5.82.36-8.76,0-27.41-10.23-52.62-27.35-72.56C365.06,192.34,329.11,175,288.77,175c-35.55,0-67.68,13.47-90.71,35.19-22.39,21.09-36.19,50-36.19,81.81q0,4.45.36,8.84C164.42,272.3,177.65,246.61,198.06,227.39Z"/></g><g class="cls-1"><path class="cls-8" d="M343.83,185.12c-15,12.32-37.75,20.17-63.21,20.17-22,0-41.94-5.85-56.63-15.37a136.47,136.47,0,0,1,119.84-4.8Z"/></g><g class="cls-1"><path class="cls-8" d="M415.66,290.53c0,64.61-56.81,117-126.89,117s-126.9-52.37-126.9-117c0-31.84,13.8-60.71,36.19-81.8,0,0,22.26,52.56,98.35,56.86S388.31,218,388.31,218C405.43,237.91,415.66,263.12,415.66,290.53Z"/></g><path class="cls-8" d="M288.76,413.26c-73.13,0-132.63-55.06-132.63-122.73S215.63,167.8,288.76,167.8,421.4,222.86,421.4,290.53,361.9,413.26,288.76,413.26Zm0-234c-66.8,0-121.15,49.91-121.15,111.25S222,401.77,288.76,401.77s121.15-49.9,121.15-111.24S355.57,179.28,288.76,179.28Z"/><path class="cls-9" d="M338.8,383.73c0,62.63-52.8,113.41-117.94,113.41S102.94,446.36,102.94,383.73A109.5,109.5,0,0,1,108.23,350c14.92-46.17,59.7-79.69,112.63-79.69A121.29,121.29,0,0,1,277.11,284C313.85,303.24,338.8,340.68,338.8,383.73Z"/><g class="cls-7"><path class="cls-6" d="M104.37,393.78a109.2,109.2,0,0,1,5.3-33.71c14.92-46.17,59.69-79.69,112.63-79.69a121.32,121.32,0,0,1,56.25,13.7c30.73,16.06,53.2,44.89,59.73,79.08-3.71-38.55-27.47-71.51-61.17-89.13a121.29,121.29,0,0,0-56.25-13.7c-52.93,0-97.71,33.52-112.63,79.69a109.39,109.39,0,0,0-3.34,54.17C104.56,400.76,104.37,397.3,104.37,393.78Z"/></g><g class="cls-1"><path class="cls-10" d="M338.8,383.73c0,62.63-52.8,113.41-117.94,113.41S102.94,446.36,102.94,383.73A109.5,109.5,0,0,1,108.23,350c.58.19,1.14.41,1.71.61C241,398,272.56,301.46,277.11,284,313.85,303.24,338.8,340.68,338.8,383.73Z"/></g><path class="cls-10" d="M154.62,340.7a3.59,3.59,0,0,1-3.43-2.54c-2.07-6.73,2.44-14.11,10.06-16.45a15.44,15.44,0,0,1,10.59.45,12,12,0,0,1,7,7.52,3.59,3.59,0,0,1-6.87,2.11,4.92,4.92,0,0,0-2.92-3,8.29,8.29,0,0,0-5.66-.19c-3.77,1.16-6.2,4.59-5.31,7.48a3.59,3.59,0,0,1-2.38,4.49A3.48,3.48,0,0,1,154.62,340.7Z"/><path class="cls-10" d="M223.91,321.13a3.6,3.6,0,0,1-3.43-2.54c-2.06-6.73,2.39-14.1,9.93-16.41a15.13,15.13,0,0,1,10.52.49,12.06,12.06,0,0,1,6.91,7.52A3.59,3.59,0,1,1,241,312.3a5,5,0,0,0-2.91-3.05,8,8,0,0,0-5.55-.21c-3.76,1.15-6.08,4.49-5.17,7.45A3.59,3.59,0,0,1,225,321,3.54,3.54,0,0,1,223.91,321.13Z"/><path class="cls-10" d="M203.67,354.21a16.05,16.05,0,0,1-15.51-12,3.59,3.59,0,1,1,6.94-1.82,8.86,8.86,0,0,0,17.14-4.47,3.59,3.59,0,1,1,6.94-1.81,16,16,0,0,1-11.46,19.56A16.13,16.13,0,0,1,203.67,354.21Z"/><path class="cls-11" d="M220.87,502.88c-68.2,0-123.68-53.45-123.68-119.15s55.48-119.14,123.68-119.14S344.55,318,344.55,383.73,289.06,502.88,220.87,502.88Zm0-226.81c-61.87,0-112.2,48.3-112.2,107.66S159,491.39,220.87,491.39,333.06,443.1,333.06,383.73,282.73,276.07,220.87,276.07Z"/><path class="cls-12" d="M484.71,399.63c0,62.62-52.8,113.39-117.94,113.39S248.83,462.25,248.83,399.63a110,110,0,0,1,23.07-67.39l0,0c21.46-27.91,56-46,94.84-46,53,0,97.83,33.61,112.7,79.87A109.64,109.64,0,0,1,484.71,399.63Z"/><ellipse class="cls-13" cx="354.24" cy="330.13" rx="9.02" ry="14.43"/><ellipse class="cls-13" cx="393.77" cy="330.35" rx="8.88" ry="14.21"/><ellipse class="cls-6" cx="391.99" cy="326.8" rx="3.55" ry="5.68"/><ellipse class="cls-6" cx="356.04" cy="326.52" rx="3.61" ry="5.77"/><path class="cls-13" d="M375.6,372.12a99.34,99.34,0,0,1-23-2.79,115.61,115.61,0,0,1-35.8-15.22,4.54,4.54,0,0,1,5.16-7.47h0c2.18,1.5,53.92,36.37,100.89.14a4.54,4.54,0,0,1,5.54,7.19A85,85,0,0,1,375.6,372.12Z"/><path class="cls-13" d="M418.52,341.76a13.25,13.25,0,0,1,7.54,2.12,17.25,17.25,0,0,1,5.62,5.62,16.79,16.79,0,0,1,2.56,7.53,14.91,14.91,0,0,1-.13,4,9.41,9.41,0,0,1-.49,1.91,12.24,12.24,0,0,1-.75,1.84c-.74-1.19-1.16-2.32-1.71-3.39s-1-2.11-1.51-3.07a58.91,58.91,0,0,0-3.1-5.56,60.29,60.29,0,0,0-3.62-5.26C421.59,345.66,420.16,343.88,418.52,341.76Z"/><path class="cls-13" d="M314,357.61a10.18,10.18,0,0,1-1.48-6.64,17.33,17.33,0,0,1,1.82-6.33,19.56,19.56,0,0,1,3.79-5.22,22.13,22.13,0,0,1,2.55-2,15,15,0,0,1,3.06-1.5,17.9,17.9,0,0,1-.68,3.28,25,25,0,0,1-1,2.92c-.68,1.86-1.51,3.58-2.32,5.26s-1.75,3.29-2.68,4.94S315.14,355.56,314,357.61Z"/><g class="cls-7"><path class="cls-6" d="M266.16,348a0,0,0,0,1,0,0c21.46-27.9,56-46,94.84-46,53,0,97.83,33.6,112.7,79.86a109.76,109.76,0,0,1,.06,66.83,109.64,109.64,0,0,0,7.12-84.06C466,318.4,421.2,284.79,368.21,284.79c-38.88,0-73.38,18.09-94.84,46h0a111.44,111.44,0,0,0-17.86,34A112.29,112.29,0,0,1,266.16,348Z"/></g><g class="cls-1"><path class="cls-13" d="M484.71,399.63c0,62.62-52.8,113.39-117.94,113.39S248.83,462.25,248.83,399.63a110,110,0,0,1,23.07-67.39l0,0s48.9,108.53,207.54,33.87A109.64,109.64,0,0,1,484.71,399.63Z"/></g><path class="cls-13" d="M366.77,518.77c-68.2,0-123.68-53.45-123.68-119.15s55.48-119.14,123.68-119.14,123.68,53.45,123.68,119.14S435,518.77,366.77,518.77Zm0-226.81c-61.86,0-112.19,48.3-112.19,107.66s50.33,107.66,112.19,107.66S479,459,479,399.62,428.64,292,366.77,292Z"/><path class="cls-14" d="M319.34,508c0,73-61.55,132.19-137.47,132.19S44.39,581,44.39,508a126.11,126.11,0,0,1,2.44-24.8c12.06-61.15,67.92-107.38,135-107.38a140.35,140.35,0,0,1,84.53,28C298.62,427.91,319.34,465.61,319.34,508Z"/><ellipse class="cls-15" cx="149.11" cy="461.98" rx="12.16" ry="20.27"/><ellipse class="cls-15" cx="206.81" cy="457.31" rx="11.21" ry="18.68"/><ellipse class="cls-6" cx="204.95" cy="453.57" rx="4.48" ry="7.47"/><ellipse class="cls-6" cx="151.14" cy="455.9" rx="4.87" ry="8.11"/><ellipse class="cls-15" cx="180.3" cy="505.65" rx="12.16" ry="20.27"/><g class="cls-7"><path class="cls-6" d="M46.83,494.64c12.06-61.14,67.92-107.37,135-107.37a140.28,140.28,0,0,1,84.53,28c30.77,23.09,51,58.52,52.8,98.55.08-1.93.14-3.86.14-5.81,0-42.35-20.72-80-52.94-104.23a140.35,140.35,0,0,0-84.53-28c-67.12,0-123,46.23-135,107.38A126.11,126.11,0,0,0,44.39,508c0,2,0,3.88.14,5.81A125.77,125.77,0,0,1,46.83,494.64Z"/></g><g class="cls-1"><path class="cls-15" d="M319.34,508c0,73-61.55,132.19-137.47,132.19S44.39,581,44.39,508a126.11,126.11,0,0,1,2.44-24.8S71,561.34,170.07,532.63,264,405.28,264,405.28l2.4-1.55C298.62,427.91,319.34,465.61,319.34,508Z"/></g><path class="cls-15" d="M181.86,645.89C102.9,645.89,38.65,584,38.65,508S102.9,370,181.86,370,325.07,431.92,325.07,508,260.83,645.89,181.86,645.89Zm0-264.36c-72.63,0-131.72,56.72-131.72,126.44s59.09,126.44,131.72,126.44S313.59,577.69,313.59,508,254.5,381.53,181.86,381.53Z"/><path class="cls-16" d="M220,26.33a8.54,8.54,0,0,1,1.91.27l.68.19c.5.14.78.25,1.14.37.72.24,1.29.48,1.93.73,1.21.51,2.39,1,3.53,1.59,2.27,1.13,4.48,2.31,6.62,3.61S240,35.72,242,37.17s4.05,2.9,6,4.49A109.19,109.19,0,0,1,268.4,63.32,95,95,0,0,1,276.16,76a87.92,87.92,0,0,1,5.68,13.7c.82,2.32,1.34,4.75,2,7.11.47,2.41,1.06,4.79,1.3,7.23a86.24,86.24,0,0,1,.8,14.51.78.78,0,0,1-1.54.13v0a101.19,101.19,0,0,0-8.52-26.59c-.95-2.09-2.09-4.09-3.18-6.1-.57-1-1.2-2-1.79-2.93s-1.2-2-1.84-2.89c-1.23-1.92-2.62-3.74-4-5.57s-2.82-3.58-4.33-5.28a133.49,133.49,0,0,0-20-18.47q-5.43-4.11-11.16-7.77c-1.91-1.19-3.83-2.37-5.77-3.47-1-.54-1.92-1.08-2.87-1.57l-1.34-.68-.53-.26-.17-.08a3,3,0,0,0,1,.09,5.4,5.4,0,0,1,0-10.8Z"/><ellipse class="cls-17" cx="283.48" cy="147.54" rx="55.62" ry="46.23"/><g class="cls-7"><path class="cls-6" d="M283.48,111.36c29.26,0,53.22,18.79,55.43,42.64.11-1.19.18-2.38.18-3.59,0-25.53-24.9-46.23-55.61-46.23s-55.62,20.7-55.62,46.23c0,1.21.07,2.4.18,3.59C230.25,130.15,254.21,111.36,283.48,111.36Z"/></g><g class="cls-1"><path class="cls-16" d="M284.91,165.05c-24.68,0-45.6-13.37-52.87-31.87a39.27,39.27,0,0,0-2.75,14.36c0,25.53,24.91,46.23,55.62,46.23s55.62-20.7,55.62-46.23a39.06,39.06,0,0,0-2.75-14.36C330.51,151.68,309.6,165.05,284.91,165.05Z"/></g><path class="cls-16" d="M283.48,199.51c-33.84,0-61.36-23.31-61.36-52s27.52-52,61.36-52,61.36,23.31,61.36,52S317.31,199.51,283.48,199.51Zm0-92.46c-27.51,0-49.88,18.17-49.88,40.49S256,188,283.48,188s49.87-18.16,49.87-40.48S311,107.05,283.48,107.05Z"/><ellipse class="cls-16" cx="282.75" cy="107.81" rx="13" ry="4.33"/><path class="cls-6" d="M94.17,265.87c-30.55-6.58-53-18.26-66.91-27.38a17.17,17.17,0,0,1,10-11.35l18.81-7.83a17.27,17.27,0,0,1,22.58,9.29Z"/><path class="cls-18" d="M112.17,309.05c-31.95-5.88-55.67-17.51-70.74-27L28,249.72a17.1,17.1,0,0,1-.69-11.23c13.93,9.12,36.36,20.8,66.91,27.38Z"/><path class="cls-6" d="M130.62,353.31a205.34,205.34,0,0,1-69.44-23.89L41.43,282.05c15.07,9.49,38.79,21.12,70.74,27Z"/><path class="cls-18" d="M148.29,395.69a207.35,207.35,0,0,1-68.75-22.21L61.18,329.42a205.34,205.34,0,0,0,69.44,23.89Z"/><path class="cls-6" d="M154.41,410.39c-14.66,3.68-32.86,10.5-49.82,23.18l-25-60.09a207.35,207.35,0,0,0,68.75,22.21Z"/><g class="cls-1"><path class="cls-19" d="M93.9,363.43,75.54,319.37,55.79,272,42.31,239.67a17.1,17.1,0,0,1-.69-11.23,17.34,17.34,0,0,1,3.49-6.61l-9.3,3.87a17.19,17.19,0,0,0-10,11.36,16.94,16.94,0,0,0,.69,11.22L40,280.61,59.74,328,78.11,372l25,60.1a128.08,128.08,0,0,1,15.3-9.8Z"/></g><path class="cls-20" d="M94.17,271.61a5.44,5.44,0,0,1-1.2-.13c-31.76-6.83-55-19.1-68.85-28.18a5.75,5.75,0,0,1-2.4-6.33A22.85,22.85,0,0,1,35,221.84L53.84,214a23,23,0,0,1,30.09,12.38l15.54,37.27a5.74,5.74,0,0,1-5.3,7.95ZM34.56,236.32a192.72,192.72,0,0,0,50,21.29l-11.18-26.8a11.52,11.52,0,0,0-15.07-6.2l-18.81,7.83A11.34,11.34,0,0,0,34.56,236.32Z"/><path class="cls-20" d="M112.18,314.79a5.16,5.16,0,0,1-1-.1c-33.45-6.15-58-18.5-72.77-27.78a5.79,5.79,0,0,1-2.24-2.65L22.65,251.93a22.94,22.94,0,0,1-.92-15,5.74,5.74,0,0,1,8.68-3.24c13.06,8.55,34.94,20.1,65,26.56a5.77,5.77,0,0,1,4.1,3.41l18,43.18a5.75,5.75,0,0,1-5.3,8ZM46,278.14a193.73,193.73,0,0,0,56.64,23L90,270.83a208.71,208.71,0,0,1-56-21.51Z"/><path class="cls-20" d="M130.62,359.05a5.46,5.46,0,0,1-.9-.07,210.29,210.29,0,0,1-71.38-24.57,5.72,5.72,0,0,1-2.46-2.79L36.13,284.26a5.74,5.74,0,0,1,8.36-7.07c13.88,8.74,37.07,20.39,68.72,26.21a5.75,5.75,0,0,1,4.27,3.44l18.44,44.26a5.73,5.73,0,0,1-5.3,7.95Zm-64.9-33.67a196.56,196.56,0,0,0,55.53,20.38l-13.19-31.65a212.59,212.59,0,0,1-54.89-18.82Z"/><path class="cls-20" d="M148.29,401.44a5.76,5.76,0,0,1-.82-.06,212.85,212.85,0,0,1-70.65-22.85,5.74,5.74,0,0,1-2.58-2.85L55.88,331.62a5.74,5.74,0,0,1,8.14-7.2,199,199,0,0,0,67.5,23.22,5.72,5.72,0,0,1,4.4,3.46l17.67,42.38a5.75,5.75,0,0,1-5.3,8ZM84.05,369.37A199.22,199.22,0,0,0,139,388.31l-12.44-29.86a213.28,213.28,0,0,1-54-16.72Z"/><path class="cls-20" d="M104.59,439.31a5.5,5.5,0,0,1-1.51-.2,5.76,5.76,0,0,1-3.79-3.33l-25.05-60.1a5.74,5.74,0,0,1,8-7.26A201.29,201.29,0,0,0,149.11,390a5.76,5.76,0,0,1,4.48,3.47l6.13,14.7a5.75,5.75,0,0,1-3.91,7.78A133.35,133.35,0,0,0,108,438.17,5.73,5.73,0,0,1,104.59,439.31Zm-13.9-54,16.44,39.45a145,145,0,0,1,39.47-18.18l-2.37-5.68A215.9,215.9,0,0,1,90.69,385.3Z"/><path class="cls-21" d="M440,955.8H128.44a47.72,47.72,0,0,1-47.25-41L47.28,675.54H521.11L487.2,914.78A47.72,47.72,0,0,1,440,955.8Z"/><g class="cls-1"><rect class="cls-2" x="454.68" y="933.51" width="32.13" height="4.54" transform="translate(-576.74 927.96) rotate(-62.87)"/><rect class="cls-2" x="390.19" y="883.66" width="144.16" height="4.54" transform="translate(-536.98 893.31) rotate(-62.87)"/><rect class="cls-2" x="322.31" y="828.81" width="266.84" height="4.54" transform="translate(-491.61 861.78) rotate(-63.12)"/><rect class="cls-2" x="278.11" y="811.58" width="306.13" height="4.54" transform="translate(-489.76 826.42) rotate(-62.87)"/><rect class="cls-2" x="244.09" y="811.58" width="306.13" height="4.54" transform="translate(-508.26 796.15) rotate(-62.87)"/><rect class="cls-2" x="210.07" y="811.58" width="306.13" height="4.54" transform="translate(-526.77 765.87) rotate(-62.87)"/><rect class="cls-2" x="176.05" y="811.58" width="306.13" height="4.54" transform="translate(-545.27 735.6) rotate(-62.87)"/><rect class="cls-2" x="142.04" y="811.58" width="306.13" height="4.54" transform="translate(-563.77 705.33) rotate(-62.87)"/><rect class="cls-2" x="108.02" y="811.58" width="306.13" height="4.54" transform="translate(-582.28 675.06) rotate(-62.87)"/><rect class="cls-2" x="74" y="811.58" width="306.13" height="4.54" transform="translate(-600.78 644.78) rotate(-62.87)"/><rect class="cls-2" x="39.99" y="811.58" width="306.13" height="4.54" transform="translate(-619.28 614.51) rotate(-62.87)"/><rect class="cls-2" x="15.8" y="805.58" width="292.63" height="4.54" transform="translate(-630.77 583.7) rotate(-62.87)"/><rect class="cls-2" x="10.58" y="787.98" width="253.07" height="4.54" transform="translate(-628.7 551.89) rotate(-62.87)"/><rect class="cls-2" x="18.35" y="762.43" width="195.67" height="4.54" transform="translate(-617.35 519.36) rotate(-62.87)"/><rect class="cls-2" x="26.12" y="736.89" width="138.27" height="4.54" transform="translate(-606.01 486.84) rotate(-62.87)"/><rect class="cls-2" x="37.48" y="709.16" width="75.94" height="4.54" transform="translate(-592.1 454.13) rotate(-62.87)"/><rect class="cls-2" x="95.87" y="831.36" width="4.54" height="125.62" transform="translate(-396.98 143.15) rotate(-27.13)"/><rect class="cls-2" x="107.68" y="738.94" width="4.54" height="223.79" transform="translate(-375.91 143.77) rotate(-27.13)"/><rect class="cls-2" x="122.75" y="660.79" width="4.54" height="306.13" transform="translate(-357.39 146.57) rotate(-27.13)"/><rect class="cls-2" x="156.76" y="660.79" width="4.54" height="306.13" transform="translate(-353.65 162.08) rotate(-27.13)"/><rect class="cls-2" x="190.78" y="660.79" width="4.54" height="306.13" transform="translate(-349.9 177.59) rotate(-27.13)"/><rect class="cls-2" x="224.8" y="660.79" width="4.54" height="306.13" transform="translate(-346.16 193.11) rotate(-27.13)"/><rect class="cls-2" x="258.81" y="660.79" width="4.54" height="306.13" transform="translate(-342.42 208.62) rotate(-27.13)"/><rect class="cls-2" x="292.83" y="660.79" width="4.54" height="306.13" transform="translate(-338.67 224.13) rotate(-27.13)"/><rect class="cls-2" x="326.85" y="660.79" width="4.54" height="306.13" transform="translate(-334.93 239.64) rotate(-27.13)"/><rect class="cls-2" x="360.87" y="660.79" width="4.54" height="306.13" transform="translate(-331.19 255.16) rotate(-27.13)"/><rect class="cls-2" x="394.88" y="660.79" width="4.54" height="306.13" transform="translate(-327.44 270.67) rotate(-27.13)"/><rect class="cls-2" x="419.24" y="663.12" width="4.54" height="263.75" transform="translate(-316.17 279.7) rotate(-27.13)"/><rect class="cls-2" x="440.18" y="666.28" width="4.54" height="206.42" transform="translate(-302.23 286.45) rotate(-27.13)"/><rect class="cls-2" x="461.11" y="669.43" width="4.54" height="149.02" transform="translate(-288.27 293.18) rotate(-27.13)"/><rect class="cls-2" x="482.04" y="672.59" width="4.54" height="91.62" transform="translate(-274.32 299.91) rotate(-27.13)"/><rect class="cls-2" x="500.88" y="673.41" width="4.54" height="50.08" transform="translate(-264.3 308.56) rotate(-27.3)"/></g><rect class="cls-21" x="22.28" y="565.73" width="519.09" height="114.12" rx="29.16"/><g class="cls-1"><rect class="cls-2" x="496.79" y="640.83" width="71.6" height="4.54" transform="translate(-264.97 890.33) rotate(-67.59)"/><rect class="cls-2" x="447.6" y="618.65" width="119.71" height="4.54" transform="translate(-260.67 851.24) rotate(-67.43)"/><rect class="cls-2" x="411.59" y="616.5" width="124.24" height="4.54" transform="translate(-278.91 820.85) rotate(-67.59)"/><rect class="cls-2" x="377.14" y="616.5" width="124.24" height="4.54" transform="translate(-300.23 788.99) rotate(-67.59)"/><rect class="cls-2" x="342.68" y="616.5" width="124.24" height="4.54" transform="translate(-321.56 757.14) rotate(-67.59)"/><rect class="cls-2" x="308.22" y="616.5" width="124.24" height="4.54" transform="translate(-342.88 725.28) rotate(-67.59)"/><rect class="cls-2" x="273.77" y="616.5" width="124.24" height="4.54" transform="translate(-364.2 693.43) rotate(-67.59)"/><rect class="cls-2" x="239.31" y="616.5" width="124.24" height="4.54" transform="translate(-385.52 661.57) rotate(-67.59)"/><rect class="cls-2" x="204.86" y="616.5" width="124.24" height="4.54" transform="translate(-406.84 629.72) rotate(-67.59)"/><rect class="cls-2" x="170.4" y="616.5" width="124.24" height="4.54" transform="translate(-428.17 597.86) rotate(-67.59)"/><rect class="cls-2" x="135.94" y="616.5" width="124.24" height="4.54" transform="translate(-449.49 566.01) rotate(-67.59)"/><rect class="cls-2" x="101.49" y="616.5" width="124.24" height="4.54" transform="translate(-470.81 534.15) rotate(-67.59)"/><rect class="cls-2" x="67.03" y="616.5" width="124.24" height="4.54" transform="translate(-492.13 502.3) rotate(-67.59)"/><rect class="cls-2" x="32.57" y="616.5" width="124.24" height="4.54" transform="translate(-513.45 470.44) rotate(-67.59)"/><rect class="cls-2" x="1.1" y="614.35" width="119.71" height="4.54" transform="translate(-531.84 436.27) rotate(-67.43)"/><rect class="cls-2" x="0.37" y="591.94" width="71.1" height="4.54" transform="translate(-527.12 400.91) rotate(-67.59)"/><rect class="cls-2" x="33.65" y="607.79" width="4.54" height="71.1" transform="translate(-242.61 62.31) rotate(-22.42)"/><rect class="cls-2" x="58.69" y="561.07" width="4.54" height="119.71" transform="translate(-233.62 70.94) rotate(-22.57)"/><rect class="cls-2" x="92.43" y="556.65" width="4.54" height="124.24" transform="translate(-228.8 82.86) rotate(-22.42)"/><rect class="cls-2" x="126.88" y="556.65" width="4.54" height="124.24" transform="translate(-226.2 96) rotate(-22.42)"/><rect class="cls-2" x="161.34" y="556.65" width="4.54" height="124.24" transform="translate(-223.59 109.14) rotate(-22.42)"/><rect class="cls-2" x="195.79" y="556.65" width="4.54" height="124.24" transform="translate(-220.99 122.28) rotate(-22.42)"/><rect class="cls-2" x="230.25" y="556.65" width="4.54" height="124.24" transform="translate(-218.39 135.42) rotate(-22.42)"/><rect class="cls-2" x="264.71" y="556.65" width="4.54" height="124.24" transform="matrix(0.92, -0.38, 0.38, 0.92, -215.78, 148.56)"/><rect class="cls-2" x="299.16" y="556.65" width="4.54" height="124.24" transform="translate(-213.18 161.7) rotate(-22.42)"/><rect class="cls-2" x="333.62" y="556.65" width="4.54" height="124.24" transform="translate(-210.57 174.84) rotate(-22.42)"/><rect class="cls-2" x="368.08" y="556.65" width="4.54" height="124.24" transform="translate(-207.97 187.98) rotate(-22.42)"/><rect class="cls-2" x="402.53" y="556.65" width="4.54" height="124.24" transform="translate(-205.37 201.12) rotate(-22.42)"/><rect class="cls-2" x="436.99" y="556.65" width="4.54" height="124.24" transform="translate(-202.77 214.26) rotate(-22.42)"/><rect class="cls-2" x="471.45" y="556.65" width="4.54" height="124.24" transform="translate(-200.16 227.4) rotate(-22.42)"/><rect class="cls-2" x="505.18" y="556.76" width="4.54" height="119.71" transform="translate(-197.78 241.96) rotate(-22.57)"/><rect class="cls-2" x="530.32" y="558.64" width="4.54" height="71.6" transform="translate(-186.43 248.01) rotate(-22.42)"/></g><g class="cls-7"><path class="cls-6" d="M36.55,661.26V609.69a31.27,31.27,0,0,1,31.28-31.27H531.11A31.14,31.14,0,0,1,545.66,582a31.28,31.28,0,0,0-30.34-23.69H52a31.27,31.27,0,0,0-31.27,31.27v51.57a31.28,31.28,0,0,0,16.72,27.69A31.62,31.62,0,0,1,36.55,661.26Z"/></g><path class="cls-2" d="M306.82,847.89c-5.79,3.85-13.38,6.33-23.36,6.33-9.41,0-16.7-2.2-22.35-5.69C239.77,835.38,241.77,804,241.77,804h83.39S327.1,834.38,306.82,847.89Z"/><path class="cls-18" d="M306.82,847.89c-5.79,3.85-13.38,6.33-23.36,6.33-9.41,0-16.7-2.2-22.35-5.69,1-10.89,10.88-19.43,22.89-19.43C295.77,829.1,305.48,837.3,306.82,847.89Z"/><path class="cls-2" d="M283.46,860c-9.78,0-18.32-2.2-25.37-6.54-24-14.79-22.15-48.39-22-49.81a5.74,5.74,0,0,1,5.73-5.38h83.39a5.74,5.74,0,0,1,5.73,5.38C331,805,332.78,837.5,310,852.67h0C302.73,857.51,293.8,860,283.46,860Zm-35.88-50.24c.54,8.72,3.33,25.78,16.54,33.92,5.21,3.21,11.72,4.84,19.34,4.84,8,0,14.82-1.81,20.18-5.37h0c12.57-8.37,15.22-24.87,15.72-33.39Zm59.24,38.17h0Z"/><path class="cls-2" d="M142.75,771a33.09,33.09,0,0,1,7.77-8.05,42.15,42.15,0,0,1,9.84-5.49,39.31,39.31,0,0,1,23.43-1.66,44.48,44.48,0,0,1,5.8,1.85,42.08,42.08,0,0,1,5.35,2.74,20,20,0,0,1,2.48,1.63c.79.59,1.61,1.14,2.35,1.76a43.89,43.89,0,0,1,4.17,4,45.13,45.13,0,0,1,10.53,19,2.8,2.8,0,0,1-4.55,2.82l0,0c-5.09-4.46-9.79-8.61-14.69-11.78a44.33,44.33,0,0,0-7.36-4,33.62,33.62,0,0,0-7.52-2.37,49,49,0,0,0-16.11-.15c-2.85.39-5.79,1-8.81,1.63s-6.16,1.56-9.3,2.3l-.37.08a2.79,2.79,0,0,1-3.37-2.09A2.86,2.86,0,0,1,142.75,771Z"/><path class="cls-2" d="M422.3,775.17c-3.13-.74-6.3-1.63-9.3-2.3s-6-1.24-8.8-1.63a49,49,0,0,0-16.11.15,33.46,33.46,0,0,0-7.52,2.37,44.41,44.41,0,0,0-7.37,4c-4.9,3.17-9.6,7.32-14.69,11.78l0,0a2.79,2.79,0,0,1-4-.26,2.83,2.83,0,0,1-.61-2.55,45.89,45.89,0,0,1,14.7-23c.75-.62,1.56-1.17,2.35-1.76a21.63,21.63,0,0,1,2.48-1.63,42.21,42.21,0,0,1,5.36-2.74,44.34,44.34,0,0,1,5.79-1.85A39.31,39.31,0,0,1,408,757.42a42.15,42.15,0,0,1,9.84,5.49,33.31,33.31,0,0,1,7.78,8.05,2.81,2.81,0,0,1-3,4.29Z"/><path class="cls-2" d="M440,961.54H128.44a53.71,53.71,0,0,1-52.93-46L41.6,676.35a5.75,5.75,0,0,1,5.68-6.55H521.11a5.75,5.75,0,0,1,5.69,6.55L492.89,915.58A53.72,53.72,0,0,1,440,961.54ZM53.9,681.29,86.88,914a42.16,42.16,0,0,0,41.56,36.08H440A42.16,42.16,0,0,0,481.51,914l33-232.68Z"/><path class="cls-2" d="M515.84,681.29H52.56a37.06,37.06,0,0,1-37-37V592.7a37.05,37.05,0,0,1,37-37H515.84a37.06,37.06,0,0,1,37,37v51.57A37.07,37.07,0,0,1,515.84,681.29ZM52.56,567.16A25.57,25.57,0,0,0,27,592.7v51.57A25.56,25.56,0,0,0,52.56,669.8H515.84a25.56,25.56,0,0,0,25.53-25.53V592.7a25.56,25.56,0,0,0-25.53-25.54Z"/><g class="cls-22"><path class="cls-2" d="M473.16,675.54l-29,204.78a47.72,47.72,0,0,1-47.24,41H85.37c-.94,0-1.87,0-2.8-.09a47.73,47.73,0,0,0,45.87,34.55H440a47.72,47.72,0,0,0,47.24-41l33.91-239.24Z"/></g><g class="cls-22"><path class="cls-2" d="M547.12,592.7v51.57a31.28,31.28,0,0,1-31.28,31.27H52.56a31.28,31.28,0,0,1-31.29-31.27v-3.66a31.53,31.53,0,0,0,5.44.47h319.4c-2.48-18.75.55-38,.55-38-38.73,1.85-48.46-24.68-48.46-24.68-37.33,2.09-42-17.06-42-17.06l265.07.82v19.28h-50c-11,76.19-55.7,41.35-55.7,41.35a85.38,85.38,0,0,1-2.46,18.29H490a31.29,31.29,0,0,0,31.29-31.27V581.44h3.21V562.65A31.29,31.29,0,0,1,547.12,592.7Z"/></g><g class="cls-1"><path class="cls-2" d="M524.49,562.65v18.79h-3.21V561.9c.44.07.89.18,1.33.28h0A17.29,17.29,0,0,1,524.49,562.65Z"/></g><g class="cls-7"><ellipse class="cls-23" cx="438.53" cy="808.28" rx="17.95" ry="7.18"/><ellipse class="cls-23" cx="129.86" cy="808.28" rx="17.95" ry="7.18"/></g><path class="cls-18" d="M526.92,520.33a121.63,121.63,0,0,1-7.65,41.85l-66.89-.42c-.8,28.17-4,52.72-21.38,52.6S424,584,408.09,581c-19.93-3.75-9.13,76.5-27.91,76.39s-18.55-37.67-18.42-57.89-10.19-11-25.93-13.16C319.22,584,312,568.15,309.6,560.9l-38.45-.23a122.24,122.24,0,0,1-3.8-69.63c13.48-56.4,66.18-98.3,128.88-97.92,56.39.35,104.29,34.79,122.67,82.87A121.69,121.69,0,0,1,526.92,520.33Z"/><path class="cls-24" d="M428.49,475h-23a5.3,5.3,0,1,1,0-10.59h23a5.3,5.3,0,1,1,0,10.59Z"/><circle class="cls-24" cx="375.37" cy="501.28" r="21.54"/><path class="cls-24" d="M375.37,528.55a27.28,27.28,0,1,1,27.28-27.27A27.31,27.31,0,0,1,375.37,528.55Zm0-43.07a15.8,15.8,0,1,0,15.79,15.8A15.81,15.81,0,0,0,375.37,485.48Z"/><path class="cls-24" d="M353.84,473.55H332.3a5.3,5.3,0,1,1,0-10.59h21.54a5.3,5.3,0,0,1,0,10.59Z"/><ellipse class="cls-5" cx="368.19" cy="516.35" rx="17.23" ry="20.82"/><path class="cls-24" d="M368.19,542.91c-12.66,0-23-11.91-23-26.56s10.31-26.56,23-26.56,23,11.91,23,26.56S380.86,542.91,368.19,542.91Zm0-41.63c-6.33,0-11.48,6.76-11.48,15.07s5.15,15.07,11.48,15.07,11.49-6.76,11.49-15.07S374.53,501.28,368.19,501.28Z"/><path class="cls-24" d="M376.86,499.08a11.61,11.61,0,0,0-1.23.81c-.44.31-.87.65-1.29,1a30.64,30.64,0,0,0-2.45,2.26,27.64,27.64,0,0,0-4.07,5.39,29.58,29.58,0,0,0-1.53,3.09,25.18,25.18,0,0,0-1,3.33,25.59,25.59,0,0,0-.66,7.13,26.59,26.59,0,0,1-1.13-7.32,27.28,27.28,0,0,1,.22-3.82,32.88,32.88,0,0,1,.81-3.77,32.39,32.39,0,0,1,3.05-7.22,38,38,0,0,1,2.17-3.33c.4-.54.81-1.08,1.25-1.6a20.44,20.44,0,0,1,1.48-1.61l.22-.21a3.65,3.65,0,1,1,4.19,5.87Z"/><g class="cls-7"><path class="cls-6" d="M268.31,533.09a121.76,121.76,0,0,1,3.35-27.7c13.48-56.39,66.18-98.3,128.88-97.91,56.39.35,104.29,34.79,122.66,82.87.46,1.19.87,2.41,1.29,3.62a121.07,121.07,0,0,0-5.59-19.41c-18.38-48.09-66.28-82.53-122.67-82.87-62.7-.39-115.4,41.52-128.88,97.91A122,122,0,0,0,270.74,558,121.91,121.91,0,0,1,268.31,533.09Z"/></g><g class="cls-1"><path class="cls-25" d="M526.92,520.33a121.63,121.63,0,0,1-7.65,41.85l-66.89-.42c-.8,28.17-4,52.72-21.38,52.6S424,584,408.09,581c-19.93-3.75-9.13,76.5-27.91,76.39s-18.55-37.67-18.42-57.89-10.19-11-25.93-13.16C319.22,584,312,568.15,309.6,560.9l-38.45-.23a122.24,122.24,0,0,1-3.8-69.63c5.91,41.88,33.65,47.48,46.63,53.53,13.28,6.22,11.14,16.77,21.91,21.15s29.43-2.94,34.46,0,.71,66.72,7.89,66,7.18-21.53,7.18-40.2,8.95-32.8,23.79-29.59c10.67,2.31,15.36,17.19,19.28,31,2.59,9.15,11,8.9,10.05-10-2.15-41.64,14.36-47.38,14.36-47.38,59.88-8,65.49-53,66-59.51A121.69,121.69,0,0,1,526.92,520.33Z"/></g><path class="cls-25" d="M380.24,663.14h-.09c-11.25-.07-18.62-8.84-21.91-26.08-2.38-12.48-2.29-27-2.23-37.6,0-6.22-1.06-7.42-1.07-7.44-.73-.42-4.09-.14-6.31.05A59.79,59.79,0,0,1,335,592c-17.1-2.38-25.66-16.49-29.4-25.41l-34.52-.21a5.75,5.75,0,0,1-5.37-3.81,127.08,127.08,0,0,1-7.48-43.91c.44-72.58,61.87-131.31,137.12-131.31h.88c36.61.22,71,14.15,96.7,39.22s39.91,58.42,39.7,93.76a127.06,127.06,0,0,1-8,43.82,5.72,5.72,0,0,1-5.41,3.74l-61.3-.38c-.76,21-3.65,52.57-26.81,52.57H431c-13.63-.09-16.11-12.66-17.75-21-1.57-8-2.7-11.83-6.19-12.49a.9.9,0,0,0-.31,0s-2,1-3.94,9c-1.59,6.6-2.55,15.45-3.49,24C396.85,642,394.54,663.14,380.24,663.14Zm-27.38-82.81c3.6,0,7.05.64,9.89,3.27,3.33,3.09,4.8,8,4.75,15.93-.06,10.13-.15,24,2,35.38,2.11,11.08,5.71,16.71,10.7,16.74h0c.34,0,2.07-1.37,3.78-7.72,1.83-6.78,2.87-16.33,3.87-25.56,2.05-18.73,3.81-34.92,11.87-40.89a11.76,11.76,0,0,1,9.42-2.12c11.51,2.16,13.72,13.37,15.33,21.55,1.92,9.72,3,11.69,6.55,11.71h.07c9.95,0,14.6-14.07,15.52-47a5.73,5.73,0,0,1,5.78-5.58l62.81.39a115.82,115.82,0,0,0,6-36.12c.2-32.18-12.67-62.53-36.22-85.46s-55.14-35.76-88.76-36h-.81c-68.95,0-125.23,53.62-125.64,119.89A116.06,116.06,0,0,0,275.27,555l34.37.2a5.74,5.74,0,0,1,5.41,3.92c2,5.86,8,19.69,21.57,21.58a48.58,48.58,0,0,0,11.07,0C349.41,580.48,351.15,580.33,352.86,580.33Zm174.06-60h0Z"/><path class="cls-26" d="M529.06,424.9c-7.27,9.7-12.51,42.78-36.32,58.25-9.5-23.6-26.16-39.84-37.36-48.74,13.61-14.58,35.43-28,41.9-35.51,8.67-10.11,33.22-82.34,70.78-52C602.32,374.56,537.73,413.35,529.06,424.9Z"/><g class="cls-7"><path class="cls-6" d="M501.58,410.39c8.67-10.12,33.23-82.35,70.79-52a27.24,27.24,0,0,1,8.37,10.5c.76-7.13-1.87-14.14-9.81-20.55-37.55-30.34-62.11,41.89-70.78,52-6.47,7.55-28.29,20.93-41.89,35.5,1.93,1.54,4,3.31,6.21,5.28C477.94,428.44,495.83,417.11,501.58,410.39Z"/></g><g class="cls-1"><path class="cls-2" d="M568.06,346.9c-5.14-4.16-10-6.38-14.69-7.11.59.43,1.18.88,1.77,1.36,34.25,27.67-30.33,66.45-39,78-6.45,8.6-11.31,35.59-28.94,52.38a104.6,104.6,0,0,1,5.54,11.61c23.81-15.47,29-48.55,36.32-58.25C537.73,413.35,602.31,374.56,568.06,346.9Z"/></g><path class="cls-2" d="M492.74,488.89a5.69,5.69,0,0,1-5.32-3.59c-8.86-22-24.25-37.37-35.61-46.4a5.74,5.74,0,0,1-.62-8.41c7.92-8.49,18.1-16.27,27.08-23.14,6.27-4.79,12.18-9.31,14.65-12.19,1.31-1.53,3.77-6.21,6.37-11.16,9.48-18,23.8-45.28,44.93-49.65,9.22-1.91,18.45.81,27.45,8.08,7.93,6.4,12,13.95,12.07,22.44.2,20.46-23.47,40.37-39.13,53.54-4.88,4.1-9.48,8-11,9.94-1.76,2.35-3.79,7.5-5.94,13C521.89,456,513.93,476.23,495.87,488A5.75,5.75,0,0,1,492.74,488.89ZM463.88,434c10.39,9.07,22.58,22.38,31.16,40.15,11.38-10.19,17.42-25.49,22-37.07,2.66-6.73,4.76-12,7.44-15.63h0c2.26-3,6.66-6.72,12.75-11.84,13.16-11.07,35.19-29.59,35-44.63,0-5-2.6-9.43-7.8-13.63-6.28-5.07-12.14-6.95-17.92-5.76-15.81,3.26-29.13,28.61-37.08,43.75-3.29,6.25-5.67,10.77-7.82,13.29-3.25,3.79-9.05,8.22-16.39,13.84A268.15,268.15,0,0,0,463.88,434Z"/><path class="cls-25" d="M497.78,504.51a84.76,84.76,0,0,1-6.52-10.72c-1.86-3.52-3.49-7-5.2-10.47s-3.21-7-5-10.47a70.65,70.65,0,0,0-6.17-9.88c-4.67-6.27-10.37-11.65-15.9-17.14-2.75-2.77-5.6-5.45-8.3-8.36a49.12,49.12,0,0,1-7.37-10.29l0-.06a1.1,1.1,0,0,1,.46-1.48,1.06,1.06,0,0,1,.52-.13,27.55,27.55,0,0,1,12.87,3.6,62.49,62.49,0,0,1,10.41,7.54c6.48,5.66,11.7,12.58,16.7,19.53,2.42,3.55,4.88,7.07,7.17,10.73a68.7,68.7,0,0,1,6,11.5A47.78,47.78,0,0,1,500.68,491a33.72,33.72,0,0,1-1,13.2,1.07,1.07,0,0,1-1.33.71,1.12,1.12,0,0,1-.56-.39Z"/><path class="cls-15" d="M86.37,448.86a14,14,0,0,1,1.8-7.82,25.6,25.6,0,0,1,4.54-5.38,74.84,74.84,0,0,1,10.86-8.85c7.8-5.2,16.31-9.07,24.77-12.76q6.39-2.71,13-4.84c4.39-1.44,8.86-2.56,13.29-3.91a54.28,54.28,0,0,1,6.75-1.61,38.44,38.44,0,0,1,7-.35,33.29,33.29,0,0,1,14,3.35,1,1,0,0,1,.43,1.33,1,1,0,0,1-.37.39l-.06,0a66.32,66.32,0,0,1-12.54,5.63,58.19,58.19,0,0,1-6.21,1.77c-2.09.46-4.2.76-6.32,1.1a80.93,80.93,0,0,0-12.43,3.18q-6.1,2-12,4.49a112.44,112.44,0,0,0-22,12.79c-3.45,2.45-6.9,4.88-10.31,7.39S94,450,87.65,450.06A1.27,1.27,0,0,1,86.37,448.86Z"/><g class="cls-1"><path class="cls-2" d="M369.76,678.56a39.77,39.77,0,0,1-7.37.66,28.51,28.51,0,0,1-6.24-.66Z"/></g><g class="cls-1"><polygon class="cls-2" points="511.52 565.2 511.52 584.47 508.3 584.47 508.3 565.19 509.64 565.2 511.52 565.2"/></g></svg>