<svg id="eyehA6Mq4zK1" xmlns="http://www.w3.org/2000/svg" xmlns:xlink="http://www.w3.org/1999/xlink" viewBox="0 0 228.66 63.88" shape-rendering="geometricPrecision" text-rendering="geometricPrecision"><path id="eyehA6Mq4zK2" d="M104.28,19.59C103.94564,18.620646,103.354668,17.760107,102.57,17.1C101.891031,16.515702,101.025765,16.193,100.13,16.19C99.765069,16.165074,99.399235,16.223197,99.06,16.36C98.86,16.48,98.76,16.85,98.76,17.48C98.79302,18.376919,98.87313,19.271485,99,20.16C99.139985,21.361587,99.210103,22.570286,99.21,23.78C99.18,26,99,29.4,98.64,34Q98.46,36.24,98.34,37.15C97.963,39.540441,97.411527,41.900079,96.69,44.21C96.229359,45.944101,95.504179,47.596839,94.54,49.11C94.353875,49.397392,94.116616,49.648208,93.84,49.85C93.506712,50.019591,93.132553,50.092344,92.76,50.06C92.565409,50.069496,92.372827,50.016974,92.21,49.91C92.010802,49.750573,91.826692,49.573159,91.66,49.38C91.179797,48.885966,90.835339,48.276274,90.66,47.61C90.44938,46.604256,90.358748,45.577086,90.39,44.55C90.39,43.16,90.48,41.45,90.66,39.43C90.78,38.09,90.92,36.88,91.08,35.82Q91.65,31.48,91.87,28.61Q92.26,24.55,92.78,20.4C92.94,19.26,93.04,18.59,93.09,18.4L93.09,18.25C93.09,17.64,92.58,17.2,91.57,16.92C90.740818,16.705479,89.886343,16.604557,89.03,16.62C87.337564,16.657012,85.656996,16.912459,84.03,17.38L82.54,17.83C81.919522,18.011524,81.377489,18.39517,81,18.92C80.682176,19.582634,80.544229,20.317207,80.6,21.05C80.578962,21.383001,80.578962,21.716999,80.6,22.05C80.610707,22.236949,80.68077,22.415609,80.8,22.56C80.985039,22.749197,81.182117,22.926233,81.39,23.09C81.92421,23.530588,82.354467,24.083775,82.65,24.71C82.970285,25.355046,83.150884,26.060404,83.18,26.78C83.18,28.07,83.1,30.43,82.95,33.88C82.87,36.02,82.82,38.65,82.81,41.74L82.81,41.74C82.781114,42.05634,82.731001,42.370381,82.66,42.68L82.66,42.84C82.394967,44.084213,82.061121,45.312767,81.66,46.52L81.66,46.52C80.9,48.32,80.18,49.21,79.5,49.21C79.314266,49.200709,79.133056,49.149423,78.97,49.06C78.581044,48.846218,78.293187,48.486397,78.17,48.06C77.830965,47.076005,77.665175,46.040659,77.68,45C77.799612,43.190919,78.030044,41.390874,78.37,39.61C78.962581,36.502956,79.297055,33.352207,79.37,30.19C79.378893,29.263477,79.318726,28.33758,79.19,27.42C78.525223,23.868602,76.270057,20.817495,73.07,19.14C71.393437,18.335457,69.559573,17.911995,67.7,17.9C65.541045,17.8934,63.41418,18.422539,61.51,19.44C59.592951,20.427741,57.989505,21.930755,56.88,23.78C56.215995,24.76192,55.832237,25.906279,55.77,27.09C55.783901,27.921219,56.022316,28.733211,56.46,29.44C57.58557,31.400749,59.747903,32.528753,62,32.33C62.700684,32.323801,63.399685,32.260256,64.09,32.14C64.390493,32.11619,64.686451,32.05229,64.97,31.95C65.88,31.42,66.33,30.89,66.33,30.35C66.334718,29.993817,66.230003,29.644767,66.03,29.35C65.903272,29.09982,65.658777,28.930554,65.38,28.9C65.014833,28.877503,64.674743,28.706675,64.438673,28.427168C64.202603,28.147661,64.091084,27.783784,64.13,27.42C64.106719,26.519991,64.470881,25.653286,65.13,25.04C65.797261,24.387579,66.696865,24.027738,67.63,24.04C68.938437,23.995936,70.124349,24.805432,70.56,26.04C71.432313,27.793945,71.835405,29.743947,71.73,31.7C71.73,32.15,71.73,33.22,71.58,34.89C71.58,35.57,71.45,35.89,71.35,35.89C71.02226,35.765018,70.725462,35.570564,70.48,35.32C69.262402,34.282158,67.774319,33.612694,66.19,33.39C65.751318,33.309055,65.306086,33.268884,64.86,33.27C62.815737,33.299998,60.828498,33.948465,59.16,35.13C57.300196,36.403527,55.89813,38.240233,55.16,40.37C55.106976,40.505197,55.070055,40.646168,55.05,40.79C54.945617,41.061664,54.86857,41.343054,54.82,41.63C54.661567,42.24194,54.541335,42.863138,54.46,43.49C54.099387,45.115883,53.61121,46.71082,53,48.26C52.32,49.99,51.69,50.86,51.1,50.86C50.51,50.86,50.1,50.49,49.77,49.76C49.316238,48.664354,49.098178,47.485465,49.13,46.3C49.230339,42.853279,49.52078,39.414719,50,36Q50.38,33,50.8,28.86Q51.25,23.67,52.09,17.86C52.16,17.26,52.38,16.08,52.73,14.33C53.08,12.58,53.37,10.95,53.65,9.05C53.858763,7.782084,53.995648,6.503375,54.06,5.22C54.070328,4.972834,53.996272,4.729506,53.85,4.53L53.85,4.53C53.929155,3.292651,53.34209,2.107086,52.31,1.42C52.094294,1.271244,51.870627,1.134373,51.64,1.01C51.452127,0.873909,51.231033,0.790998,51,0.77C50.353221,0.816369,49.714861,0.944041,49.1,1.15C48.029863,1.424737,46.93987,1.615319,45.84,1.72C44.287676,1.864186,42.728907,1.927605,41.17,1.91Q38.32,1.91,33.95,1.76Q24.35,1.46,20.2,1.46C18.13,1.46,16.54,1.46,15.44,1.57C14.474492,1.624722,13.518343,1.789112,12.59,2.06C11.612634,2.391115,10.663003,2.799055,9.75,3.28Q0.6,7.92,0.6,18.51C0.594861,19.790743,0.728983,21.068249,1,22.32C1.266357,23.473711,1.669195,24.591586,2.2,25.65C2.495434,26.282267,2.850367,26.884984,3.26,27.45C3.680745,27.997337,4.138483,28.515216,4.63,29C5.422291,29.835886,6.319799,30.565321,7.3,31.17C8.243134,31.699652,9.251764,32.103104,10.3,32.37C11.248522,32.635797,12.225498,32.786876,13.21,32.82C13.848475,32.813815,14.483571,32.726447,15.1,32.56C17.508882,32.052307,19.561615,30.48797,20.69,28.3C20.94777,27.854431,21.146121,27.377045,21.28,26.88C21.379178,26.295435,21.422706,25.702783,21.41,25.11C21.41,23.85,21.33,23.16,21.18,23.06C20.616021,22.850974,20.028134,22.713241,19.43,22.65C17.865411,22.380184,16.383868,21.754036,15.1,20.82C13.416017,19.785919,12.364088,17.975099,12.3,16C12.317933,14.570329,12.759943,13.178172,13.57,12C14.396383,10.713087,15.558053,9.675882,16.93,9C17.252272,8.845946,17.586749,8.718845,17.93,8.62C18.283114,8.55586,18.641116,8.522402,19,8.52C19.44,8.52,20.11,8.52,21,8.52C21.89,8.52,22.51,8.52,23.19,8.52C23.638629,8.526564,24.086307,8.563314,24.53,8.63L25.22,8.79L25.07,11.56Q24.07,31.19,23.66,32.18C23.66,32.18,23.11,32.28,22.08,32.4C21.348953,32.451822,20.632054,32.627665,19.96,32.92C19.501808,33.206217,19.136938,33.619736,18.91,34.11C18.514392,34.901765,18.308948,35.774903,18.31,36.66C18.255679,37.327633,18.509886,37.983412,19,38.44C19.718883,38.941221,20.556877,39.244692,21.43,39.32L21.73,39.32C22.036565,39.3381,22.33768,39.409149,22.62,39.53C22.79,39.62,22.87,39.82,22.87,40.12C22.854338,40.540073,22.80417,40.958148,22.72,41.37L22.72,41.75C22.384168,44.144107,21.448511,46.414451,20,48.35C18.6,50.15,17.15,51.05,15.63,51.05C15.418918,51.052476,15.208049,51.03574,15,51C14.540214,50.893504,14.071539,50.829898,13.6,50.81C13.383534,50.798144,13.170185,50.865705,13,51C12.840006,51.180573,12.711545,51.386786,12.62,51.61C12.327123,52.277598,12.183775,53.001165,12.2,53.73C12.260295,55.712651,12.850773,57.642925,13.91,59.32C14.81979,60.732387,16.185409,61.791007,17.78,62.32C18.646251,62.558937,19.541425,62.676723,20.44,62.67C21.540363,62.685486,22.634512,62.502563,23.67,62.13C24.904984,61.477386,25.962191,60.533451,26.75,59.38C27.766218,57.988141,28.559084,56.44627,29.1,54.81C29.658428,52.934587,30.089411,51.023562,30.39,49.09Q31,45.53,31.26,42.31L31.34,41.1C31.34,40.74,31.25,40.52,31.06,40.43C30.685629,40.299121,30.295569,40.218419,29.9,40.19C29.480253,40.179837,29.063533,40.115984,28.66,40C28.498629,39.986749,28.343514,39.931597,28.21,39.84L28.13,39.84C28.8879,39.650606,29.673276,39.596442,30.45,39.68C31.636715,39.690145,32.822757,39.619984,34,39.47C34.822472,39.386106,35.627925,39.18053,36.39,38.86C37.270128,38.355585,37.932619,37.543498,38.25,36.58C38.494354,35.844359,38.622559,35.075127,38.63,34.3C38.657266,33.710843,38.540567,33.123915,38.29,32.59L37.91,32.06L32.12,32.06L32.38,28.06C32.54,25.43,32.71,23.25,32.92,21.53L32.92,21.46Q33.74,13.75,33.75,11.58C33.75,11.25,33.75,11.07,33.67,11.01C33.557655,10.931961,33.432392,10.874408,33.3,10.84C33.059747,10.770836,32.816091,10.714094,32.57,10.67C32.29,10.62,31.99,10.55,31.66,10.46C31.361578,10.3888,31.075202,10.27425,30.81,10.12C30.57,9.98,30.31,9.85,30.03,9.72C31.45,9.85,32.95,10.03,34.55,10.25L41.55,11.32C42.55,11.46,43.28,11.55,43.85,11.61C43.85,11.72,43.85,11.83,43.85,11.96C43.834594,12.84944,43.771168,13.7374,43.66,14.62Q43.54,15.69,43.39,16.62Q43.06,19.4,42.14,27.67L42,30.05C41.83,31.47,41.7,32.73,41.62,33.85C41.55,35.21,41.38,36.85,41.13,38.85L40.79,41.78C40.64,43.42,40.56,44.95,40.56,46.37C40.497043,48.144527,40.644741,49.920259,41,51.66C41.438058,53.708903,42.662437,55.50418,44.41,56.66C44.783501,56.935896,45.203495,57.142505,45.65,57.27C46.106525,57.412547,46.575151,57.512966,47.05,57.57C47.49,57.62,47.78,57.65,47.91,57.65C50.762975,57.703097,53.356011,55.999555,54.44,53.36C54.76,52.69,55.06,51.98,55.34,51.25C55.371014,51.318265,55.397733,51.388402,55.42,51.46C56.077358,53.116801,57.127488,54.589042,58.48,55.75C59.746064,56.80808,61.350219,57.375922,63,57.35C65.697532,57.25481,68.23371,56.041068,70,54C70.849989,53.173502,71.529499,52.188213,72,51.1C72.217193,50.598475,72.381417,50.07564,72.49,49.54C72.488227,49.373057,72.557266,49.213179,72.68,49.1C72.83,49.1,72.91,49.32,72.91,49.75C72.919424,50.867541,72.694594,51.974659,72.25,53C72.117392,53.285863,72.042624,53.595129,72.03,53.91L72.03,54.21C72.40725,55.842727,73.646067,57.139074,75.26,57.59C75.588993,57.656145,75.924675,57.683,76.26,57.67C78.94,57.67,81.01,56.24,82.45,53.38C82.82,52.63,83.15,51.83,83.45,51.01L83.45,51.01C83.95981,53.18778,85.036157,55.192131,86.57,56.82C87.075435,57.329497,87.65129,57.763914,88.28,58.11C89.171497,58.538281,90.116683,58.844373,91.09,59.02C91.285964,59.071165,91.487477,59.098033,91.69,59.1C92.168811,59.064457,92.641931,58.97386,93.1,58.83Q98.34,57.74,101.87,44.71C103.074555,40.205284,103.976567,35.625069,104.57,31C104.770725,29.237131,104.870887,27.46426,104.87,25.69C104.986926,23.63845,104.787938,21.581113,104.28,19.59ZM70.18,45.69C69.963643,46.532449,69.49632,47.289233,68.84,47.86C68.549131,48.078362,68.20248,48.21009,67.84,48.24C66.96,48.24,66.28,47.61,65.84,46.34C65.502687,45.376298,65.336846,44.360945,65.35,43.34C65.346694,42.40131,65.484913,41.467484,65.76,40.57C65.959727,39.805519,66.332682,39.097247,66.85,38.5C67.189846,38.081436,67.691517,37.826965,68.23,37.8C68.707686,37.823219,69.155354,38.039833,69.47,38.4C69.939032,38.925402,70.281157,39.551489,70.47,40.23C70.683308,40.943587,70.787816,41.685255,70.78,42.43C70.761267,43.542331,70.558526,44.643889,70.18,45.69Z" fill="rgb(173,43,166)" stroke="none" stroke-width="1"/><path id="eyehA6Mq4zK3" d="M175.73,42.77C173.796218,40.389674,171.983909,37.913185,170.3,35.35C169.21394,33.684793,168.346811,31.886676,167.72,30C167.477363,29.277701,167.349149,28.521908,167.34,27.76C167.317862,27.005296,167.501044,26.258741,167.87,25.6C168.299122,24.792194,169.156391,24.305109,170.07,24.35C170.980462,24.398551,171.819436,24.858514,172.35,25.6C172.878834,26.204522,173.268051,26.918086,173.49,27.69C173.743254,28.733732,173.857575,29.806336,173.83,30.88C173.845185,31.531582,173.811759,32.183389,173.73,32.83C173.662467,33.279417,173.541615,33.719185,173.37,34.14C173.195382,34.502299,173.067685,34.88539,172.99,35.28C173.013931,35.533761,173.092386,35.77936,173.22,36C173.68,37,174.82,37.48,176.64,37.48C177.372222,37.506708,178.101737,37.377168,178.78,37.1C179.530839,36.731931,180.20852,36.230446,180.78,35.62C182.682766,33.621113,183.696269,30.937675,183.59,28.18C183.755483,25.163423,182.409782,22.262106,180,20.44C177.82,18.82,174.8,18.01,170.92,18.01C169.759948,17.996181,168.602209,18.116988,167.47,18.37C166.324477,18.660521,165.214447,19.076363,164.16,19.61C163.501543,19.903723,162.872115,20.258614,162.28,20.67C161.738853,21.094211,161.236842,21.566102,160.78,22.08C159.686028,23.16039,158.79818,24.431164,158.16,25.83C157.623082,27.236806,157.364954,28.734624,157.4,30.24C157.388177,31.284933,157.492144,32.327961,157.71,33.35C157.721672,33.389149,157.721672,33.430851,157.71,33.47C157.93649,34.312422,158.255077,35.127335,158.66,35.9C158.580534,37.860934,158.376792,39.814855,158.05,41.75L158.05,41.75L158.05,41.88C157.998559,42.091029,157.958501,42.30467,157.93,42.52C157.93,42.62,157.93,42.73,157.86,42.83C157.67,43.83,157.45,44.69,157.2,45.55C156.850405,46.739685,156.391795,47.89458,155.83,49C155.537757,49.639773,155.111471,50.20929,154.58,50.67C154.423288,50.742508,154.252673,50.780044,154.08,50.78C153.526238,50.733501,153.044368,50.3827,152.83,49.87C152.534653,49.120101,152.368959,48.325444,152.34,47.52C152.34,47.19,152.34,46.85,152.34,46.52C152.384623,45.142805,152.541813,43.771567,152.81,42.42Q153.29,39.81,154.5,34.18C154.81429,32.286346,154.968169,30.369541,154.96,28.45Q154.96,23.05,152.87,21.27C152.123601,20.484563,151.083433,20.046025,150,20.06C148.816509,20.116913,147.65519,20.402149,146.58,20.9C145.415907,21.48655,144.155883,21.859138,142.86,22C142.398879,22.062881,141.946367,21.836625,141.72,21.43C141.423749,20.529607,141.219374,19.601546,141.11,18.66C140.9532,17.647136,140.732764,16.645152,140.45,15.66C140.269123,15.04457,139.981406,14.465752,139.6,13.95C138.944621,13.008946,137.894672,12.419501,136.75,12.35C135.968253,12.359161,135.214489,12.642265,134.62,13.15C133.910788,13.755086,133.407509,14.565926,133.18,15.47C133.038188,15.967017,132.977408,16.483642,133,17C133.014164,17.576675,133.091289,18.150077,133.23,18.71C133.912104,21.301719,135.260015,23.670045,137.14,25.58C137.451154,25.890915,137.690131,26.266449,137.84,26.68C138.044743,27.295184,138.172385,27.93339,138.22,28.58C138.31,29.42,138.39,30.58,138.47,32.11L138.47,33.86C138.46741,36.521525,138.236564,39.177926,137.78,41.8L137.59,42.9C137.39,43.9,137.16,44.76,136.92,45.57C136.87,45.74,136.82,45.91,136.76,46.09L136.76,46.09Q135.15,51,132.52,51C131.802464,50.966915,131.108999,50.731137,130.52,50.32C131,49.18,131.36,48.32,131.59,47.62C132.087207,45.774595,132.45477,43.896682,132.69,42C132.965698,39.994929,133.109341,37.973908,133.12,35.95C133.112678,32.467201,132.391146,29.022907,131,25.83Q128.49,20,125,19C124.092835,18.786898,123.161242,18.696093,122.23,18.73L121.32,18.73C120.79295,18.713686,120.265848,18.760689,119.75,18.87C119.262939,19.009311,118.785295,19.179659,118.32,19.38C117.025489,19.95396,115.822579,20.715466,114.75,21.64C113.590012,22.624018,112.561556,23.753303,111.69,25C110.700431,26.430996,109.872068,27.966989,109.22,29.58C108.463753,31.355611,107.871292,33.196594,107.45,35.08C107.069998,36.877878,106.892227,38.712611,106.92,40.55C106.903388,42.518904,107.121594,44.482765,107.57,46.4C107.996842,48.7723,108.775421,51.067593,109.88,53.21C110.747009,55.016529,111.991715,56.615892,113.53,57.9C114.569501,58.703304,115.775669,59.263677,117.06,59.54C117.786419,59.667138,118.522539,59.730712,119.26,59.73C120.190761,59.746712,121.119416,59.635677,122.02,59.4C122.917954,59.132657,123.773221,58.738696,124.56,58.23C125.397647,57.722772,126.170057,57.114918,126.86,56.42C127.21,56.04,127.72,55.42,128.38,54.56C129.36098,55.751501,130.837233,56.423196,132.38,56.38C134.508217,56.516481,136.498911,55.322065,137.38,53.38C138.894147,50.146678,139.886448,46.693874,140.32,43.15C140.44,42.42,140.53,41.69,140.61,40.98Q140.88,38.49,140.95,33.78C140.891736,32.056633,140.968638,30.331349,141.18,28.62C141.28,28.62,141.77,28.81,142.64,29.11C143.375338,29.391603,144.152918,29.547119,144.94,29.57C145.277114,29.551429,145.614983,29.588595,145.94,29.68C146.13,29.76,146.24,29.95,146.28,30.27C146.329119,30.805186,146.349148,31.342643,146.34,31.88C146.172115,35.1263,145.740696,38.353589,145.05,41.53C144.87,42.44,144.73,43.29,144.63,44.07C144.510341,45.282804,144.460259,46.501467,144.48,47.72C144.454209,48.804995,144.497631,49.890531,144.61,50.97C144.695984,51.530411,144.829807,52.082428,145.01,52.62Q146.53,57.21,150.63,57.62C150.838568,57.676336,151.053982,57.703262,151.27,57.7Q155.53,57.7,157.73,53.41C159.336058,49.883491,160.349653,46.116297,160.73,42.26C160.86,41.26,160.97,40.17,161.05,39.09C161.31491,39.333148,161.556004,39.60103,161.77,39.89C162.18,40.29,162.66,40.74,163.23,41.24L164.77,42.55L165.42,43.12C167.948992,45.249109,170.290891,47.591008,172.42,50.12C173.558078,51.378534,174.25952,52.970807,174.42,54.66C174.431509,55.062477,174.397967,55.464979,174.32,55.86C174.255088,56.103546,174.115137,56.32047,173.92,56.48C173.421648,57.016457,172.722216,57.320873,171.99,57.32C171.094433,57.28249,170.248371,56.898895,169.63,56.25C168.990971,55.715635,168.527543,55.001329,168.3,54.2C168.04983,52.912201,167.935869,51.601651,167.96,50.29L167.96,46.88L167.37,46.36C167.129222,46.16715,166.871507,45.996456,166.6,45.85C166.283871,45.68201,165.947914,45.554347,165.6,45.47C165.207782,45.330307,164.796158,45.252706,164.38,45.24C164.070937,45.244937,163.764297,45.295482,163.47,45.39C162.868002,45.49148,162.304728,45.754111,161.84,46.15C161.299679,46.675681,160.850252,47.287307,160.51,47.96C160.108531,48.628973,159.773596,49.335684,159.51,50.07C159.297681,50.834532,159.203262,51.626985,159.23,52.42C159.177068,54.032595,159.590238,55.626251,160.42,57.01C161.419161,58.469539,162.739657,59.680564,164.28,60.55C164.965445,60.979973,165.705344,61.316291,166.48,61.55C167.865978,61.915556,169.297198,62.080567,170.73,62.04C172.005884,62.05419,173.275648,61.8617,174.49,61.47C176.495215,60.93339,178.25838,59.730912,179.49,58.06C179.983943,57.461607,180.375864,56.785881,180.65,56.06C180.864364,55.32649,180.962222,54.563869,180.94,53.8C180.944696,52.108133,180.568749,50.43688,179.84,48.91C178.696361,46.720554,177.318278,44.661813,175.73,42.77ZM125.91,52.53C125.58363,52.427271,125.276245,52.271889,125,52.07C124.733048,51.897593,124.433523,51.781868,124.12,51.73C124.034635,51.725663,123.956882,51.778862,123.93,51.86C123.880455,51.999024,123.805895,52.12781,123.71,52.24C123.570488,52.418872,123.416647,52.586091,123.25,52.74C123.084606,52.894694,122.866462,52.980522,122.64,52.98C121.945164,52.858475,121.328683,52.461909,120.93,51.88Q118.84,49.76,118.12,42.47C118.07,41.91,118.05,41.47,118.05,41.1L118.05,39.77L118.39,40.77C118.69,41.53,119.18,42.57,119.85,43.9C120.352579,44.929165,120.910047,45.930606,121.52,46.9C121.96,47.57,122.52,48.4,123.34,49.4C124.16,50.4,124.76,51.17,125.26,51.7C125.76,52.23,125.95,52.39,125.95,52.46ZM126.74,44.14C126.49,45.56,126.3,46.26,126.17,46.26C126.04,46.26,125.71,45.99,125.3,45.5C123.749093,43.57876,122.593579,41.369689,121.9,39C121.109742,36.591154,120.694887,34.07504,120.67,31.54C120.617006,29.702443,120.957978,27.87483,121.67,26.18C122.08,25.27,122.5,24.82,122.93,24.82C123.310065,24.876292,123.661269,25.055406,123.93,25.33C124.505001,25.907385,124.969335,26.585245,125.3,27.33C125.785744,28.291141,126.180788,29.29549,126.48,30.33C126.963701,32.742637,127.191628,35.199556,127.16,37.66C127.186681,39.827582,127.046265,41.993997,126.74,44.14Z" fill="rgb(173,43,166)" stroke="none" stroke-width="1"/><path id="eyehA6Mq4zK4" d="M188.31,46.54L194.85,46.54C197.48,46.54,199.26,47.41,199.26,49.98C199.306312,51.240693,198.558975,52.395669,197.39,52.87C198.971417,53.275719,200.039007,54.751011,199.93,56.38C199.93,59.22,197.53,60.38,195.03,60.38L188.31,60.38ZM191.37,52.15L194.44,52.15C195.53,52.15,196.32,51.67,196.32,50.51C196.32,49.19,195.32,48.91,194.22,48.91L191.37,48.91ZM191.37,58.04L194.63,58.04C195.82,58.04,196.87,57.65,196.87,56.22C196.87,54.79,195.99,54.22,194.68,54.22L191.37,54.22Z" fill="rgb(173,43,166)" stroke="none" stroke-width="1"/><path id="eyehA6Mq4zK5" d="M204.51,55.81C204.51,57.65,205.97,58.37,207.6,58.37C208.67,58.37,210.29,58.06,210.29,56.64C210.29,55.22,208.21,54.89,206.19,54.36C204.17,53.83,202.05,53.02,202.05,50.36C202.05,47.53,204.71,46.17,207.24,46.17C210.12,46.17,212.79,47.44,212.79,50.64L209.79,50.64C209.7,48.97,208.5,48.54,207.05,48.54C206.05,48.54,204.95,48.95,204.95,50.13C204.95,51.31,205.61,51.32,209.09,52.22C210.09,52.46,213.19,53.11,213.19,56.22C213.19,58.76,211.19,60.68,207.43,60.68C204.36,60.68,201.49,59.17,201.53,55.74Z" fill="rgb(173,43,166)" stroke="none" stroke-width="1"/><path id="eyehA6Mq4zK6" d="M224.77,51.21C224.493253,49.778675,223.227593,48.753491,221.77,48.78C219.03,48.78,218,51.1,218,53.53C218,55.96,219,58.19,221.77,58.19C223.63,58.19,224.68,56.9,224.92,55.08L227.87,55.08C227.817968,56.642525,227.14477,58.119738,225.999662,59.184125C224.854555,60.248512,223.332156,60.812123,221.77,60.75C217.47,60.75,214.95,57.54,214.95,53.53C214.95,49.52,217.47,46.21,221.77,46.21C224.77,46.21,227.39,47.99,227.77,51.21Z" fill="rgb(173,43,166)" stroke="none" stroke-width="1"/></svg>