<?xml version="1.0" standalone="no"?>
<!DOCTYPE svg PUBLIC "-//W3C//DTD SVG 20010904//EN"
 "http://www.w3.org/TR/2001/REC-SVG-20010904/DTD/svg10.dtd">
<svg version="1.0" xmlns="http://www.w3.org/2000/svg"
 width="32.000000pt" height="32.000000pt" viewBox="0 0 32.000000 32.000000"
 preserveAspectRatio="xMidYMid meet">

<g transform="translate(0.000000,32.000000) scale(0.005333,-0.005333)"
fill="#000000" stroke="none">
<path d="M2537 5803 c-4 -3 -7 -16 -7 -29 0 -16 12 -28 43 -44 112 -58 250
-188 298 -282 l19 -38 -27 -6 c-118 -26 -200 -79 -250 -163 -53 -88 -53 -191
-1 -281 23 -39 28 -33 -74 -90 -80 -45 -203 -166 -252 -249 -41 -70 -81 -180
-91 -253 -6 -42 -12 -50 -60 -83 -30 -20 -75 -59 -100 -86 -26 -28 -49 -49
-51 -47 -2 2 -51 118 -109 258 -114 274 -133 303 -201 316 -66 12 -214 -50
-251 -105 -43 -63 -38 -79 166 -566 l188 -450 -52 -55 c-95 -102 -160 -216
-197 -347 -37 -132 -29 -346 17 -464 4 -12 -4 -19 -35 -28 -51 -15 -116 -80
-131 -130 -6 -22 -9 -116 -7 -248 l3 -211 30 -44 c17 -24 50 -53 73 -66 24
-13 44 -33 47 -45 3 -12 48 -327 100 -700 61 -435 102 -696 115 -728 13 -36
15 -51 7 -53 -7 -2 -55 -11 -107 -19 -185 -31 -279 -74 -254 -115 36 -58 273
-104 734 -143 199 -17 1156 -23 1418 -10 386 20 658 51 810 92 103 27 132 44
132 75 0 21 -9 29 -52 49 -54 24 -161 49 -261 61 l-56 7 21 41 c18 33 41 179
123 750 l101 708 54 37 c35 23 62 51 77 80 22 42 23 54 23 251 0 201 -1 207
-25 257 -24 47 -84 103 -112 103 -7 0 -5 21 4 63 11 43 14 99 11 187 -4 108
-9 138 -37 219 l-32 94 37 87 c35 84 40 92 159 204 147 138 180 192 173 280
-6 69 -39 115 -110 150 -66 33 -110 33 -177 0 -63 -32 -117 -97 -192 -232 -54
-97 -66 -103 -68 -30 -2 47 -49 181 -88 247 -50 85 -162 197 -244 244 l-66 38
-6 77 c-15 238 -179 460 -422 574 l-65 30 22 41 c33 64 31 175 -4 243 -49 94
-142 156 -263 177 l-65 11 -16 49 c-24 73 -109 192 -176 248 -91 76 -186 117
-211 92z m725 -944 c219 -86 408 -336 408 -537 l0 -41 -41 14 c-66 24 -200 35
-288 25 -70 -8 -157 -32 -257 -71 -28 -11 -34 -9 -80 26 -63 49 -174 101 -261
121 -99 24 -267 22 -363 -6 -132 -37 -120 -38 -109 8 27 123 104 250 205 340
32 29 93 70 136 92 l78 41 67 -33 c64 -31 73 -33 179 -33 108 0 113 1 180 36
38 20 74 37 81 38 7 1 36 -8 65 -20z m-1583 -209 c18 -9 97 -177 88 -186 -14
-14 -267 98 -274 122 -3 10 128 73 155 74 7 0 21 -4 31 -10z m138 -311 c8 -19
23 -55 33 -81 l19 -46 -82 27 c-134 46 -140 50 -174 133 l-30 74 110 -37 c101
-34 111 -39 124 -70z m973 -24 c77 -28 121 -51 177 -93 l32 -24 -48 -38 c-105
-83 -207 -246 -233 -372 -10 -46 -15 -57 -28 -53 -147 58 -300 81 -439 65 -49
-5 -96 -12 -104 -15 -19 -8 -131 256 -122 286 10 31 113 132 177 172 125 81
227 108 388 103 106 -3 136 -7 200 -31z m825 -85 c247 -76 422 -280 455 -533
11 -79 10 -90 -5 -107 -16 -18 -19 -17 -104 25 -132 67 -235 88 -401 82 -81
-3 -159 -11 -195 -21 -89 -25 -212 -88 -283 -146 l-63 -51 -50 55 c-44 48
-143 130 -185 154 -12 7 -11 20 5 84 63 247 246 420 501 474 88 18 235 11 325
-16z m-1860 -53 c66 -22 129 -43 140 -47 22 -8 93 -165 81 -177 -10 -10 -149
33 -233 72 -71 33 -74 36 -102 97 -16 35 -32 75 -36 88 -6 20 -5 22 11 15 11
-4 73 -26 139 -48z m2772 -238 c15 -5 40 -22 55 -36 74 -71 33 -157 -150 -314
-77 -67 -99 -92 -119 -138 -56 -129 -86 -188 -112 -219 l-27 -34 -42 65 c-23
35 -62 87 -88 115 -25 29 -42 56 -39 62 4 6 49 45 101 86 97 77 110 93 185
228 52 93 111 164 154 182 37 16 46 17 82 3z m-2602 -53 l90 -23 33 -77 32
-78 -37 7 c-36 6 -172 50 -178 57 -1 2 -17 36 -34 77 -26 61 -28 72 -14 66 10
-4 59 -17 108 -29z m660 -190 c137 -47 262 -130 347 -231 30 -36 28 -35 -25
12 -188 169 -466 256 -687 213 -32 -6 -47 -5 -52 3 -18 29 23 36 197 33 122
-3 150 -6 220 -30z m-561 -51 c104 -26 132 -43 93 -59 -12 -5 -64 -28 -116
-53 -52 -24 -95 -42 -96 -41 -6 6 -85 201 -85 209 0 5 23 -1 52 -12 29 -11 97
-31 152 -44z m1750 -35 c80 -20 206 -75 206 -89 0 -17 -50 -41 -85 -41 -19 0
-35 -4 -35 -8 0 -13 40 -61 119 -142 57 -58 85 -98 126 -180 67 -131 81 -151
95 -130 6 8 9 37 8 63 -2 41 2 52 28 78 l31 30 12 -40 c10 -35 9 -45 -10 -85
-49 -105 -151 -181 -285 -212 -38 -8 -79 -25 -91 -36 -35 -32 -54 -108 -59
-225 -5 -151 -26 -165 -64 -41 -38 127 -116 173 -189 113 -41 -35 -49 -68 -59
-228 -8 -128 -19 -173 -39 -153 -4 4 -12 87 -18 184 -6 97 -14 183 -18 190 -7
10 -29 11 -92 6 -46 -4 -94 -4 -108 0 -14 3 -41 28 -61 57 -31 42 -50 56 -121
89 -87 40 -152 94 -176 148 -7 17 -17 28 -21 26 -12 -8 -9 34 7 106 46 196
207 388 397 475 145 66 348 85 502 45z m-685 -1003 c20 -37 22 -47 12 -66 -13
-23 -9 -51 8 -51 5 0 12 11 15 25 9 35 21 31 39 -14 16 -40 33 -58 44 -47 4 3
1 18 -6 32 -11 25 -10 26 11 20 13 -3 33 -6 46 -6 21 0 23 -3 17 -30 -4 -19
-3 -30 4 -30 6 0 17 14 26 30 26 50 45 39 45 -27 0 -32 5 -97 10 -145 7 -64 7
-94 -2 -112 -15 -35 -23 -33 -38 13 -10 31 -15 37 -25 28 -10 -9 -8 -23 7 -64
13 -32 18 -62 14 -78 -6 -24 -10 -25 -75 -25 -68 0 -70 1 -76 28 -4 18 1 45
15 76 24 57 24 56 4 56 -8 0 -20 -13 -25 -30 -6 -16 -14 -30 -18 -30 -4 0 -12
14 -18 30 -6 17 -18 30 -27 30 -20 0 -20 1 4 -56 14 -31 19 -58 15 -76 -6 -27
-8 -28 -75 -28 -67 0 -69 1 -75 28 -4 18 1 45 15 76 24 57 24 56 4 56 -9 0
-21 -13 -27 -30 -6 -16 -14 -30 -18 -30 -4 0 -12 14 -18 30 -5 17 -17 30 -25
30 -20 0 -20 1 4 -56 14 -31 19 -58 15 -76 -6 -27 -8 -28 -76 -28 -65 0 -69 1
-75 25 -4 16 2 47 14 80 18 47 19 55 6 55 -9 0 -21 -13 -27 -30 -6 -16 -14
-30 -18 -30 -4 0 -12 14 -19 30 -7 17 -19 30 -26 30 -18 0 -18 -2 7 -61 18
-41 20 -54 11 -74 -11 -23 -17 -25 -77 -25 -61 0 -65 2 -71 25 -7 28 -4 42 20
98 14 32 14 37 1 37 -8 0 -23 -16 -33 -35 l-18 -36 -13 36 c-7 19 -19 35 -27
35 -18 0 -18 1 7 -62 16 -40 18 -57 10 -75 -9 -20 -18 -23 -74 -23 -57 0 -65
3 -74 23 -9 18 -6 35 12 80 21 52 22 57 6 57 -11 0 -22 -14 -30 -37 l-14 -37
-14 37 c-9 20 -21 37 -29 37 -19 0 -18 -10 6 -64 14 -35 17 -53 10 -71 -9 -23
-15 -25 -73 -25 -58 0 -65 2 -75 25 -9 20 -7 34 13 80 24 52 24 55 6 55 -14 0
-23 -12 -32 -37 l-13 -38 -14 38 c-10 24 -21 37 -33 37 -17 0 -16 -4 6 -55 19
-42 22 -60 15 -80 -9 -23 -14 -25 -75 -25 -61 0 -66 2 -75 25 -7 18 -4 36 10
71 24 54 25 64 6 64 -7 0 -20 -17 -28 -37 l-14 -38 -14 38 c-9 24 -20 37 -32
37 -16 0 -16 -5 7 -55 20 -46 22 -60 13 -80 -10 -23 -17 -25 -75 -25 -57 0
-65 2 -74 24 -9 19 -7 33 10 71 25 56 26 65 7 65 -8 0 -20 -17 -29 -37 l-14
-37 -14 37 c-8 24 -19 37 -31 37 -19 0 -18 -2 15 -79 11 -26 12 -41 4 -58 -9
-21 -17 -23 -74 -23 -58 0 -64 2 -75 24 -8 20 -7 34 7 68 9 24 19 49 22 56 3
6 -2 12 -11 12 -9 0 -22 -15 -29 -32 l-14 -33 -17 30 -17 30 5 -63 c6 -70 -2
-76 -38 -28 -20 26 -21 41 -21 229 0 197 1 203 24 236 45 62 13 60 841 61
l755 0 24 -43z m1273 20 c49 -27 60 -52 19 -44 -17 4 -33 2 -36 -3 -4 -6 -11
-8 -16 -5 -5 4 -9 -10 -9 -30 0 -22 4 -34 10 -30 6 3 10 14 10 23 0 27 15 2
54 -94 l37 -92 -37 -88 c-20 -49 -39 -93 -44 -97 -4 -5 -18 18 -30 50 -27 69
-37 82 -45 61 -4 -9 8 -50 25 -91 25 -60 29 -79 21 -101 -10 -24 -15 -26 -74
-26 -57 0 -65 3 -74 23 -9 18 -6 35 13 82 28 69 28 65 9 65 -8 0 -23 -19 -33
-42 l-19 -43 -12 38 c-7 20 -19 37 -27 37 -19 0 -18 -10 6 -64 14 -35 17 -53
10 -71 -9 -23 -14 -25 -75 -25 -61 0 -66 2 -75 25 -7 20 -4 38 15 80 22 52 23
55 5 55 -12 0 -23 -12 -31 -37 l-13 -38 -14 38 c-10 24 -21 37 -33 37 -18 0
-17 -4 6 -55 20 -46 22 -60 13 -80 -10 -23 -17 -25 -75 -25 -58 0 -64 2 -73
25 -7 18 -4 36 10 71 24 54 25 64 6 64 -8 0 -20 -17 -29 -37 l-14 -37 -14 37
c-7 20 -19 37 -27 37 -8 0 -11 7 -8 18 4 10 -3 40 -15 67 -20 46 -21 48 -3 87
l17 39 13 -29 c15 -37 50 -62 86 -62 31 0 33 -3 18 -30 -14 -26 9 -39 27 -15
7 11 13 13 13 7 0 -7 7 -12 15 -12 18 0 19 14 4 41 -8 17 -6 25 15 46 14 13
32 46 41 71 33 93 30 90 51 33 16 -46 20 -50 28 -32 9 22 -28 131 -45 131 -11
0 -12 54 -2 64 4 3 88 6 187 5 163 -1 185 -3 218 -22z m-645 -544 c-9 -20 -17
-23 -73 -23 -54 0 -65 3 -75 21 -8 17 -8 30 4 58 8 20 28 67 43 104 l27 68 43
-102 c34 -85 40 -107 31 -126z m438 -112 c3 -6 -9 -39 -27 -76 l-32 -65 -33
62 c-30 60 -32 61 -33 30 0 -18 11 -54 24 -80 l24 -48 -47 -91 c-26 -49 -51
-109 -54 -132 -5 -37 -4 -40 8 -25 12 17 17 11 51 -58 l38 -77 -24 -50 c-12
-28 -31 -62 -41 -77 l-18 -27 -17 36 c-10 20 -21 37 -26 37 -13 0 -9 -37 9
-75 17 -35 17 -36 -16 -102 -18 -37 -35 -90 -38 -118 -5 -45 -1 -60 35 -130
l40 -80 -40 -80 -40 -79 -23 44 c-20 38 -25 42 -31 26 -4 -11 1 -34 13 -60
l20 -41 -39 -79 -40 -80 -37 67 c-20 37 -42 67 -48 67 -19 0 -17 -7 28 -92 22
-43 37 -83 34 -88 -3 -6 -40 -10 -81 -10 -89 0 -89 1 -38 101 19 39 33 73 31
75 -12 12 -36 -13 -61 -64 l-28 -57 -29 58 c-16 31 -36 57 -44 57 -20 0 -20
-1 20 -80 19 -38 35 -74 35 -80 0 -6 -32 -10 -80 -10 -48 0 -80 4 -80 10 0 6
16 42 35 80 40 80 40 80 20 80 -8 0 -27 -25 -42 -55 -15 -30 -30 -55 -33 -55
-3 0 -18 25 -33 55 -15 30 -34 55 -42 55 -20 0 -20 0 20 -80 19 -38 35 -74 35
-80 0 -6 -32 -10 -80 -10 -48 0 -80 4 -80 10 0 6 16 42 35 80 40 79 40 80 20
80 -8 0 -28 -26 -44 -57 l-28 -57 -33 57 c-17 31 -38 57 -46 57 -19 0 -19 -1
21 -73 51 -93 50 -97 -39 -97 -41 0 -77 4 -81 10 -3 5 11 41 30 81 20 39 34
73 31 76 -9 10 -27 -9 -55 -59 l-29 -50 -28 53 c-16 30 -37 55 -47 57 -15 3
-13 -7 17 -67 51 -100 50 -101 -38 -101 -41 0 -77 4 -80 9 -3 4 10 37 29 72
19 35 35 70 35 77 0 26 -25 5 -50 -41 -14 -25 -29 -49 -32 -53 -4 -3 -18 17
-32 44 -14 28 -31 54 -36 57 -26 16 -22 -10 12 -79 20 -41 34 -77 31 -80 -4
-3 -39 -6 -80 -6 -86 0 -87 1 -41 94 30 62 33 87 8 71 -5 -3 -22 -29 -35 -56
-14 -27 -27 -49 -30 -49 -3 0 -16 22 -30 49 -13 27 -30 53 -35 56 -27 17 -22
-12 13 -76 21 -38 35 -74 32 -79 -3 -6 -40 -10 -81 -10 -88 0 -89 1 -38 101
30 60 32 70 17 67 -10 -2 -31 -28 -47 -57 l-29 -54 -29 56 c-15 32 -35 57 -43
57 -20 0 -20 -1 20 -80 19 -38 35 -74 35 -80 0 -6 -32 -10 -80 -10 -95 0 -95
1 -45 93 40 72 41 77 20 77 -8 0 -27 -25 -42 -55 -15 -30 -30 -55 -33 -55 -3
0 -18 25 -33 55 -15 30 -34 55 -42 55 -20 0 -20 0 20 -80 19 -38 35 -74 35
-80 0 -6 -32 -10 -80 -10 -48 0 -80 4 -80 10 0 6 16 42 35 80 40 80 40 80 20
80 -8 0 -27 -25 -42 -55 -15 -30 -30 -55 -33 -55 -3 0 -18 25 -33 55 -15 30
-34 55 -42 55 -21 0 -20 -3 21 -81 20 -38 34 -72 31 -75 -9 -9 -70 14 -101 39
l-28 23 21 42 c25 49 25 52 6 52 -8 0 -21 -14 -30 -30 -9 -17 -18 -30 -21 -30
-12 0 -42 88 -49 140 -3 30 -13 98 -20 150 -8 52 -46 320 -85 595 -39 275 -73
515 -76 533 l-6 32 1275 0 c784 0 1278 -4 1282 -9z m63 -116 c18 -36 32 -70
32 -76 0 -17 -52 -129 -59 -129 -4 0 -23 33 -42 73 l-36 72 30 63 c17 34 34
62 37 62 3 0 20 -29 38 -65z m-86 -330 l-39 -79 -40 78 -39 78 40 79 41 79 39
-78 38 -78 -40 -79z m38 -308 c0 -18 -66 -157 -75 -157 -3 0 -23 36 -45 80
l-40 80 26 53 c55 108 52 107 95 30 21 -37 38 -76 39 -86z m-135 -277 l-39
-81 -42 83 -42 83 40 80 41 80 40 -82 41 -83 -39 -80z m78 13 c12 -24 12 -43
-2 -140 -9 -61 -19 -114 -22 -117 -3 -4 -22 24 -42 61 l-35 67 39 78 c22 43
41 78 44 78 2 0 11 -12 18 -27z m-33 -340 c0 -13 -6 -23 -13 -23 -8 0 -24 -23
-37 -51 -13 -28 -27 -52 -32 -55 -4 -3 -25 30 -46 72 l-39 77 41 78 41 77 42
-76 c24 -43 43 -87 43 -99z"/>
<path d="M2755 4580 c-8 -13 11 -80 31 -109 23 -32 90 -61 143 -61 65 0 116
19 152 56 26 26 32 42 33 76 l1 43 -177 3 c-110 1 -179 -1 -183 -8z"/>
<path d="M3131 3976 c-25 -27 -35 -93 -13 -88 7 1 40 -12 73 -29 177 -89 364
-91 525 -5 l63 33 12 -29 c10 -25 14 -27 21 -14 15 26 -1 73 -34 101 -34 29
-69 36 -47 9 8 -10 9 -18 3 -22 -90 -60 -159 -82 -264 -82 -90 0 -168 19 -251
60 -57 29 -60 32 -54 60 8 36 -4 38 -34 6z"/>
<path d="M3389 3180 c-60 -32 -80 -79 -95 -225 -16 -155 183 -229 252 -93 9
18 29 47 44 63 55 59 59 155 10 217 -44 57 -142 74 -211 38z"/>
<path d="M2205 1541 c-49 -23 -100 -75 -92 -95 5 -13 12 -13 59 0 62 16 139
18 187 4 19 -5 61 -30 93 -55 32 -25 62 -45 67 -45 59 0 -41 153 -124 191 -52
24 -138 24 -190 0z"/>
<path d="M3485 1541 c-63 -29 -120 -93 -140 -159 -11 -37 20 -38 62 -2 20 18
61 44 91 58 56 25 101 27 230 6 34 -5 42 -4 42 9 0 19 -64 75 -106 93 -47 20
-131 17 -179 -5z"/>
<path d="M2671 1301 c-10 -7 -13 -27 -9 -85 12 -183 139 -294 312 -272 108 14
178 71 217 176 26 68 31 166 9 180 -19 12 -510 13 -529 1z m339 -203 c19 -13
35 -28 37 -35 12 -37 -139 -58 -197 -28 -26 14 -28 18 -18 35 32 50 124 65
178 28z"/>
</g>
</svg>
