<svg id="Layer_1" data-name="Layer 1" xmlns="http://www.w3.org/2000/svg" viewBox="0 0 533.47 147.5">
  <defs>
    <style>
      .cls-1 {
        fill: #a5269d;
      }
    </style>
  </defs>
  <path
    class="cls-1"
    d="M247.76,46a12.9,12.9,0,0,0-3.9-5.68,8.65,8.65,0,0,0-5.59-2.08,5.33,5.33,0,0,0-2.42.39c-.47.26-.7,1.11-.7,2.56a58.42,58.42,0,0,0,.48,6.11,71.28,71.28,0,0,1,.48,8.27q0,7.54-1.22,23.4-.44,5.12-.69,7.2a112.68,112.68,0,0,1-3.77,16.12q-2.48,7.89-4.9,11.18a6.58,6.58,0,0,1-1.6,1.69,4.75,4.75,0,0,1-2.47.47,2.11,2.11,0,0,1-1.26-.34,10.48,10.48,0,0,1-3.42-5.25,29.74,29.74,0,0,1-.61-7q0-4.77.61-11.7.43-4.59.95-8.24,1.31-9.87,1.82-16.46.87-9.27,2.08-18.72c.35-2.6.58-4.13.7-4.6V43q0-2.09-3.47-3a21.42,21.42,0,0,0-5.81-.69A45.55,45.55,0,0,0,201.53,41l-3.38,1a6.61,6.61,0,0,0-3.51,2.43,9.61,9.61,0,0,0-.91,4.85c0,1,0,1.72.08,2.21a2,2,0,0,0,.48,1.17A13.43,13.43,0,0,0,195.63,54a10.49,10.49,0,0,1,2.86,3.68,11.64,11.64,0,0,1,1.22,4.72q0,4.42-.52,16.21-.27,7.35-.33,18a.24.24,0,0,0,0,.08,12.49,12.49,0,0,1-.35,2.16l-.08.35a76.94,76.94,0,0,1-2.26,8.41l-.08.08c-1.74,4.11-3.38,6.16-4.94,6.16a2.82,2.82,0,0,1-1.22-.35,3.84,3.84,0,0,1-1.82-2.25,20.47,20.47,0,0,1-1-7.2,101.9,101.9,0,0,1,1.56-12.3,132.17,132.17,0,0,0,2.26-21.5,40,40,0,0,0-.44-6.32,26.87,26.87,0,0,0-14-18.9,28.9,28.9,0,0,0-12.22-2.77,29.94,29.94,0,0,0-14.13,3.51,26.7,26.7,0,0,0-10.57,9.92,14.89,14.89,0,0,0-2.51,7.54,10.62,10.62,0,0,0,1.56,5.38q3.72,6.58,12.56,6.58a30.15,30.15,0,0,0,4.77-.43,6.81,6.81,0,0,0,2-.43q3.12-1.83,3.12-3.64a3.87,3.87,0,0,0-.69-2.17,1.89,1.89,0,0,0-1.47-1A3,3,0,0,1,156,64a7.18,7.18,0,0,1,2.34-5.42,8,8,0,0,1,5.72-2.21c3.12,0,5.34,1.54,6.67,4.6q2.69,4.59,2.69,12.91,0,1.56-.35,7.28c-.12,1.56-.29,2.34-.52,2.34s-1-.43-2-1.3a19.47,19.47,0,0,0-9.8-4.42,17.7,17.7,0,0,0-3-.26,23.07,23.07,0,0,0-13,4.25,24,24,0,0,0-9.19,12,5.05,5.05,0,0,0-.26,1,12.32,12.32,0,0,0-.52,1.91,39.73,39.73,0,0,0-.81,4.25,72.46,72.46,0,0,1-3.26,10.61c-1.56,4-3,5.94-4.33,5.94s-2.29-.84-3-2.52a19.21,19.21,0,0,1-1.47-7.88q0-7.11,2.08-23.58.87-6.93,1.82-16.29,1-11.87,2.95-25.13.26-2.09,1.47-8.06,1.13-5.55,2.08-12a75.69,75.69,0,0,0,.95-8.75,2.48,2.48,0,0,0-.47-1.56l-.09-.1q-.31-5.37-3.51-7.1a15.2,15.2,0,0,0-1.52-1,3.18,3.18,0,0,0-1.51-.35,17.34,17.34,0,0,0-4.34.87,52.25,52.25,0,0,1-7.45,1.3,104.88,104.88,0,0,1-10.66.43q-6.5,0-16.47-.34-21.93-.69-31.37-.7c-4.74,0-8.36.09-10.88.26A28.28,28.28,0,0,0,38.46,6,43.65,43.65,0,0,0,32,8.79Q11.11,19.37,11.12,43.55a40.34,40.34,0,0,0,.82,8.71,34.6,34.6,0,0,0,2.73,7.58A24.5,24.5,0,0,0,17.1,64a34.78,34.78,0,0,0,3.21,3.59,30.52,30.52,0,0,0,6.11,4.9,26.93,26.93,0,0,0,6.93,2.73,27.88,27.88,0,0,0,6.63,1,16.38,16.38,0,0,0,4.33-.61q9-2.34,12.74-9.7a13.34,13.34,0,0,0,1.35-3.25,20,20,0,0,0,.3-4c0-2.89-.17-4.45-.52-4.68a17.36,17.36,0,0,0-4-1,23.4,23.4,0,0,1-9.88-4.16q-6.5-4.68-6.5-11a16.45,16.45,0,0,1,2.91-9.06A18.94,18.94,0,0,1,48.39,22a13.34,13.34,0,0,1,2.25-.87,12.67,12.67,0,0,1,2.47-.35c1-.05,2.53-.08,4.55-.08,1.79,0,3.45,0,5,.08a22.26,22.26,0,0,1,3.08.26l1.56.35-.35,6.33q-2.25,44.81-3.2,47.06a34.89,34.89,0,0,1-3.6.52,15,15,0,0,0-4.85,1.17,6.3,6.3,0,0,0-2.39,2.73A12.86,12.86,0,0,0,51.51,85a5,5,0,0,0,1.64,4.08,11.54,11.54,0,0,0,5.55,2l.69.09a6.34,6.34,0,0,1,2,.47c.37.21.56.65.56,1.35a17.58,17.58,0,0,1-.34,2.86l-.09.86a32.78,32.78,0,0,1-6.24,15q-4.77,6.15-10,6.15a9,9,0,0,1-1.3-.09,19,19,0,0,0-3.2-.43,2.09,2.09,0,0,0-1.48.43,4.71,4.71,0,0,0-.86,1.39,11.5,11.5,0,0,0-1,4.85,25.32,25.32,0,0,0,3.9,12.74,16.83,16.83,0,0,0,8.84,6.94,22.36,22.36,0,0,0,6.07.78,21.22,21.22,0,0,0,7.37-1.22,19.74,19.74,0,0,0,7-6.28,37.57,37.57,0,0,0,5.37-10.44,103,103,0,0,0,2.95-13q1.38-8.1,2-15.47l.17-2.77c0-.81-.21-1.31-.65-1.52a10.62,10.62,0,0,0-2.64-.56,10.42,10.42,0,0,1-2.77-.43,2.46,2.46,0,0,1-1-.35L74,92.25c0-.23,1.76-.34,5.29-.34a60.28,60.28,0,0,0,8.15-.52A18.89,18.89,0,0,0,92.85,90a9.37,9.37,0,0,0,4.24-5.2A16.82,16.82,0,0,0,98,79.6a8.34,8.34,0,0,0-.78-3.9l-.87-1.21H83.05l.61-9q.53-9,1.21-14.9v-.18q1.91-17.58,1.91-22.53a2.68,2.68,0,0,0-.17-1.3,2.78,2.78,0,0,0-.87-.39,15.66,15.66,0,0,0-1.65-.39c-.63-.11-1.33-.27-2.08-.48a7.93,7.93,0,0,1-2-.78c-.55-.31-1.14-.62-1.77-.91q4.84.43,10.31,1.22l16,2.42c2.2.32,3.94.54,5.25.67a6.65,6.65,0,0,1,0,.81c0,1.44-.15,3.46-.43,6.06-.18,1.62-.38,3.15-.61,4.6q-.78,6.33-2.86,25.22l-.52,5.28c-.41,3.24-.69,6.13-.87,8.67q-.25,4.68-1.12,11.35l-.78,6.68c-.35,3.75-.52,7.25-.52,10.48a51.65,51.65,0,0,0,1,12.14q2.25,8,7.8,11.35a8.89,8.89,0,0,0,2.81,1.39,18.93,18.93,0,0,0,3.21.69c1,.12,1.66.17,2,.17q10,0,14.91-9.79c.74-1.53,1.42-3.14,2.06-4.82.07.16.12.33.19.49a24.78,24.78,0,0,0,7,9.79,15.67,15.67,0,0,0,10.35,3.73q8.49,0,16-7.63a20.43,20.43,0,0,0,4.68-6.63,18.14,18.14,0,0,0,1.13-3.55,1.36,1.36,0,0,1,.43-1c.35,0,.52.49.52,1.47a18.32,18.32,0,0,1-1.56,7.28,5.43,5.43,0,0,0-.52,2.08l.09.7q1.91,6.24,7.36,7.71a9.52,9.52,0,0,0,2.26.17q9.18,0,14.12-9.79a57.84,57.84,0,0,0,2.3-5.41.56.56,0,0,1,0,.12q2.69,9.19,7.11,13.26a18,18,0,0,0,3.9,2.95,26.15,26.15,0,0,0,6.41,2.08,5.51,5.51,0,0,0,1.39.17,14.69,14.69,0,0,0,3.21-.6q12-2.52,20-32.24A236,236,0,0,0,248.41,72a105.65,105.65,0,0,0,.7-12.13Q249.11,49.61,247.76,46ZM169.94,105.6a9.63,9.63,0,0,1-3.08,4.94,4.36,4.36,0,0,1-2.34.87q-3,0-4.59-4.34a19.79,19.79,0,0,1-1.13-6.84,21.73,21.73,0,0,1,.95-6.33,11.91,11.91,0,0,1,2.47-4.72,4.39,4.39,0,0,1,3.17-1.61A3.93,3.93,0,0,1,168.2,89a10.38,10.38,0,0,1,2.21,4.16,17.72,17.72,0,0,1,.7,5A23.66,23.66,0,0,1,169.94,105.6Z"
  />
  <path
    class="cls-1"
    d="M410.82,98.93a207.58,207.58,0,0,1-12.39-17,52.54,52.54,0,0,1-5.89-12.26,17.17,17.17,0,0,1-.87-5.11,9.6,9.6,0,0,1,1.21-4.94,5.42,5.42,0,0,1,5-2.86q2.77,0,5.2,2.86a12.38,12.38,0,0,1,2.6,4.76,27.15,27.15,0,0,1,.78,7.28,32,32,0,0,1-.22,4.47,14.14,14.14,0,0,1-.82,3,10.15,10.15,0,0,0-.87,2.6,4.11,4.11,0,0,0,.52,1.64c1,2.26,3.64,3.38,7.8,3.38a12.05,12.05,0,0,0,4.9-.86,16,16,0,0,0,4.46-3.38q6.42-6.58,6.42-17,0-11.52-8.06-17.59-7.46-5.55-20.72-5.55a34.75,34.75,0,0,0-7.88.82,36.56,36.56,0,0,0-7.54,2.82,25.86,25.86,0,0,0-4.29,2.43,25.69,25.69,0,0,0-3.43,3.2,28.83,28.83,0,0,0-6,8.58,26.28,26.28,0,0,0-1.73,10.06,32.29,32.29,0,0,0,.69,7.1.36.36,0,0,1,.09.26A27.9,27.9,0,0,0,372,83.24a106,106,0,0,1-1.39,13.35.43.43,0,0,0,0,0c0,.1-.05.19-.08.29a14.1,14.1,0,0,0-.26,1.47c-.06.24-.1.48-.17.7-.44,2.2-.94,4.26-1.51,6.21a45.14,45.14,0,0,1-3.17,7.74c-1.16,2.08-2.11,3.36-2.86,3.82a2.92,2.92,0,0,1-1.13.26c-1.09,0-2.05-.7-2.86-2.08a16.49,16.49,0,0,1-1.12-5.38q-.09-1.12-.09-2.34A56.28,56.28,0,0,1,358.43,98q1.1-6,3.86-18.8a79.9,79.9,0,0,0,1-13.09q0-12.3-4.77-16.38a8.91,8.91,0,0,0-6.41-2.6,21.11,21.11,0,0,0-7.8,1.91q-5.81,2.51-8.49,2.51a2.56,2.56,0,0,1-2.6-1.3,30.26,30.26,0,0,1-1.39-6.33,57.32,57.32,0,0,0-1.52-6.76,12.28,12.28,0,0,0-2-3.9c-2-2.42-4.18-3.64-6.5-3.64a7.59,7.59,0,0,0-4.85,1.82,10.44,10.44,0,0,0-3.29,5.29,10.81,10.81,0,0,0-.52,3.29,17.48,17.48,0,0,0,.52,3.9,35.09,35.09,0,0,0,8.92,15.69,7,7,0,0,1,1.61,2.51,18.54,18.54,0,0,1,.86,4.34c.21,1.9.39,4.59.57,8.06l.08,4a107.13,107.13,0,0,1-1.56,18.12l-.43,2.51q-.71,3.34-1.53,6.09c-.13.4-.24.79-.38,1.19h0q-3.69,11.27-9.7,11.27a8.58,8.58,0,0,1-4.6-1.56q1.65-3.9,2.43-6.16a89.3,89.3,0,0,0,2.56-12.87,106,106,0,0,0,1-13.82,57.83,57.83,0,0,0-4.94-23Q303,47,295.12,44.67a24.51,24.51,0,0,0-6.32-.6h-2.08a15.75,15.75,0,0,0-3.6.3,25.77,25.77,0,0,0-3.25,1.17,33.07,33.07,0,0,0-8.15,5.16,41.31,41.31,0,0,0-7.06,7.62A55.63,55.63,0,0,0,259,68.77a71.3,71.3,0,0,0-4,12.56,55.63,55.63,0,0,0-1.21,12.48,56.63,56.63,0,0,0,1.47,13.35,55.09,55.09,0,0,0,5.29,15.56q3.72,7.14,8.31,10.7a20.08,20.08,0,0,0,8.06,3.73,27.57,27.57,0,0,0,5,.43,23.57,23.57,0,0,0,6.28-.74,23,23,0,0,0,5.81-2.68,26.41,26.41,0,0,0,5.24-4.12c.81-.87,2-2.28,3.47-4.25a11.34,11.34,0,0,0,9.19,4.16q8.06,0,11.44-6.93,4.75-9.6,6.7-23.35c.26-1.66.49-3.32.66-5q.61-5.67.78-16.42.18-11.79.52-11.79c.23.06,1.35.44,3.34,1.13a16.35,16.35,0,0,0,5.24,1,6.65,6.65,0,0,1,2.21.26c.44.17.7.62.78,1.34a34.72,34.72,0,0,1,.13,3.69q0,6.5-2.94,22-.62,3.12-1,5.81a72.24,72.24,0,0,0-.34,8.32,58.86,58.86,0,0,0,.3,7.41,23.56,23.56,0,0,0,.91,3.77q3.46,10.49,12.83,11.35a5.21,5.21,0,0,0,1.47.17q9.71,0,14.73-9.79,5.11-10.56,6.9-25.43.47-3.57.73-7.24A12.19,12.19,0,0,1,379,92.17c.92.92,2,2,3.33,3.07s2.47,2.13,3.51,3l1.48,1.3q11.36,10.06,15.94,16t4.6,10.36a12.23,12.23,0,0,1-.22,2.73,2.8,2.8,0,0,1-.91,1.43,6.06,6.06,0,0,1-4.42,1.91,7.84,7.84,0,0,1-5.37-2.43,9.63,9.63,0,0,1-3-4.68,41.84,41.84,0,0,1-.78-8.93l-.08-7.8-1.35-1.17a10.41,10.41,0,0,0-1.77-1.17,9.49,9.49,0,0,0-2.17-.86,8.79,8.79,0,0,0-2.77-.52,7.1,7.1,0,0,0-2.08.34,7.66,7.66,0,0,0-3.73,1.74,15.63,15.63,0,0,0-3,4.11,28.86,28.86,0,0,0-2.21,4.81,17.7,17.7,0,0,0-.65,5.38A19.24,19.24,0,0,0,376,131.25a26.45,26.45,0,0,0,8.79,8.06,21.23,21.23,0,0,0,5,2.34,34.41,34.41,0,0,0,9.71,1.13,26.91,26.91,0,0,0,8.58-1.3,21,21,0,0,0,11.35-7.8,16.28,16.28,0,0,0,2.64-4.55,16.54,16.54,0,0,0,.65-5.16,25.7,25.7,0,0,0-2.51-11.18Q417.75,107.51,410.82,98.93ZM297.12,121.2a7.65,7.65,0,0,1-2.08-1,5,5,0,0,0-2-.78.4.4,0,0,0-.43.3,2.89,2.89,0,0,1-.52.87,8.91,8.91,0,0,1-1,1.13,2,2,0,0,1-1.39.56q-1.64,0-3.9-2.51-4.75-4.86-6.41-21.5c-.12-1.27-.17-2.31-.17-3.12v-3l.78,2.34c.69,1.73,1.8,4.12,3.33,7.15a74.93,74.93,0,0,0,3.82,6.85q1.51,2.3,4.16,5.72t4.37,5.24c1,1,1.56,1.56,1.56,1.73Zm1.9-19.15c-.57,3.23-1,4.85-1.3,4.85s-1.06-.63-2-1.73A43,43,0,0,1,288,90.39a56.52,56.52,0,0,1-2.81-17,29.18,29.18,0,0,1,2.34-12.22c.92-2.08,1.87-3.12,2.86-3.12a4,4,0,0,1,2.34,1.17,15.49,15.49,0,0,1,3.12,4.64,38,38,0,0,1,2.68,6.93,78.82,78.82,0,0,1,1.56,16.73A97.26,97.26,0,0,1,299,102.05Z"
  />
  <path
    class="cls-1"
    d="M463.47,127.66a6.7,6.7,0,0,1-2.22,2.52,10.25,10.25,0,0,1-3.48,1.51,18.58,18.58,0,0,1-4.51.51h-14V102.79h13.63a11.11,11.11,0,0,1,7.1,2.06,6.72,6.72,0,0,1,2.58,5.55v.08a7.24,7.24,0,0,1-.31,2.23,7,7,0,0,1-.84,1.74,6.31,6.31,0,0,1-1.21,1.36,7.75,7.75,0,0,1-1.48,1,10,10,0,0,1,4,2.63,6.75,6.75,0,0,1,1.46,4.6v.08A7.59,7.59,0,0,1,463.47,127.66Zm-7.24-16.17a2.6,2.6,0,0,0-1.1-2.25,5.34,5.34,0,0,0-3.15-.78H445.6v6.22h6A6.77,6.77,0,0,0,455,114a2.55,2.55,0,0,0,1.26-2.38Zm1.63,11.76a2.75,2.75,0,0,0-1.13-2.33,6.06,6.06,0,0,0-3.65-.86H445.6v6.47h7.69a6.23,6.23,0,0,0,3.36-.78,2.66,2.66,0,0,0,1.21-2.42Z"
  />
  <path
    class="cls-1"
    d="M490.09,127.39a8.19,8.19,0,0,1-2.21,2.86,10.1,10.1,0,0,1-3.39,1.76,14.54,14.54,0,0,1-4.36.61,19.53,19.53,0,0,1-6.6-1.16,17.51,17.51,0,0,1-5.88-3.55l3.83-4.58a18.73,18.73,0,0,0,4.13,2.61,11.16,11.16,0,0,0,4.65,1,5.68,5.68,0,0,0,3.13-.74,2.32,2.32,0,0,0,1.11-2v-.08a2.59,2.59,0,0,0-.23-1.11,2.32,2.32,0,0,0-.89-.91,9.18,9.18,0,0,0-1.81-.84c-.77-.28-1.78-.57-3-.88a34.89,34.89,0,0,1-4-1.22,11.36,11.36,0,0,1-3.08-1.66,6.65,6.65,0,0,1-2-2.46,8.52,8.52,0,0,1-.69-3.65v-.08a8.55,8.55,0,0,1,.75-3.64,8.12,8.12,0,0,1,2.11-2.79,9.3,9.3,0,0,1,3.24-1.81,13,13,0,0,1,4.15-.63,17.46,17.46,0,0,1,5.94,1,17.16,17.16,0,0,1,5,2.77L486.6,111a22,22,0,0,0-3.87-2.12,9.83,9.83,0,0,0-3.78-.77,4.56,4.56,0,0,0-2.83.73,2.24,2.24,0,0,0-.95,1.83v.08a2.55,2.55,0,0,0,.28,1.24,2.46,2.46,0,0,0,1,1,9.18,9.18,0,0,0,1.95.79c.83.26,1.88.55,3.14.89a29.44,29.44,0,0,1,4,1.32,11.19,11.19,0,0,1,2.95,1.76,6.73,6.73,0,0,1,1.81,2.42,8.13,8.13,0,0,1,.61,3.32v.08A9.1,9.1,0,0,1,490.09,127.39Z"
  />
  <path
    class="cls-1"
    d="M520,129.64a14.69,14.69,0,0,1-2.66,1.66,14.21,14.21,0,0,1-3.17,1,19.79,19.79,0,0,1-3.87.35,15.3,15.3,0,0,1-6-1.17,15,15,0,0,1-4.79-3.22,14.76,14.76,0,0,1-3.15-4.81,15.6,15.6,0,0,1-1.13-5.92v-.08a15.24,15.24,0,0,1,4.28-10.74,14.62,14.62,0,0,1,4.84-3.27,15.63,15.63,0,0,1,6.21-1.2,19.78,19.78,0,0,1,3.76.33,16,16,0,0,1,3.09.93A13.27,13.27,0,0,1,520,105a16.23,16.23,0,0,1,2.19,1.85L518,111.57a15.52,15.52,0,0,0-3.51-2.43,8.92,8.92,0,0,0-4-.89,8.13,8.13,0,0,0-3.42.72,8,8,0,0,0-2.71,2,9.21,9.21,0,0,0-1.77,2.92,9.93,9.93,0,0,0-.63,3.55v.09a10.08,10.08,0,0,0,.63,3.57,9.22,9.22,0,0,0,1.75,2.94,8.06,8.06,0,0,0,2.68,2,8.15,8.15,0,0,0,3.47.74,8.94,8.94,0,0,0,4.26-.93,16,16,0,0,0,3.47-2.52l4.12,4.16A21.88,21.88,0,0,1,520,129.64Z"
  />
</svg>
