<svg id="Layer_1" data-name="Layer 1" xmlns="http://www.w3.org/2000/svg" viewBox="0 0 228.66 63.88"><defs><style>.cls-1{fill:#ad2ba6;}</style></defs><path class="cls-1" d="M104.28,19.59a5.67,5.67,0,0,0-1.71-2.49,3.76,3.76,0,0,0-2.44-.91,2.42,2.42,0,0,0-1.07.17c-.2.12-.3.49-.3,1.12A25.63,25.63,0,0,0,99,20.16a31.26,31.26,0,0,1,.21,3.62C99.18,26,99,29.4,98.64,34q-.18,2.24-.3,3.15a49.59,49.59,0,0,1-1.65,7.06,17.46,17.46,0,0,1-2.15,4.9,2.8,2.8,0,0,1-.7.74,2,2,0,0,1-1.08.21.92.92,0,0,1-.55-.15,4.16,4.16,0,0,1-.55-.53,4,4,0,0,1-1-1.77,13,13,0,0,1-.27-3.06c0-1.39.09-3.1.27-5.12.12-1.34.26-2.55.42-3.61q.57-4.34.79-7.21.39-4.06.91-8.21c.16-1.14.26-1.81.31-2v-.15c0-.61-.51-1.05-1.52-1.33a9.46,9.46,0,0,0-2.54-.3,19.66,19.66,0,0,0-5,.76l-1.49.45A2.9,2.9,0,0,0,81,18.92a4.19,4.19,0,0,0-.4,2.13,7.93,7.93,0,0,0,0,1,.88.88,0,0,0,.2.51,6.14,6.14,0,0,0,.59.53,4.7,4.7,0,0,1,1.26,1.62,5.12,5.12,0,0,1,.53,2.07c0,1.29-.08,3.65-.23,7.1-.08,2.14-.13,4.77-.14,7.86v0a7.09,7.09,0,0,1-.15.94l0,.16a34.4,34.4,0,0,1-1,3.68l0,0c-.76,1.8-1.48,2.69-2.16,2.69a1.23,1.23,0,0,1-.53-.15,1.67,1.67,0,0,1-.8-1A9,9,0,0,1,77.68,45a44.35,44.35,0,0,1,.69-5.39,57.34,57.34,0,0,0,1-9.42,18.65,18.65,0,0,0-.18-2.77,11.8,11.8,0,0,0-6.12-8.28A12.6,12.6,0,0,0,67.7,17.9a13.05,13.05,0,0,0-6.19,1.54,11.59,11.59,0,0,0-4.63,4.34,6.52,6.52,0,0,0-1.11,3.31,4.61,4.61,0,0,0,.69,2.35A5.8,5.8,0,0,0,62,32.33a12.84,12.84,0,0,0,2.09-.19,3.38,3.38,0,0,0,.88-.19c.91-.53,1.36-1.06,1.36-1.6a1.74,1.74,0,0,0-.3-1,.83.83,0,0,0-.65-.45,1.34,1.34,0,0,1-1.25-1.48,3.14,3.14,0,0,1,1-2.38,3.51,3.51,0,0,1,2.5-1,3,3,0,0,1,2.93,2,11.34,11.34,0,0,1,1.17,5.66c0,.45,0,1.52-.15,3.19,0,.68-.13,1-.23,1a2.43,2.43,0,0,1-.87-.57,8.42,8.42,0,0,0-4.29-1.93,7.23,7.23,0,0,0-1.33-.12,10.12,10.12,0,0,0-5.7,1.86,10.53,10.53,0,0,0-4,5.24,1.85,1.85,0,0,0-.11.42,4.38,4.38,0,0,0-.23.84,15.25,15.25,0,0,0-.36,1.86A31.7,31.7,0,0,1,53,48.26c-.68,1.73-1.31,2.6-1.9,2.6s-1-.37-1.33-1.1a8.45,8.45,0,0,1-.64-3.46A93.74,93.74,0,0,1,50,36q.38-3,.8-7.14.45-5.19,1.29-11c.07-.6.29-1.78.64-3.53s.64-3.38.92-5.28a34.08,34.08,0,0,0,.41-3.83,1.09,1.09,0,0,0-.21-.69l0,0a3.47,3.47,0,0,0-1.54-3.11,7.2,7.2,0,0,0-.67-.41A1.29,1.29,0,0,0,51,.77a7.72,7.72,0,0,0-1.9.38,21.18,21.18,0,0,1-3.26.57,45,45,0,0,1-4.67.19q-2.85,0-7.22-.15-9.6-.3-13.75-.3c-2.07,0-3.66,0-4.76.11a12.75,12.75,0,0,0-2.85.49A19.56,19.56,0,0,0,9.75,3.28Q.6,7.92.6,18.51A17.67,17.67,0,0,0,1,22.32a14.91,14.91,0,0,0,1.2,3.33,11,11,0,0,0,1.06,1.8A15.12,15.12,0,0,0,4.63,29,13.3,13.3,0,0,0,7.3,31.17a12.35,12.35,0,0,0,3,1.2,12.32,12.32,0,0,0,2.91.45,7.53,7.53,0,0,0,1.89-.26,8.19,8.19,0,0,0,5.59-4.26,5.9,5.9,0,0,0,.59-1.42,9.38,9.38,0,0,0,.13-1.77c0-1.26-.08-1.95-.23-2.05a7.22,7.22,0,0,0-1.75-.41,10.35,10.35,0,0,1-4.33-1.83A5.88,5.88,0,0,1,12.3,16a7.22,7.22,0,0,1,1.27-4,8.41,8.41,0,0,1,3.36-3,6.47,6.47,0,0,1,1-.38A6.22,6.22,0,0,1,19,8.52c.44,0,1.11,0,2,0s1.51,0,2.19,0a10,10,0,0,1,1.34.11l.69.16-.15,2.77q-1,19.63-1.41,20.62s-.55.1-1.58.22a6.46,6.46,0,0,0-2.12.52,2.78,2.78,0,0,0-1.05,1.19,5.69,5.69,0,0,0-.6,2.55A2.19,2.19,0,0,0,19,38.44a5,5,0,0,0,2.43.88l.3,0a2.66,2.66,0,0,1,.89.21c.17.09.25.29.25.59a7.67,7.67,0,0,1-.15,1.25l0,.38A14.34,14.34,0,0,1,20,48.35c-1.4,1.8-2.85,2.7-4.37,2.7A3.48,3.48,0,0,1,15,51a7.63,7.63,0,0,0-1.4-.19A.89.89,0,0,0,13,51a2.15,2.15,0,0,0-.38.61,5,5,0,0,0-.42,2.12,11.1,11.1,0,0,0,1.71,5.59,7.36,7.36,0,0,0,3.87,3,9.73,9.73,0,0,0,2.66.35,9.16,9.16,0,0,0,3.23-.54,8.59,8.59,0,0,0,3.08-2.75,16.57,16.57,0,0,0,2.35-4.57,43.41,43.41,0,0,0,1.29-5.72q.61-3.56.87-6.78l.08-1.21c0-.36-.09-.58-.28-.67a4.49,4.49,0,0,0-1.16-.24A4.92,4.92,0,0,1,28.66,40a.93.93,0,0,1-.45-.16l-.08,0a6.64,6.64,0,0,1,2.32-.16A26.31,26.31,0,0,0,34,39.47a8.35,8.35,0,0,0,2.39-.61,4.11,4.11,0,0,0,1.86-2.28,7.46,7.46,0,0,0,.38-2.28,3.63,3.63,0,0,0-.34-1.71l-.38-.53H32.12l.26-4c.16-2.63.33-4.81.54-6.53v-.07q.82-7.71.83-9.88c0-.33,0-.51-.08-.57a1.16,1.16,0,0,0-.37-.17,7.28,7.28,0,0,0-.73-.17c-.28-.05-.58-.12-.91-.21a3.14,3.14,0,0,1-.85-.34c-.24-.14-.5-.27-.78-.4,1.42.13,2.92.31,4.52.53l7,1.07c1,.14,1.73.23,2.3.29,0,.11,0,.22,0,.35a24.71,24.71,0,0,1-.19,2.66q-.12,1.07-.27,2-.33,2.78-1.25,11.05L42,30.05c-.17,1.42-.3,2.68-.38,3.8-.07,1.36-.24,3-.49,5l-.34,2.93c-.15,1.64-.23,3.17-.23,4.59A22.46,22.46,0,0,0,41,51.66a8,8,0,0,0,3.41,5,3.88,3.88,0,0,0,1.24.61,7.83,7.83,0,0,0,1.4.3c.44.05.73.08.86.08a6.92,6.92,0,0,0,6.53-4.29c.32-.67.62-1.38.9-2.11a1.8,1.8,0,0,1,.08.21,11,11,0,0,0,3.06,4.29A6.88,6.88,0,0,0,63,57.35,9.71,9.71,0,0,0,70,54a9.06,9.06,0,0,0,2-2.9,7.85,7.85,0,0,0,.49-1.56.59.59,0,0,1,.19-.44c.15,0,.23.22.23.65A8,8,0,0,1,72.25,53a2.39,2.39,0,0,0-.22.91l0,.3a4.58,4.58,0,0,0,3.23,3.38,4.24,4.24,0,0,0,1,.08c2.68,0,4.75-1.43,6.19-4.29.37-.75.7-1.55,1-2.37v0a12.69,12.69,0,0,0,3.12,5.81,7.51,7.51,0,0,0,1.71,1.29,11,11,0,0,0,2.81.91,2.47,2.47,0,0,0,.6.08,6.25,6.25,0,0,0,1.41-.27q5.24-1.09,8.77-14.12A104.61,104.61,0,0,0,104.57,31a46.73,46.73,0,0,0,.3-5.31A20.06,20.06,0,0,0,104.28,19.59Zm-34.1,26.1a4.29,4.29,0,0,1-1.34,2.17,1.93,1.93,0,0,1-1,.38c-.88,0-1.56-.63-2-1.9a8.74,8.74,0,0,1-.49-3,9.34,9.34,0,0,1,.41-2.77,5.15,5.15,0,0,1,1.09-2.07,1.9,1.9,0,0,1,1.38-.7,1.76,1.76,0,0,1,1.24.6,4.6,4.6,0,0,1,1,1.83,7.41,7.41,0,0,1,.31,2.2A10.08,10.08,0,0,1,70.18,45.69Z"/><path class="cls-1" d="M175.73,42.77a91.07,91.07,0,0,1-5.43-7.42A23.16,23.16,0,0,1,167.72,30a7.31,7.31,0,0,1-.38-2.24,4.17,4.17,0,0,1,.53-2.16,2.36,2.36,0,0,1,2.2-1.25,3,3,0,0,1,2.28,1.25,5.47,5.47,0,0,1,1.14,2.09,12.2,12.2,0,0,1,.34,3.19,13.11,13.11,0,0,1-.1,1.95,5.72,5.72,0,0,1-.36,1.31,4.73,4.73,0,0,0-.38,1.14,1.77,1.77,0,0,0,.23.72c.46,1,1.6,1.48,3.42,1.48a5.16,5.16,0,0,0,2.14-.38,6.9,6.9,0,0,0,2-1.48,10.22,10.22,0,0,0,2.81-7.44A9.08,9.08,0,0,0,180,20.44c-2.18-1.62-5.2-2.43-9.08-2.43a15,15,0,0,0-3.45.36,16.09,16.09,0,0,0-3.31,1.24,11.52,11.52,0,0,0-1.88,1.06,11.5,11.5,0,0,0-1.5,1.41,12.65,12.65,0,0,0-2.62,3.75,11.61,11.61,0,0,0-.76,4.41,14.15,14.15,0,0,0,.31,3.11.21.21,0,0,1,0,.12,11.88,11.88,0,0,0,.95,2.43,46.42,46.42,0,0,1-.61,5.85v0l0,.13a6.06,6.06,0,0,0-.12.64c0,.1,0,.21-.07.31-.19,1-.41,1.86-.66,2.72A20.16,20.16,0,0,1,155.83,49a4.91,4.91,0,0,1-1.25,1.67,1.19,1.19,0,0,1-.5.11,1.49,1.49,0,0,1-1.25-.91,7.11,7.11,0,0,1-.49-2.35c0-.33,0-.67,0-1a25.27,25.27,0,0,1,.47-4.1q.48-2.61,1.69-8.24a34.11,34.11,0,0,0,.46-5.73q0-5.4-2.09-7.18A3.89,3.89,0,0,0,150,20.06a9.19,9.19,0,0,0-3.42.84,10.88,10.88,0,0,1-3.72,1.1,1.13,1.13,0,0,1-1.14-.57,14.05,14.05,0,0,1-.61-2.77,24.41,24.41,0,0,0-.66-3,5.47,5.47,0,0,0-.85-1.71,3.75,3.75,0,0,0-2.85-1.6,3.34,3.34,0,0,0-2.13.8,4.49,4.49,0,0,0-1.44,2.32A4.81,4.81,0,0,0,133,17a7.92,7.92,0,0,0,.23,1.71,15.37,15.37,0,0,0,3.91,6.87,3,3,0,0,1,.7,1.1,7.84,7.84,0,0,1,.38,1.9c.09.84.17,2,.25,3.53l0,1.75a46.55,46.55,0,0,1-.69,7.94l-.19,1.1c-.2,1-.43,1.86-.67,2.67-.05.17-.1.34-.16.52h0Q135.15,51,132.52,51a3.8,3.8,0,0,1-2-.68c.48-1.14.84-2,1.07-2.7A41,41,0,0,0,132.69,42a46.2,46.2,0,0,0,.43-6.05A25.47,25.47,0,0,0,131,25.83Q128.49,20,125,19a10.45,10.45,0,0,0-2.77-.27h-.91a6.59,6.59,0,0,0-1.57.14,11.87,11.87,0,0,0-1.43.51,14.42,14.42,0,0,0-3.57,2.26A17.72,17.72,0,0,0,111.69,25a23.61,23.61,0,0,0-2.47,4.58,31.69,31.69,0,0,0-1.77,5.5,24.65,24.65,0,0,0-.53,5.47,24.77,24.77,0,0,0,.65,5.85,24.22,24.22,0,0,0,2.31,6.81,14,14,0,0,0,3.65,4.69,8.8,8.8,0,0,0,3.53,1.64,12.69,12.69,0,0,0,2.2.19,10.18,10.18,0,0,0,2.76-.33,9.86,9.86,0,0,0,2.54-1.17,12,12,0,0,0,2.3-1.81c.35-.38.86-1,1.52-1.86a5,5,0,0,0,4,1.82,5.13,5.13,0,0,0,5-3,33.8,33.8,0,0,0,2.94-10.23c.12-.73.21-1.46.29-2.17q.27-2.49.34-7.2a33,33,0,0,1,.23-5.16c.1,0,.59.19,1.46.49a7,7,0,0,0,2.3.46,3.07,3.07,0,0,1,1,.11c.19.08.3.27.34.59a14.85,14.85,0,0,1,.06,1.61,60,60,0,0,1-1.29,9.65c-.18.91-.32,1.76-.42,2.54a31.91,31.91,0,0,0-.15,3.65,25.53,25.53,0,0,0,.13,3.25,9.93,9.93,0,0,0,.4,1.65q1.52,4.59,5.62,5a2.32,2.32,0,0,0,.64.08q4.26,0,6.46-4.29a35.25,35.25,0,0,0,3-11.15c.13-1,.24-2.09.32-3.17a5.65,5.65,0,0,1,.72.8c.41.4.89.85,1.46,1.35l1.54,1.31.65.57a57.87,57.87,0,0,1,7,7,7.88,7.88,0,0,1,2,4.54,5.4,5.4,0,0,1-.1,1.2,1.2,1.2,0,0,1-.4.62,2.63,2.63,0,0,1-1.93.84,3.46,3.46,0,0,1-2.36-1.07,4.15,4.15,0,0,1-1.33-2.05,18.7,18.7,0,0,1-.34-3.91l0-3.41-.59-.52a5.12,5.12,0,0,0-.77-.51,4.28,4.28,0,0,0-1-.38,4,4,0,0,0-1.22-.23,3.14,3.14,0,0,0-.91.15,3.38,3.38,0,0,0-1.63.76,6.82,6.82,0,0,0-1.33,1.81,11.94,11.94,0,0,0-1,2.11,7.8,7.8,0,0,0-.28,2.35,8.39,8.39,0,0,0,1.19,4.59,11.57,11.57,0,0,0,3.86,3.54,9.07,9.07,0,0,0,2.2,1,15,15,0,0,0,4.25.49,11.82,11.82,0,0,0,3.76-.57,9.15,9.15,0,0,0,5-3.41,7.06,7.06,0,0,0,1.16-2,7.3,7.3,0,0,0,.29-2.26,11.28,11.28,0,0,0-1.1-4.89A34.11,34.11,0,0,0,175.73,42.77Zm-49.82,9.76a3.14,3.14,0,0,1-.91-.46,2.32,2.32,0,0,0-.88-.34.19.19,0,0,0-.19.13,1.21,1.21,0,0,1-.22.38,4.18,4.18,0,0,1-.46.5.89.89,0,0,1-.61.24,2.62,2.62,0,0,1-1.71-1.1q-2.09-2.12-2.81-9.41c-.05-.56-.07-1-.07-1.37V39.77l.34,1c.3.76.79,1.8,1.46,3.13a32,32,0,0,0,1.67,3c.44.67,1,1.5,1.82,2.5s1.42,1.77,1.92,2.3.69.69.69.76Zm.83-8.39c-.25,1.42-.44,2.12-.57,2.12s-.46-.27-.87-.76A18.72,18.72,0,0,1,121.9,39a24.71,24.71,0,0,1-1.23-7.46,12.88,12.88,0,0,1,1-5.36c.41-.91.83-1.36,1.26-1.36a1.76,1.76,0,0,1,1,.51,6.67,6.67,0,0,1,1.37,2,17.32,17.32,0,0,1,1.18,3,35,35,0,0,1,.68,7.33A42.19,42.19,0,0,1,126.74,44.14Z"/><path class="cls-1" d="M188.31,46.54h6.54c2.63,0,4.41.87,4.41,3.44a3,3,0,0,1-1.87,2.89,3.39,3.39,0,0,1,2.54,3.51c0,2.84-2.4,4-4.9,4h-6.72Zm3.06,5.61h3.07c1.09,0,1.88-.48,1.88-1.64,0-1.32-1-1.6-2.1-1.6h-2.85Zm0,5.89h3.26c1.19,0,2.24-.39,2.24-1.82s-.88-2-2.19-2h-3.31Z"/><path class="cls-1" d="M204.51,55.81c0,1.84,1.46,2.56,3.09,2.56,1.07,0,2.69-.31,2.69-1.73s-2.08-1.75-4.1-2.28-4.14-1.34-4.14-4c0-2.83,2.66-4.19,5.19-4.19,2.88,0,5.55,1.27,5.55,4.47h-3c-.09-1.67-1.29-2.1-2.74-2.1-1,0-2.1.41-2.1,1.59s.66,1.19,4.14,2.09c1,.24,4.1.89,4.1,4,0,2.54-2,4.46-5.76,4.46-3.07,0-5.94-1.51-5.9-4.94Z"/><path class="cls-1" d="M224.77,51.21a3,3,0,0,0-3-2.43c-2.74,0-3.77,2.32-3.77,4.75s1,4.66,3.77,4.66c1.86,0,2.91-1.29,3.15-3.11h2.95a5.87,5.87,0,0,1-6.1,5.67c-4.3,0-6.82-3.21-6.82-7.22s2.52-7.32,6.82-7.32c3,0,5.62,1.78,6,5Z"/></svg>