<svg id="Layer_1" data-name="Layer 1" xmlns="http://www.w3.org/2000/svg" viewBox="0 0 634.32 874.51"><defs><style>.cls-1{opacity:0.2;}.cls-2{fill:#581f13;}.cls-3{fill:#ed9f1f;}.cls-4{opacity:0.6;}.cls-5{fill:#fff;}.cls-6{opacity:0.3;}.cls-7{fill:#ff5098;}.cls-8{fill:#b20b4c;}.cls-9{fill:#ff305d;}.cls-10{fill:#c7215c;}.cls-11{fill:#ffdf7c;}</style></defs><g class="cls-1"><ellipse class="cls-2" cx="276.24" cy="832.36" rx="264.88" ry="30.15"/></g><path class="cls-3" d="M433.13,829H121.61a47.71,47.71,0,0,1-47.25-41L40.45,548.72H514.28L480.37,788A47.71,47.71,0,0,1,433.13,829Z"/><g class="cls-1"><rect class="cls-2" x="447.85" y="806.68" width="32.13" height="4.54" transform="translate(-467.59 852.9) rotate(-62.87)"/><rect class="cls-2" x="383.36" y="756.83" width="144.16" height="4.54" transform="translate(-427.83 818.24) rotate(-62.87)"/><rect class="cls-2" x="315.48" y="701.99" width="266.84" height="4.54" transform="translate(-382.23 786.21) rotate(-63.12)"/><rect class="cls-2" x="271.27" y="684.76" width="306.13" height="4.54" transform="translate(-380.61 751.36) rotate(-62.87)"/><rect class="cls-2" x="237.26" y="684.76" width="306.13" height="4.54" transform="translate(-399.11 721.08) rotate(-62.87)"/><rect class="cls-2" x="203.24" y="684.76" width="306.13" height="4.54" transform="translate(-417.61 690.81) rotate(-62.87)"/><rect class="cls-2" x="169.22" y="684.76" width="306.13" height="4.54" transform="translate(-436.12 660.54) rotate(-62.87)"/><rect class="cls-2" x="135.21" y="684.76" width="306.13" height="4.54" transform="translate(-454.62 630.26) rotate(-62.87)"/><rect class="cls-2" x="101.19" y="684.76" width="306.13" height="4.54" transform="translate(-473.13 599.99) rotate(-62.87)"/><rect class="cls-2" x="67.17" y="684.76" width="306.13" height="4.54" transform="translate(-491.63 569.71) rotate(-62.87)"/><rect class="cls-2" x="33.16" y="684.76" width="306.13" height="4.54" transform="translate(-510.13 539.44) rotate(-62.87)"/><rect class="cls-2" x="8.97" y="678.75" width="292.63" height="4.54" transform="translate(-521.61 508.64) rotate(-62.87)"/><rect class="cls-2" x="3.75" y="661.15" width="253.07" height="4.54" transform="translate(-519.55 476.82) rotate(-62.87)"/><rect class="cls-2" x="11.52" y="635.61" width="195.67" height="4.54" transform="translate(-508.2 444.3) rotate(-62.87)"/><rect class="cls-2" x="19.29" y="610.07" width="138.27" height="4.54" transform="translate(-496.86 411.78) rotate(-62.87)"/><rect class="cls-2" x="30.65" y="582.33" width="75.94" height="4.54" transform="translate(-482.94 379.07) rotate(-62.87)"/><rect class="cls-2" x="89.04" y="704.54" width="4.54" height="125.62" transform="translate(-339.89 126.08) rotate(-27.13)"/><rect class="cls-2" x="100.85" y="612.11" width="4.54" height="223.79" transform="translate(-318.83 126.69) rotate(-27.13)"/><rect class="cls-2" x="115.92" y="533.97" width="4.54" height="306.13" transform="translate(-300.31 129.5) rotate(-27.13)"/><rect class="cls-2" x="149.93" y="533.97" width="4.54" height="306.13" transform="translate(-296.56 145.01) rotate(-27.13)"/><rect class="cls-2" x="183.95" y="533.97" width="4.54" height="306.13" transform="translate(-292.82 160.52) rotate(-27.13)"/><rect class="cls-2" x="217.97" y="533.97" width="4.54" height="306.13" transform="translate(-289.08 176.04) rotate(-27.13)"/><rect class="cls-2" x="251.98" y="533.97" width="4.54" height="306.13" transform="translate(-285.33 191.55) rotate(-27.13)"/><rect class="cls-2" x="286" y="533.97" width="4.54" height="306.13" transform="translate(-281.59 207.06) rotate(-27.13)"/><rect class="cls-2" x="320.02" y="533.97" width="4.54" height="306.13" transform="translate(-277.85 222.57) rotate(-27.13)"/><rect class="cls-2" x="354.03" y="533.97" width="4.54" height="306.13" transform="translate(-274.1 238.09) rotate(-27.13)"/><rect class="cls-2" x="388.05" y="533.97" width="4.54" height="306.13" transform="translate(-270.36 253.6) rotate(-27.13)"/><rect class="cls-2" x="412.41" y="536.3" width="4.54" height="263.75" transform="translate(-259.08 262.63) rotate(-27.13)"/><rect class="cls-2" x="433.35" y="539.45" width="4.54" height="206.42" transform="translate(-245.14 269.38) rotate(-27.13)"/><rect class="cls-2" x="454.28" y="542.61" width="4.54" height="149.02" transform="translate(-231.19 276.11) rotate(-27.13)"/><rect class="cls-2" x="475.21" y="545.77" width="4.54" height="91.62" transform="translate(-217.24 282.84) rotate(-27.13)"/><rect class="cls-2" x="494.05" y="546.59" width="4.54" height="50.08" transform="translate(-206.9 291.31) rotate(-27.3)"/></g><rect class="cls-3" x="15.45" y="438.9" width="519.09" height="114.12" rx="29.16"/><g class="cls-1"><rect class="cls-2" x="489.96" y="514.01" width="71.6" height="4.54" transform="translate(-151.95 805.54) rotate(-67.59)"/><rect class="cls-2" x="440.77" y="491.83" width="119.71" height="4.54" transform="translate(-147.76 766.78) rotate(-67.43)"/><rect class="cls-2" x="404.76" y="489.68" width="124.24" height="4.54" transform="translate(-165.89 736.05) rotate(-67.59)"/><rect class="cls-2" x="370.31" y="489.68" width="124.24" height="4.54" transform="translate(-187.21 704.2) rotate(-67.59)"/><rect class="cls-2" x="335.85" y="489.68" width="124.24" height="4.54" transform="translate(-208.54 672.34) rotate(-67.59)"/><rect class="cls-2" x="301.39" y="489.68" width="124.24" height="4.54" transform="translate(-229.86 640.49) rotate(-67.59)"/><rect class="cls-2" x="266.94" y="489.68" width="124.24" height="4.54" transform="translate(-251.18 608.63) rotate(-67.59)"/><rect class="cls-2" x="232.48" y="489.68" width="124.24" height="4.54" transform="translate(-272.5 576.78) rotate(-67.59)"/><rect class="cls-2" x="198.02" y="489.68" width="124.24" height="4.54" transform="translate(-293.82 544.92) rotate(-67.59)"/><rect class="cls-2" x="163.57" y="489.68" width="124.24" height="4.54" transform="translate(-315.14 513.07) rotate(-67.59)"/><rect class="cls-2" x="129.11" y="489.68" width="124.24" height="4.54" transform="translate(-336.47 481.21) rotate(-67.59)"/><rect class="cls-2" x="94.66" y="489.68" width="124.24" height="4.54" transform="translate(-357.79 449.36) rotate(-67.59)"/><rect class="cls-2" x="60.2" y="489.68" width="124.24" height="4.54" transform="translate(-379.11 417.51) rotate(-67.59)"/><rect class="cls-2" x="25.74" y="489.68" width="124.24" height="4.54" transform="translate(-400.43 385.65) rotate(-67.59)"/><rect class="cls-2" x="-5.73" y="487.52" width="119.71" height="4.54" transform="translate(-418.94 351.81) rotate(-67.43)"/><rect class="cls-2" x="-6.46" y="465.11" width="71.1" height="4.54" transform="translate(-414.1 316.11) rotate(-67.59)"/><rect class="cls-2" x="26.82" y="480.96" width="4.54" height="71.1" transform="translate(-194.77 50.12) rotate(-22.42)"/><rect class="cls-2" x="51.86" y="434.24" width="4.54" height="119.71" transform="translate(-185.47 58.6) rotate(-22.57)"/><rect class="cls-2" x="85.6" y="429.83" width="4.54" height="124.24" transform="translate(-180.95 70.68) rotate(-22.42)"/><rect class="cls-2" x="120.05" y="429.83" width="4.54" height="124.24" transform="translate(-178.35 83.82) rotate(-22.42)"/><rect class="cls-2" x="154.51" y="429.83" width="4.54" height="124.24" transform="translate(-175.75 96.96) rotate(-22.42)"/><rect class="cls-2" x="188.96" y="429.83" width="4.54" height="124.24" transform="translate(-173.15 110.1) rotate(-22.42)"/><rect class="cls-2" x="223.42" y="429.83" width="4.54" height="124.24" transform="translate(-170.54 123.24) rotate(-22.42)"/><rect class="cls-2" x="257.88" y="429.83" width="4.54" height="124.24" transform="matrix(0.92, -0.38, 0.38, 0.92, -167.94, 136.37)"/><rect class="cls-2" x="292.33" y="429.83" width="4.54" height="124.24" transform="translate(-165.33 149.51) rotate(-22.42)"/><rect class="cls-2" x="326.79" y="429.83" width="4.54" height="124.24" transform="translate(-162.73 162.65) rotate(-22.42)"/><rect class="cls-2" x="361.25" y="429.83" width="4.54" height="124.24" transform="translate(-160.13 175.79) rotate(-22.42)"/><rect class="cls-2" x="395.7" y="429.83" width="4.54" height="124.24" transform="translate(-157.52 188.93) rotate(-22.42)"/><rect class="cls-2" x="430.16" y="429.83" width="4.54" height="124.24" transform="translate(-154.92 202.07) rotate(-22.42)"/><rect class="cls-2" x="464.62" y="429.83" width="4.54" height="124.24" transform="translate(-152.32 215.21) rotate(-22.42)"/><rect class="cls-2" x="498.35" y="429.94" width="4.54" height="119.71" transform="translate(-149.63 229.62) rotate(-22.57)"/><rect class="cls-2" x="523.49" y="431.81" width="4.54" height="71.6" transform="translate(-138.59 235.82) rotate(-22.42)"/></g><g class="cls-4"><path class="cls-5" d="M29.72,534.44V482.87A31.28,31.28,0,0,1,61,451.59H524.28a31.15,31.15,0,0,1,14.55,3.6,31.29,31.29,0,0,0-30.34-23.7H45.2a31.28,31.28,0,0,0-31.27,31.28v51.57A31.28,31.28,0,0,0,30.65,542,31.62,31.62,0,0,1,29.72,534.44Z"/></g><path class="cls-2" d="M433.13,834.72H121.61a53.7,53.7,0,0,1-52.93-46L34.77,549.53A5.73,5.73,0,0,1,40.45,543H514.28a5.75,5.75,0,0,1,5.69,6.55L486.06,788.76A53.72,53.72,0,0,1,433.13,834.72ZM47.07,554.46l33,232.69a42.16,42.16,0,0,0,41.56,36.08H433.13a42.16,42.16,0,0,0,41.55-36.08l33-232.69Z"/><path class="cls-2" d="M509,554.46H45.73a37.05,37.05,0,0,1-37-37V465.87a37.06,37.06,0,0,1,37-37H509a37.07,37.07,0,0,1,37,37v51.57A37.06,37.06,0,0,1,509,554.46ZM45.73,440.34a25.56,25.56,0,0,0-25.54,25.53v51.57A25.57,25.57,0,0,0,45.73,543H509a25.56,25.56,0,0,0,25.53-25.54V465.87A25.56,25.56,0,0,0,509,440.34Z"/><g class="cls-6"><path class="cls-2" d="M466.33,548.72l-29,204.78a47.72,47.72,0,0,1-47.24,41H78.54c-.94,0-1.87,0-2.8-.09A47.73,47.73,0,0,0,121.61,829H433.13a47.71,47.71,0,0,0,47.24-41l33.91-239.24Z"/></g><g class="cls-6"><path class="cls-2" d="M406.28,514.26h76.88A31.29,31.29,0,0,0,514.45,483V454.62h3.21V435.83a31.28,31.28,0,0,1,22.63,30.05v51.57A31.27,31.27,0,0,1,509,548.71H45.73a31.27,31.27,0,0,1-31.29-31.26v-3.67a30.57,30.57,0,0,0,5.44.48h386.4Z"/></g><g class="cls-1"><path class="cls-2" d="M517.66,435.83v18.79h-3.21V435.08c.44.07.89.17,1.33.27h0C516.43,435.48,517.05,435.64,517.66,435.83Z"/></g><path class="cls-7" d="M521.71,353.16a222.09,222.09,0,0,1-14,76.53l-122.31-.76c-1.47,51.51-7.38,96.4-39.09,96.19s-12.87-55.55-41.9-61c-36.44-6.85-16.7,139.9-51,139.69S219.45,534.92,219.69,498s-18.64-20.06-47.42-24.07c-30.37-4.23-43.5-33.27-48-46.52L54,426.94a223.67,223.67,0,0,1-7-127.33c24.65-103.13,121-179.76,235.67-179,103.13.63,190.71,63.61,224.31,151.53A222.49,222.49,0,0,1,521.71,353.16Z"/><path class="cls-8" d="M341.71,270.25h-42a9.68,9.68,0,0,1,0-19.36h42a9.68,9.68,0,1,1,0,19.36Z"/><circle class="cls-8" cx="244.58" cy="318.33" r="39.38"/><path class="cls-8" d="M244.58,368.21a49.88,49.88,0,1,1,49.88-49.88A49.94,49.94,0,0,1,244.58,368.21Zm0-78.76a28.88,28.88,0,1,0,28.87,28.88A28.91,28.91,0,0,0,244.58,289.45Z"/><path class="cls-8" d="M205.2,267.63H165.82a9.69,9.69,0,1,1,0-19.37H205.2a9.69,9.69,0,0,1,0,19.37Z"/><ellipse class="cls-9" cx="231.45" cy="345.9" rx="31.5" ry="38.07"/><path class="cls-8" d="M231.45,394.46c-23.16,0-42-21.78-42-48.56s18.85-48.57,42-48.57,42,21.78,42,48.57S254.61,394.46,231.45,394.46Zm0-76.13c-11.58,0-21,12.37-21,27.57s9.42,27.56,21,27.56,21-12.37,21-27.56S243,318.33,231.45,318.33Z"/><path class="cls-8" d="M247.29,314.32a22.08,22.08,0,0,0-2.24,1.47c-.8.57-1.59,1.19-2.36,1.83a58.1,58.1,0,0,0-4.48,4.14,50.53,50.53,0,0,0-7.44,9.86,52,52,0,0,0-2.79,5.65,46.14,46.14,0,0,0-1.9,6.08,46.71,46.71,0,0,0-1.19,13A48.89,48.89,0,0,1,223.22,336a55.27,55.27,0,0,1,1.49-6.91,58.68,58.68,0,0,1,5.57-13.2,68.27,68.27,0,0,1,4-6.09c.72-1,1.48-2,2.28-2.92a34.3,34.3,0,0,1,2.7-3l.4-.38a6.67,6.67,0,0,1,9.26,9.6A7,7,0,0,1,247.29,314.32Z"/><g class="cls-4"><path class="cls-5" d="M48.81,376.5a222.14,222.14,0,0,1,6.11-50.64c24.65-103.12,121-179.76,235.68-179,103.12.63,190.7,63.62,224.31,151.54.83,2.18,1.59,4.4,2.36,6.61A222.69,222.69,0,0,0,507,269.47c-33.6-87.92-121.18-150.9-224.31-151.54-114.65-.7-211,75.93-235.67,179.05A223.29,223.29,0,0,0,53.24,422,223,223,0,0,1,48.81,376.5Z"/></g><g class="cls-1"><path class="cls-10" d="M521.71,353.16a222.09,222.09,0,0,1-14,76.53l-122.31-.76c-1.47,51.51-7.38,96.4-39.09,96.19s-12.87-55.55-41.9-61c-36.44-6.85-16.7,139.9-51,139.69S219.45,534.92,219.69,498s-18.64-20.06-47.42-24.07c-30.37-4.23-43.5-33.27-48-46.52L54,426.94a223.67,223.67,0,0,1-7-127.33c10.81,76.58,61.53,86.82,85.27,97.9,24.28,11.36,20.37,30.66,40.06,38.67s53.82-5.38,63,0,1.31,122,14.44,120.63S263,517.43,263,483.3s16.37-60,43.51-54.11c19.5,4.23,28.09,31.44,35.25,56.74,4.75,16.74,20.17,16.27,18.38-18.38-3.94-76.13,26.25-86.64,26.25-86.64C495.85,366.32,506.11,284,507,272.09A222.49,222.49,0,0,1,521.71,353.16Z"/></g><path class="cls-10" d="M253.48,614.31h-.17c-20.57-.12-34.05-16.16-40.06-47.67-4.35-22.83-4.19-49.38-4.07-68.76.07-11.39-1.94-13.58-2-13.61-1.34-.76-7.48-.25-11.53.08-6.8.56-15.26,1.27-24.86-.07-31.28-4.35-46.92-30.15-53.77-46.47l-63.12-.38a10.5,10.5,0,0,1-9.82-6.95,232.42,232.42,0,0,1-13.68-80.3c.81-132.73,113.14-240.13,250.75-240.13h1.61c66.93.41,129.73,25.88,176.83,71.72s73,106.83,72.58,171.45a232.34,232.34,0,0,1-14.65,80.13,10.47,10.47,0,0,1-9.9,6.83l-112.09-.68c-1.4,38.35-6.67,96.12-49,96.12h-.29c-24.92-.15-29.46-23.15-32.46-38.36-2.88-14.62-4.94-21.64-11.31-22.83a1.83,1.83,0,0,0-.58-.05s-3.66,1.73-7.2,16.43c-2.91,12.06-4.67,28.25-6.38,43.91C283.85,575.66,279.64,614.31,253.48,614.31ZM203.42,462.9c6.57,0,12.89,1.16,18.08,6,6.09,5.64,8.77,14.63,8.68,29.13-.11,18.53-.27,43.89,3.7,64.7,3.86,20.26,10.44,30.56,19.56,30.61h0c.62,0,3.8-2.5,6.92-14.12,3.33-12.4,5.24-29.85,7.08-46.73,3.74-34.27,7-63.85,21.71-74.79a21.55,21.55,0,0,1,17.21-3.88c21.05,4,25.09,24.45,28,39.41,3.5,17.78,5.52,21.39,12,21.43h.12c18.2,0,26.7-25.73,28.39-86a10.46,10.46,0,0,1,10.56-10.21l114.86.7a211.81,211.81,0,0,0,10.9-66c.36-58.85-23.16-114.35-66.23-156.27s-100.83-65.39-162.31-65.77h-1.48c-126.1,0-229,98.05-229.75,219.24a211.75,211.75,0,0,0,10.1,66.17l62.84.38a10.5,10.5,0,0,1,9.89,7.16c3.61,10.72,14.67,36,39.45,39.47,7.3,1,14.17.44,20.23-.06C197.1,463.16,200.29,462.9,203.42,462.9ZM521.71,353.16h0Z"/><path class="cls-11" d="M525.62,178.67c-13.29,17.73-22.88,78.22-66.42,106.51-17.38-43.16-47.84-72.85-68.31-89.12,24.89-26.66,64.77-51.12,76.61-64.94C483.35,112.63,528.26-19.45,596.94,36,659.57,86.61,541.47,157.54,525.62,178.67Z"/><g class="cls-4"><path class="cls-5" d="M475.38,152.13C491.23,133.63,536.13,1.55,604.82,57c7.6,6.14,12.52,12.58,15.31,19.2,1.37-13-3.42-25.85-17.94-37.58-68.68-55.47-113.59,76.61-129.44,95.1C460.92,147.56,421,172,396.14,198.68c3.53,2.81,7.37,6,11.37,9.64C432.13,185.13,464.85,164.42,475.38,152.13Z"/></g><g class="cls-1"><path class="cls-2" d="M596.94,36c-9.41-7.6-18.37-11.66-26.87-13,1.07.79,2.16,1.62,3.24,2.49C636,76.11,517.84,147,502,168.17c-11.79,15.72-20.68,65.08-52.92,95.78a191.77,191.77,0,0,1,10.13,21.23c43.54-28.29,53.13-88.78,66.42-106.51C541.47,157.54,659.57,86.61,596.94,36Z"/></g><path class="cls-2" d="M459.2,295.69a10.42,10.42,0,0,1-3.16-.49,10.54,10.54,0,0,1-6.58-6.09c-16.19-40.22-44.34-68.33-65.1-84.83a10.5,10.5,0,0,1-1.14-15.39c14.49-15.53,33.11-29.76,49.53-42.31,11.45-8.76,22.27-17,26.77-22.29,2.41-2.8,6.9-11.35,11.66-20.41,17.33-33,43.52-82.81,82.15-90.8,16.86-3.49,33.76,1.49,50.21,14.77C618,39.56,625.46,53.37,625.61,68.9c.37,37.41-42.91,73.81-71.56,97.9-8.91,7.5-17.33,14.58-20,18.17-3.22,4.3-6.94,13.72-10.87,23.7-10.64,27-25.2,63.86-58.22,85.32A10.54,10.54,0,0,1,459.2,295.69ZM406.43,195.33c19,16.57,41.29,40.93,57,73.42,20.81-18.63,31.85-46.62,40.2-67.79,4.85-12.31,8.69-22,13.6-28.59h0c4.13-5.52,12.18-12.28,23.32-21.65,24.06-20.23,64.34-54.1,64.07-81.61-.09-9.08-4.76-17.24-14.27-24.92-11.48-9.27-22.19-12.72-32.76-10.54-28.91,6-53.26,52.31-67.81,80-6,11.44-10.35,19.7-14.3,24.31-5.94,6.93-16.54,15-30,25.3C432.67,173.07,418.45,184,406.43,195.33Z"/><path class="cls-10" d="M468.41,324.25a157.44,157.44,0,0,1-11.92-19.62c-3.39-6.42-6.38-12.79-9.5-19.13-2.95-6.4-5.87-12.81-9.08-19.14a127.51,127.51,0,0,0-11.28-18.07c-8.54-11.46-19-21.31-29.07-31.34-5-5.07-10.24-10-15.18-15.29a90.25,90.25,0,0,1-13.48-18.82l-.06-.12a2,2,0,0,1,.83-2.7,2,2,0,0,1,.95-.23c8.93.06,16.55,2.89,23.55,6.57a115,115,0,0,1,19,13.8c11.84,10.34,21.39,23,30.53,35.71,4.42,6.49,8.93,12.92,13.11,19.62a125.41,125.41,0,0,1,11,21,87.55,87.55,0,0,1,5.89,23c.79,7.95.59,16.06-1.85,24.14a2,2,0,0,1-2.44,1.3,1.93,1.93,0,0,1-1-.71Z"/><g class="cls-1"><path class="cls-2" d="M362.93,551.74a39.77,39.77,0,0,1-7.37.66,28.51,28.51,0,0,1-6.24-.66Z"/></g><g class="cls-1"><polygon class="cls-2" points="504.69 438.38 504.69 457.64 501.47 457.64 501.47 438.36 502.81 438.38 504.69 438.38"/></g></svg>