<svg id="Layer_1" data-name="Layer 1" xmlns="http://www.w3.org/2000/svg" viewBox="0 0 109.17 147.81"><defs><style>.cls-1{fill:#fc9d53;}</style></defs><path class="cls-1" d="M35.8,86.49c0-2.12-.36-2.53-.36-2.53a7.52,7.52,0,0,0-2.14,0,19.76,19.76,0,0,1-4.62,0c-5.18-.72-8-4.62-9.51-7.6H5.46a3.82,3.82,0,0,0-3.82,3.81v9.58a3.82,3.82,0,0,0,3.82,3.81H35.91C35.77,91,35.79,88.54,35.8,86.49Z"/><rect class="cls-1" x="72.15" y="139.03" width="4.77" height="4.77" transform="translate(-78.17 94.13) rotate(-45)"/><path class="cls-1" d="M104.88,4.3c-2.13-1.72-4.12-2.36-6.08-2-5.37,1.11-9.89,9.72-12.59,14.86a29.09,29.09,0,0,1-2.66,4.51A40.82,40.82,0,0,1,78,26.41c-.46.34-.92.7-1.39,1.06a43.41,43.41,0,0,0-27.33-9.72H49C25.58,17.75,6.48,36,6.34,58.45A39.23,39.23,0,0,0,8.21,70.74l11.67.07a2,2,0,0,1,1.84,1.33c.67,2,2.72,6.68,7.32,7.32a16.24,16.24,0,0,0,3.76,0c.58,0,1.17-.09,1.75-.09a4.63,4.63,0,0,1,3.36,1.11c1.13,1,1.63,2.71,1.61,5.4a65.9,65.9,0,0,0,.69,12c.72,3.76,1.94,5.67,3.63,5.68h0c.12,0,.71-.47,1.29-2.62a65.76,65.76,0,0,0,1.31-8.68c.69-6.36,1.29-11.85,4-13.88a4,4,0,0,1,3.19-.72c3.91.73,4.66,4.54,5.21,7.31.65,3.3,1,4,2.22,4h0c3.38,0,4.95-4.78,5.27-16a1.94,1.94,0,0,1,2-1.9l21.32.13a39.58,39.58,0,0,0-3.27-32.3c.95-1.92,1.71-3.84,2.38-5.53a24.22,24.22,0,0,1,2.52-5.3h0a31,31,0,0,1,4.33-4c4.47-3.76,12-10,11.9-15.15C107.51,7.24,106.64,5.73,104.88,4.3ZM26.54,43.74a1.8,1.8,0,0,1,0-3.6h7.31a1.8,1.8,0,0,1,0,3.6ZM46.18,60.93c-1,3.68-4,6.36-7.45,6.36-4.3,0-7.8-4.05-7.8-9a10.18,10.18,0,0,1,1-4.42c0-.23,0-.46,0-.7a9.26,9.26,0,1,1,14.27,7.78Zm13-16.7H51.4a1.8,1.8,0,0,1,0-3.6h7.8a1.8,1.8,0,0,1,0,3.6Zm23.68,1.16A16.45,16.45,0,0,1,84,49.66a11.39,11.39,0,0,1-.34,4.48.37.37,0,0,1-.46.25.36.36,0,0,1-.18-.14h0a29.52,29.52,0,0,1-2.21-3.64c-.63-1.19-1.18-2.38-1.76-3.55s-1.09-2.38-1.69-3.56a23.73,23.73,0,0,0-2.09-3.35,53.1,53.1,0,0,0-5.4-5.82c-.93-.94-1.9-1.85-2.82-2.84A16.6,16.6,0,0,1,64.51,28v0a.38.38,0,0,1,.15-.51.58.58,0,0,1,.18,0,9.38,9.38,0,0,1,4.37,1.22,20.73,20.73,0,0,1,3.16,2.24c-.56.49-1.1,1-1.63,1.47A43.3,43.3,0,0,1,81.31,46a15.46,15.46,0,0,0,1.28-1.28C82.69,44.93,82.79,45.16,82.88,45.39Z"/><path class="cls-1" d="M40.23,53.55l-.25.24a9.65,9.65,0,0,0-1.38,1.83,11.39,11.39,0,0,0-.52,1.05,8.7,8.7,0,0,0-.35,1.13,8.81,8.81,0,0,0-.22,2.42,8.93,8.93,0,0,1-.38-2.49,9.3,9.3,0,0,1,.07-1.29,11.4,11.4,0,0,1,.28-1.29,10.92,10.92,0,0,1,.77-2c-1.92.31-3.42,2.47-3.42,5.08,0,2.82,1.75,5.12,3.9,5.12s3.9-2.3,3.9-5.12A5.32,5.32,0,0,0,40.23,53.55Z"/><path class="cls-1" d="M63.34,145.54l-1.3-1.3,2.82-2.82L61.49,138l-2.83,2.83-3.15-3.15,2.83-2.83L55,131.52l-2.82,2.82L49,131.19l2.82-2.82-6.09-6.09,3.15-3.15L55,125.22l2-2,3.15,3.15-2,2,3.38,3.37,3.37-3.37-3-3L65,122.19l3,3,1.75-1.75,3.15,3.15-1.75,1.75,3.38,3.37,3.37-3.37-3.12-3.12,3.15-3.15,3.12,3.12,1.79-1.78L86,126.59l-1.78,1.78,1.36,1.37,4.57-32.19H50c-.78,5.83-2,10.55-6,10.55h0c-3.81,0-6.32-3-7.43-8.85-.11-.56-.2-1.13-.28-1.7H6.77l6,42.14a6.89,6.89,0,0,0,6.79,5.9Z"/><path class="cls-1" d="M91.46,76.36H70.38c-.31,7.1-1.47,17.13-9.08,17.13h0c-4.63,0-5.47-4.29-6-7.12s-.91-4-2.1-4.24H53s-.68.33-1.34,3a71.92,71.92,0,0,0-1.19,8.16l0,.23h41a3.82,3.82,0,0,0,3.82-3.81V80.17A3.82,3.82,0,0,0,91.46,76.36Z"/><rect class="cls-1" x="78.68" y="132.51" width="4.77" height="4.77" transform="translate(-71.64 96.83) rotate(-45)"/><rect class="cls-1" x="65.63" y="132.51" width="4.77" height="4.77" transform="translate(-75.46 87.6) rotate(-45)"/></svg>