<svg id="Layer_1" data-name="Layer 1" xmlns="http://www.w3.org/2000/svg" viewBox="0 0 105.88 149.46"><defs><style>.cls-1{opacity:0.2;}.cls-2{fill:#522217;}.cls-3{fill:#e5a241;}.cls-4{opacity:0.6;}.cls-5{fill:#fff;}.cls-6,.cls-7{opacity:0.3;}.cls-7{fill:#231f20;}.cls-8{fill:#ff6198;}.cls-9{fill:#a6264d;}.cls-10{fill:#ff4a62;}.cls-11{fill:#ba355d;}</style></defs><g class="cls-1"><ellipse class="cls-2" cx="52.9" cy="143.52" rx="52.2" ry="5.94"/></g><path class="cls-3" d="M83.63,144.16H22.25a9.4,9.4,0,0,1-9.31-8.09L6.26,88.93H99.63l-6.69,47.14A9.4,9.4,0,0,1,83.63,144.16Z"/><g class="cls-1"><rect class="cls-2" x="86.54" y="139.77" width="6.33" height="0.89" transform="translate(-75.99 156.1) rotate(-62.87)"/><rect class="cls-2" x="73.83" y="129.94" width="28.41" height="0.89" transform="translate(-68.16 149.27) rotate(-62.87)"/><rect class="cls-2" x="60.45" y="119.13" width="52.58" height="0.89" transform="translate(-59.14 142.88) rotate(-63.12)"/><rect class="cls-2" x="51.74" y="115.74" width="60.32" height="0.89" transform="translate(-58.85 136.09) rotate(-62.87)"/><rect class="cls-2" x="45.04" y="115.74" width="60.32" height="0.89" transform="translate(-62.5 130.12) rotate(-62.87)"/><rect class="cls-2" x="38.33" y="115.74" width="60.32" height="0.89" transform="translate(-66.14 124.16) rotate(-62.87)"/><rect class="cls-2" x="31.63" y="115.74" width="60.32" height="0.89" transform="translate(-69.79 118.19) rotate(-62.87)"/><rect class="cls-2" x="24.93" y="115.74" width="60.32" height="0.89" transform="translate(-73.43 112.23) rotate(-62.87)"/><rect class="cls-2" x="18.22" y="115.74" width="60.32" height="0.89" transform="translate(-77.08 106.26) rotate(-62.87)"/><rect class="cls-2" x="11.52" y="115.74" width="60.32" height="0.89" transform="translate(-80.73 100.3) rotate(-62.87)"/><rect class="cls-2" x="4.82" y="115.74" width="60.32" height="0.89" transform="translate(-84.37 94.33) rotate(-62.87)"/><rect class="cls-2" x="0.05" y="114.56" width="57.66" height="0.89" transform="translate(-86.64 88.26) rotate(-62.87)"/><rect class="cls-2" x="-0.98" y="111.09" width="49.87" height="0.89" transform="translate(-86.23 81.99) rotate(-62.87)"/><rect class="cls-2" x="0.55" y="106.05" width="38.56" height="0.89" transform="translate(-83.99 75.58) rotate(-62.87)"/><rect class="cls-2" x="2.09" y="101.02" width="27.25" height="0.89" transform="translate(-81.76 69.17) rotate(-62.87)"/><rect class="cls-2" x="4.32" y="95.56" width="14.96" height="0.89" transform="translate(-79.02 62.73) rotate(-62.87)"/><rect class="cls-2" x="15.83" y="119.64" width="0.89" height="24.75" transform="translate(-58.41 21.95) rotate(-27.13)"/><rect class="cls-2" x="18.16" y="101.42" width="0.89" height="44.1" transform="translate(-54.26 22.07) rotate(-27.13)"/><rect class="cls-2" x="21.13" y="86.02" width="0.89" height="60.32" transform="translate(-50.61 22.62) rotate(-27.13)"/><rect class="cls-2" x="27.83" y="86.02" width="0.89" height="60.32" transform="translate(-49.87 25.68) rotate(-27.13)"/><rect class="cls-2" x="34.53" y="86.02" width="0.89" height="60.32" transform="translate(-49.14 28.74) rotate(-27.13)"/><rect class="cls-2" x="41.24" y="86.02" width="0.89" height="60.32" transform="translate(-48.4 31.79) rotate(-27.13)"/><rect class="cls-2" x="47.94" y="86.02" width="0.89" height="60.32" transform="translate(-47.66 34.85) rotate(-27.13)"/><rect class="cls-2" x="54.64" y="86.02" width="0.89" height="60.32" transform="translate(-46.92 37.91) rotate(-27.13)"/><rect class="cls-2" x="61.35" y="86.02" width="0.89" height="60.32" transform="translate(-46.19 40.96) rotate(-27.13)"/><rect class="cls-2" x="68.05" y="86.02" width="0.89" height="60.32" transform="translate(-45.45 44.02) rotate(-27.13)"/><rect class="cls-2" x="74.75" y="86.02" width="0.89" height="60.32" transform="translate(-44.71 47.08) rotate(-27.13)"/><rect class="cls-2" x="79.55" y="86.48" width="0.89" height="51.97" transform="translate(-42.49 48.86) rotate(-27.13)"/><rect class="cls-2" x="83.68" y="87.11" width="0.89" height="40.68" transform="translate(-39.74 50.19) rotate(-27.13)"/><rect class="cls-2" x="87.8" y="87.73" width="0.89" height="29.37" transform="translate(-36.99 51.51) rotate(-27.13)"/><rect class="cls-2" x="91.93" y="88.35" width="0.89" height="18.05" transform="translate(-34.24 52.84) rotate(-27.13)"/><rect class="cls-2" x="95.64" y="88.51" width="0.89" height="9.87" transform="translate(-32.16 54.48) rotate(-27.3)"/></g><rect class="cls-3" y="67.29" width="103.62" height="22.49" rx="6.26"/><g class="cls-1"><rect class="cls-2" x="94.83" y="82.09" width="14.11" height="0.89" transform="translate(-13.26 145.27) rotate(-67.59)"/><rect class="cls-2" x="85.14" y="77.72" width="23.59" height="0.89" transform="matrix(0.38, -0.92, 0.92, 0.38, -12.45, 137.68)"/><rect class="cls-2" x="78.05" y="77.3" width="24.48" height="0.89" transform="translate(-16 131.58) rotate(-67.59)"/><rect class="cls-2" x="71.26" y="77.3" width="24.48" height="0.89" transform="translate(-20.21 125.3) rotate(-67.59)"/><rect class="cls-2" x="64.47" y="77.3" width="24.48" height="0.89" transform="translate(-24.41 119.02) rotate(-67.59)"/><rect class="cls-2" x="57.68" y="77.3" width="24.48" height="0.89" transform="translate(-28.61 112.75) rotate(-67.59)"/><rect class="cls-2" x="50.89" y="77.3" width="24.48" height="0.89" transform="translate(-32.81 106.47) rotate(-67.59)"/><rect class="cls-2" x="44.1" y="77.3" width="24.48" height="0.89" transform="translate(-37.01 100.19) rotate(-67.59)"/><rect class="cls-2" x="37.31" y="77.3" width="24.48" height="0.89" transform="translate(-41.21 93.92) rotate(-67.59)"/><rect class="cls-2" x="30.52" y="77.3" width="24.48" height="0.89" transform="translate(-45.42 87.64) rotate(-67.59)"/><rect class="cls-2" x="23.73" y="77.3" width="24.48" height="0.89" transform="translate(-49.62 81.36) rotate(-67.59)"/><rect class="cls-2" x="16.94" y="77.3" width="24.48" height="0.89" transform="translate(-53.82 75.08) rotate(-67.59)"/><rect class="cls-2" x="10.15" y="77.3" width="24.48" height="0.89" transform="translate(-58.02 68.81) rotate(-67.59)"/><rect class="cls-2" x="3.36" y="77.3" width="24.48" height="0.89" transform="translate(-62.22 62.53) rotate(-67.59)"/><rect class="cls-2" x="-2.84" y="76.87" width="23.59" height="0.89" transform="translate(-65.88 55.91) rotate(-67.43)"/><rect class="cls-2" x="-2.99" y="72.46" width="14.01" height="0.89" transform="translate(-64.91 48.83) rotate(-67.59)"/><rect class="cls-2" x="3.57" y="75.58" width="0.89" height="14.01" transform="translate(-31.19 7.77) rotate(-22.42)"/><rect class="cls-2" x="8.5" y="66.37" width="0.89" height="23.59" transform="translate(-29.31 9.42) rotate(-22.57)"/><rect class="cls-2" x="15.15" y="65.5" width="0.89" height="24.48" transform="translate(-28.47 11.82) rotate(-22.42)"/><rect class="cls-2" x="21.94" y="65.5" width="0.89" height="24.48" transform="translate(-27.95 14.41) rotate(-22.42)"/><rect class="cls-2" x="28.73" y="65.5" width="0.89" height="24.48" transform="translate(-27.44 17) rotate(-22.42)"/><rect class="cls-2" x="35.52" y="65.5" width="0.89" height="24.48" transform="translate(-26.93 19.59) rotate(-22.42)"/><rect class="cls-2" x="42.31" y="65.5" width="0.89" height="24.48" transform="translate(-26.42 22.18) rotate(-22.42)"/><rect class="cls-2" x="49.1" y="65.5" width="0.89" height="24.48" transform="translate(-25.9 24.77) rotate(-22.42)"/><rect class="cls-2" x="55.89" y="65.5" width="0.89" height="24.48" transform="translate(-25.39 27.36) rotate(-22.42)"/><rect class="cls-2" x="62.68" y="65.5" width="0.89" height="24.48" transform="translate(-24.88 29.95) rotate(-22.42)"/><rect class="cls-2" x="69.47" y="65.5" width="0.89" height="24.48" transform="translate(-24.36 32.54) rotate(-22.42)"/><rect class="cls-2" x="76.26" y="65.5" width="0.89" height="24.48" transform="translate(-23.85 35.13) rotate(-22.42)"/><rect class="cls-2" x="83.05" y="65.5" width="0.89" height="24.48" transform="translate(-23.34 37.71) rotate(-22.42)"/><rect class="cls-2" x="89.84" y="65.5" width="0.89" height="24.48" transform="translate(-22.82 40.3) rotate(-22.42)"/><rect class="cls-2" x="96.49" y="65.52" width="0.89" height="23.59" transform="translate(-22.25 43.12) rotate(-22.57)"/><rect class="cls-2" x="101.44" y="65.89" width="0.89" height="14.11" transform="translate(-20.12 44.36) rotate(-22.42)"/></g><g class="cls-4"><path class="cls-5" d="M4.14,86.12V76a6.16,6.16,0,0,1,6.16-6.17h91.3a6.12,6.12,0,0,1,2.86.71,6.16,6.16,0,0,0-6-4.67H7.19A6.16,6.16,0,0,0,1,72V82.16a6.16,6.16,0,0,0,3.29,5.45A6.68,6.68,0,0,1,4.14,86.12Z"/></g><path class="cls-2" d="M83.64,145.29H22.25a10.58,10.58,0,0,1-10.43-9.06L5.14,89.09A1.12,1.12,0,0,1,6.26,87.8H99.63a1.12,1.12,0,0,1,.85.39,1.14,1.14,0,0,1,.27.9l-6.69,47.14A10.57,10.57,0,0,1,83.64,145.29ZM7.56,90.06l6.5,45.86A8.31,8.31,0,0,0,22.25,143H83.64a8.3,8.3,0,0,0,8.18-7.11l6.5-45.86Z"/><path class="cls-2" d="M98.59,90.06H7.3A7.3,7.3,0,0,1,0,82.77V72.61a7.3,7.3,0,0,1,7.3-7.3H98.59a7.3,7.3,0,0,1,7.29,7.3V82.77A7.3,7.3,0,0,1,98.59,90.06ZM7.3,67.57a5,5,0,0,0-5,5V82.77a5,5,0,0,0,5,5H98.59a5,5,0,0,0,5-5V72.61a5,5,0,0,0-5-5Z"/><g class="cls-6"><path class="cls-2" d="M90.18,88.93l-5.72,40.35a9.41,9.41,0,0,1-9.31,8.09H13.76l-.55,0a9.41,9.41,0,0,0,9,6.81H83.63a9.4,9.4,0,0,0,9.31-8.09l6.69-47.14Z"/></g><g class="cls-6"><path class="cls-2" d="M104.75,72.61V82.77a6.16,6.16,0,0,1-6.16,6.16H7.3a6.16,6.16,0,0,1-6.17-6.16v-.72a6.35,6.35,0,0,0,1.07.09l49.61-.09h0c-7.63.37,3.89-12.26,3.89-12.26-7.35.41-8.27-3.36-8.27-3.36l52.23.16v3.8H81.9c-2.16,15-8.31,8.15-8.31,8.15s-.63,2.25-1.12,4.23l21-.63A6.16,6.16,0,0,0,99.66,76V70.39h.63v-3.7A6.15,6.15,0,0,1,104.75,72.61Z"/></g><g class="cls-1"><path class="cls-2" d="M100.29,66.69v3.7h-.63V66.54l.26,0h0Z"/></g><path class="cls-7" d="M58.57,87.61s-3.44,22.72-12.39,13.3S54,87.34,58.57,87.61Z"/><g class="cls-1"><path class="cls-2" d="M69.8,89.53a8.23,8.23,0,0,1-1.45.13,6,6,0,0,1-1.23-.13Z"/></g><g class="cls-1"><polygon class="cls-2" points="97.74 67.19 97.74 70.98 97.1 70.98 97.1 67.19 97.37 67.19 97.74 67.19"/></g><path class="cls-8" d="M102.16,49a44.74,44.74,0,0,1-2.82,15.43l-24.65-.16c-.3,10.38-1.49,19.43-7.88,19.39s-2.59-11.2-8.44-12.3C51,70,55,99.55,48.08,99.51s-6.83-13.89-6.79-21.34-3.75-4-9.55-4.85c-6.12-.85-8.77-6.7-9.67-9.37L7.9,63.86A45.16,45.16,0,0,1,6.5,38.2C11.47,17.42,30.89,2,54,2.12c20.78.12,38.43,12.82,45.2,30.54A44.65,44.65,0,0,1,102.16,49Z"/><path class="cls-9" d="M65.89,32.29H57.42a2,2,0,0,1,0-3.91h8.47a2,2,0,0,1,0,3.91Z"/><circle class="cls-9" cx="46.31" cy="41.97" r="7.94"/><path class="cls-9" d="M46.31,52A10.06,10.06,0,1,1,56.36,42,10.07,10.07,0,0,1,46.31,52Zm0-15.88A5.82,5.82,0,1,0,52.13,42,5.83,5.83,0,0,0,46.31,36.15Z"/><path class="cls-9" d="M38.37,31.76H30.44a2,2,0,0,1,0-3.91h7.93a2,2,0,1,1,0,3.91Z"/><ellipse class="cls-10" cx="43.66" cy="47.53" rx="6.35" ry="7.67"/><path class="cls-9" d="M43.66,57.32c-4.66,0-8.46-4.39-8.46-9.79s3.8-9.79,8.46-9.79,8.47,4.39,8.47,9.79S48.33,57.32,43.66,57.32Zm0-15.35c-2.33,0-4.23,2.5-4.23,5.56s1.9,5.55,4.23,5.55,4.24-2.49,4.24-5.55S46,42,43.66,42Z"/><path class="cls-9" d="M46.86,41.17a2.78,2.78,0,0,0-.45.29c-.17.12-.32.24-.48.37a11.79,11.79,0,0,0-.9.83,10.09,10.09,0,0,0-1.5,2A9.27,9.27,0,0,0,43,45.79,8.39,8.39,0,0,0,42.58,47a9.52,9.52,0,0,0-.24,2.63,9.75,9.75,0,0,1-.41-2.7,9.1,9.1,0,0,1,.38-2.8,11.92,11.92,0,0,1,1.12-2.66,13.6,13.6,0,0,1,.8-1.23c.14-.2.3-.4.46-.59a6.92,6.92,0,0,1,.54-.59l.08-.08a1.35,1.35,0,0,1,1.87,1.94A1.72,1.72,0,0,1,46.86,41.17Z"/><g class="cls-4"><path class="cls-5" d="M6.86,53.7A44.66,44.66,0,0,1,8.09,43.49c5-20.78,24.39-36.22,47.5-36.08C76.37,7.53,94,20.23,100.79,38c.17.44.32.88.48,1.33a45.18,45.18,0,0,0-2.07-7.15C92.43,14.41,74.78,1.72,54,1.59,30.89,1.45,11.47,16.89,6.5,37.67a45,45,0,0,0,1.25,25.2A44.78,44.78,0,0,1,6.86,53.7Z"/></g><g class="cls-1"><path class="cls-11" d="M102.16,49a44.74,44.74,0,0,1-2.82,15.43l-24.65-.16c-.3,10.38-1.49,19.43-7.88,19.39s-2.59-11.2-8.44-12.3C51,70,55,99.55,48.08,99.51s-6.83-13.89-6.79-21.34-3.75-4-9.55-4.85c-6.12-.85-8.77-6.7-9.67-9.37L7.9,63.86A45.16,45.16,0,0,1,6.5,38.2C8.68,53.63,18.9,55.7,23.69,57.93s4.1,6.18,8.07,7.79,10.85-1.08,12.7,0S44.72,90.31,47.37,90,50,82.1,50,75.22s3.3-12.09,8.77-10.9c3.93.85,5.66,6.33,7.11,11.43,1,3.37,4.06,3.28,3.7-3.7-.79-15.35,5.29-17.46,5.29-17.46C97,51.64,99,35.06,99.2,32.66A44.65,44.65,0,0,1,102.16,49Z"/></g><path class="cls-11" d="M48.1,101.62h0c-4.15,0-6.86-3.25-8.07-9.61a74,74,0,0,1-.82-13.85c0-2.3-.39-2.74-.4-2.74a7.68,7.68,0,0,0-2.32,0,21.44,21.44,0,0,1-5,0c-6.31-.88-9.46-6.08-10.84-9.37L7.89,66a2.12,2.12,0,0,1-2-1.41A46.76,46.76,0,0,1,3.16,48.39C3.32,21.64,26,0,53.69,0H54A51.26,51.26,0,0,1,89.65,14.45,47.51,47.51,0,0,1,104.28,49a47,47,0,0,1-3,16.15,2.09,2.09,0,0,1-2,1.37l-22.59-.14c-.28,7.73-1.34,19.38-9.88,19.38H66.8c-5,0-5.94-4.67-6.54-7.74s-1-4.35-2.28-4.6h-.12s-.74.35-1.45,3.32a77.73,77.73,0,0,0-1.28,8.85C54.23,93.83,53.38,101.62,48.1,101.62ZM38,71.11a5.06,5.06,0,0,1,3.64,1.2c1.23,1.14,1.77,3,1.75,5.87a71.82,71.82,0,0,0,.75,13c.77,4.08,2.1,6.16,3.94,6.17h0c.12,0,.76-.5,1.39-2.85a69.46,69.46,0,0,0,1.43-9.41c.75-6.91,1.4-12.87,4.37-15.08a4.4,4.4,0,0,1,3.47-.78c4.24.8,5.06,4.93,5.65,8,.71,3.58,1.11,4.31,2.42,4.31h0c3.67,0,5.38-5.18,5.72-17.32a2.11,2.11,0,0,1,2.13-2.06l23.15.14A42.78,42.78,0,0,0,100.05,49,43.3,43.3,0,0,0,86.7,17.49,47.06,47.06,0,0,0,54,4.23h-.3C28.28,4.23,7.54,24,7.39,48.42a42.51,42.51,0,0,0,2,13.33l12.67.08a2.11,2.11,0,0,1,2,1.44c.73,2.16,3,7.26,8,7.95a17.33,17.33,0,0,0,4.08,0C36.74,71.16,37.39,71.11,38,71.11ZM102.16,49h0Z"/></svg>