<svg id="Layer_1" data-name="Layer 1" xmlns="http://www.w3.org/2000/svg" viewBox="0 0 108.07 142.14"><defs><style>.cls-1{fill:#fc9d53;}</style></defs><path class="cls-1" d="M57.58,45H50.49a1.63,1.63,0,1,1,0-3.26h7.09a1.63,1.63,0,0,1,0,3.26Z"/><path class="cls-1" d="M34.56,44.55H27.91a1.64,1.64,0,0,1,0-3.27h6.65a1.64,1.64,0,0,1,0,3.27Z"/><path class="cls-1" d="M41.2,44.69a8.42,8.42,0,0,0-8.42,8.41c0,.22,0,.43,0,.64a9.09,9.09,0,0,0-.91,4c0,4.52,3.18,8.19,7.08,8.19,3.18,0,5.88-2.43,6.77-5.77A8.41,8.41,0,0,0,41.2,44.69ZM39,62.4c-1.95,0-3.54-2.09-3.54-4.65,0-2.37,1.36-4.33,3.11-4.61a9.68,9.68,0,0,0-.7,1.78,9.4,9.4,0,0,0-.26,1.17,7.65,7.65,0,0,0-.06,1.17,7.74,7.74,0,0,0,.35,2.26,8.06,8.06,0,0,1,.2-2.2,7.66,7.66,0,0,1,.32-1,8.38,8.38,0,0,1,.47-.95,8.5,8.5,0,0,1,1.25-1.66l.23-.22a4.84,4.84,0,0,1,2.18,4.29C42.53,60.31,40.94,62.4,39,62.4Z"/><path class="cls-1" d="M103.25,4.11C100.48,1.87,97.63,1,94.79,1.62,88.27,3,83.85,11.37,80.93,16.93a29.39,29.39,0,0,1-2,3.45,39.13,39.13,0,0,1-4.52,3.76l-1.9,1.46A43,43,0,0,0,48.16,18h-.27C24.68,18,5.74,36.09,5.6,58.47A39.38,39.38,0,0,0,7.43,70.6a7.1,7.1,0,0,0-6.34,7.05v8.69A7.13,7.13,0,0,0,5.65,93l5.57,39.26A9.91,9.91,0,0,0,21,140.7H73.52a9.91,9.91,0,0,0,9.76-8.48L88.84,93a7.13,7.13,0,0,0,4.56-6.62V77.65a7.1,7.1,0,0,0-5.07-6.8,39.52,39.52,0,0,0-1.92-29.06,54.66,54.66,0,0,0,3.29-7.18,21.41,21.41,0,0,1,1.83-4,29,29,0,0,1,3.38-3.06C99.74,23.48,107,17.34,107,11A8.91,8.91,0,0,0,103.25,4.11ZM4.72,86.34V77.65a3.47,3.47,0,0,1,3.46-3.47H20.64c1.32,2.71,3.93,6.25,8.64,6.91a18.28,18.28,0,0,0,4.19,0,6.58,6.58,0,0,1,2,0s.34.37.33,2.29,0,4.12.1,6.43H8.18A3.47,3.47,0,0,1,4.72,86.34ZM64,137.07l.88-.88.88.88Zm-2.19-9.67,3.07-3.07,3.07,3.07-3.07,3.06Zm9,9-3.07-3.06,3.07-3.07,3.07,3.07Zm5.92-.2h0Zm0-5.73-3.07-3.06,3.07-3.07,3.06,3.07ZM81,122.85l-1.39-1.38,1.62-1.62L78.32,117l-1.62,1.62-2.84-2.84L71,118.63l2.84,2.84-3.07,3.07-3.07-3.07,1.59-1.59L66.42,117l-1.58,1.59-2.75-2.75-2.86,2.86L62,121.47l-3.07,3.07-3.06-3.07,1.78-1.79-2.86-2.86L53,118.61l-5.53-5.53-2.86,2.86,5.53,5.53L47.56,124l2.86,2.86L53,124.33l3.07,3.07L53.49,130l2.86,2.86,2.56-2.56L62,133.33l-2.57,2.56,1.19,1.18H21a6.27,6.27,0,0,1-6.18-5.36L9.38,93.43h26.8c.07.52.16,1,.25,1.55,1,5.31,3.29,8,6.76,8h0c3.58,0,4.72-4.29,5.43-9.59H85.12Zm8.83-45.2v8.69a3.48,3.48,0,0,1-3.47,3.47H49.07l0-.21a65.56,65.56,0,0,1,1.08-7.41c.6-2.48,1.21-2.77,1.22-2.77h.09c1.08.2,1.42,1.38,1.91,3.85s1.27,6.44,5.47,6.47h0c6.91,0,8-9.12,8.25-15.57H86.31A3.48,3.48,0,0,1,89.78,77.65ZM86.52,58.39a35.82,35.82,0,0,1-1.83,11.14l-19.38-.12a1.77,1.77,0,0,0-1.78,1.72c-.28,10.16-1.72,14.5-4.79,14.5h0c-1.09,0-1.43-.61-2-3.61-.49-2.53-1.18-6-4.73-6.65a3.61,3.61,0,0,0-2.9.66c-2.48,1.84-3,6.83-3.66,12.61a58.75,58.75,0,0,1-1.19,7.88c-.53,2-1.06,2.38-1.17,2.38h0c-1.54,0-2.65-1.74-3.3-5.16a59.77,59.77,0,0,1-.62-10.91c0-2.45-.44-4-1.47-4.92a4.22,4.22,0,0,0-3-1c-.52,0-1.06,0-1.59.08a14.35,14.35,0,0,1-3.41,0c-4.18-.58-6.05-4.84-6.66-6.65a1.78,1.78,0,0,0-1.67-1.21l-10.59-.06A35.69,35.69,0,0,1,9,57.92c.13-20.44,17.48-37,38.75-37H48a39.66,39.66,0,0,1,22,6.72,45,45,0,0,0-3.5,3.21l0,0a8.53,8.53,0,0,0-4-1.1.32.32,0,0,0-.16,0,.34.34,0,0,0-.14.45v0a15.32,15.32,0,0,0,2.28,3.18c.83.89,1.71,1.72,2.56,2.57a49,49,0,0,1,4.9,5.29,20.44,20.44,0,0,1,1.9,3.05c.54,1.06,1,2.14,1.53,3.22s1,2.15,1.61,3.23a26.63,26.63,0,0,0,2,3.31h0a.3.3,0,0,0,.17.12.32.32,0,0,0,.41-.22,10.26,10.26,0,0,0,.31-4.07c0-.28-.07-.56-.12-.85l.16-.08a18.73,18.73,0,0,0,4.22-3.83A35.76,35.76,0,0,1,86.52,58.39Zm6.11-33.56a27.19,27.19,0,0,0-3.93,3.66h0a22.3,22.3,0,0,0-2.29,4.82c-.57,1.45-1.22,3.09-2,4.73l-2,3.44a17.37,17.37,0,0,1-2.8,3.26A39.25,39.25,0,0,0,70,32.36c.91-.86,1.89-1.7,2.89-2.52l2.57-2L76.6,27a37.85,37.85,0,0,0,5.06-4.27,26.28,26.28,0,0,0,2.41-4.1C86.52,13.91,90.63,6.1,95.5,5.09c1.79-.37,3.59.21,5.53,1.78a5.44,5.44,0,0,1,2.4,4.2C103.48,15.71,96.69,21.42,92.63,24.83Z"/></svg>