<svg id="Layer_1" data-name="Layer 1" xmlns="http://www.w3.org/2000/svg" viewBox="0 0 111.92 152.8"><defs><style>.cls-1{fill:#fce853;}</style></defs><path class="cls-1" d="M41.64,81.85c0-2.39-.4-2.86-.41-2.86a8.44,8.44,0,0,0-2.42,0,23.33,23.33,0,0,1-5.22,0c-5.86-.81-9.11-5.22-10.76-8.59H7.33A4.31,4.31,0,0,0,3,74.71V85.53a4.31,4.31,0,0,0,4.31,4.31H41.77C41.61,87,41.63,84.17,41.64,81.85Z"/><rect class="cls-1" x="82.75" y="141.27" width="5.4" height="5.4" transform="translate(-76.77 102.59) rotate(-45)"/><path class="cls-1" d="M91,17.93A49,49,0,0,0,56.87,4.12h-.31c-26.47,0-48.08,20.58-48.23,46A44.33,44.33,0,0,0,10.45,64l13.19.08a2.21,2.21,0,0,1,2.08,1.5c.75,2.25,3.08,7.56,8.28,8.29a19.41,19.41,0,0,0,4.25,0c.66-.06,1.33-.11,2-.11A5.28,5.28,0,0,1,44,75c1.28,1.18,1.84,3.07,1.82,6.12a74.35,74.35,0,0,0,.78,13.58c.81,4.25,2.19,6.41,4.1,6.42h0c.13,0,.8-.52,1.46-3a71.61,71.61,0,0,0,1.48-9.81c.79-7.19,1.47-13.41,4.56-15.7a4.54,4.54,0,0,1,3.61-.82c4.42.84,5.27,5.14,5.89,8.28.74,3.73,1.16,4.49,2.52,4.5h0c3.82,0,5.61-5.41,6-18.05a2.2,2.2,0,0,1,2.22-2.15l24.11.15a44.56,44.56,0,0,0,2.29-13.87A45.08,45.08,0,0,0,91,17.93ZM31.17,33.51a2,2,0,0,1,0-4.07h8.27a2,2,0,0,1,0,4.07ZM53.38,53c-1.11,4.16-4.47,7.19-8.43,7.19-4.86,0-8.81-4.58-8.81-10.2a11.41,11.41,0,0,1,1.13-5c0-.26,0-.52,0-.79A10.47,10.47,0,1,1,53.38,53ZM68.1,34.06H59.28a2,2,0,0,1,0-4.07H68.1a2,2,0,1,1,0,4.07Z"/><path class="cls-1" d="M46.65,44.6l-.28.27a11,11,0,0,0-1.56,2.07,10.07,10.07,0,0,0-.58,1.19,8.67,8.67,0,0,0-.4,1.28,9.52,9.52,0,0,0-.25,2.73,10.06,10.06,0,0,1-.44-2.81,10.22,10.22,0,0,1,.09-1.46,10.4,10.4,0,0,1,.31-1.45,12,12,0,0,1,.87-2.22c-2.17.35-3.87,2.79-3.87,5.74,0,3.19,2,5.79,4.41,5.79s4.41-2.6,4.41-5.79A6,6,0,0,0,46.65,44.6Z"/><path class="cls-1" d="M72.79,148.63l-1.48-1.47,3.2-3.19-3.82-3.82-3.19,3.19-3.57-3.56,3.2-3.19-3.82-3.82L60.12,136l-3.57-3.56,3.2-3.19-6.89-6.88,3.57-3.57,6.88,6.89,2.23-2.23L69.1,127l-2.23,2.23L70.69,133l3.82-3.82-3.43-3.43,3.56-3.56,3.43,3.43,2-2,3.56,3.57-2,2L85.45,133l3.82-3.82-3.53-3.53,3.56-3.56,3.53,3.53,2-2,3.57,3.56-2,2,1.55,1.55,5.16-36.4H57.7c-.88,6.59-2.3,11.93-6.76,11.93h0c-4.32,0-7.15-3.39-8.41-10-.12-.63-.22-1.27-.31-1.92H8.82L15.57,142a7.81,7.81,0,0,0,7.69,6.67Z"/><path class="cls-1" d="M104.59,70.4H80.74c-.34,8-1.66,19.37-10.26,19.37h-.06c-5.23,0-6.18-4.86-6.81-8s-1-4.54-2.38-4.8a.36.36,0,0,0-.12,0s-.77.36-1.51,3.44a81.59,81.59,0,0,0-1.34,9.22l0,.26h46.36a4.31,4.31,0,0,0,4.31-4.31V74.71A4.31,4.31,0,0,0,104.59,70.4Z"/><rect class="cls-1" x="90.13" y="133.89" width="5.4" height="5.4" transform="translate(-69.39 105.65) rotate(-45)"/><rect class="cls-1" x="75.37" y="133.89" width="5.4" height="5.4" transform="translate(-73.72 95.21) rotate(-45)"/></svg>