<svg id="Layer_1" data-name="Layer 1" xmlns="http://www.w3.org/2000/svg" viewBox="0 0 105.88 150"><defs><style>.cls-1{opacity:0.2;}.cls-2{fill:#522217;}.cls-3{fill:#e5a241;}.cls-4{opacity:0.6;}.cls-5{fill:#fff;}.cls-6,.cls-7{opacity:0.3;}.cls-7{fill:#231f20;}.cls-8{fill:#50bff2;}.cls-9{opacity:0.19;}.cls-10{fill:#27558a;}</style></defs><g class="cls-1"><ellipse class="cls-2" cx="52.72" cy="144.06" rx="52.2" ry="5.94"/></g><path class="cls-3" d="M83.63,143.39H22.25a9.39,9.39,0,0,1-9.31-8.08L6.26,88.17H99.63l-6.69,47.14A9.39,9.39,0,0,1,83.63,143.39Z"/><g class="cls-1"><rect class="cls-2" x="86.54" y="139" width="6.33" height="0.89" transform="translate(-75.31 155.68) rotate(-62.87)"/><rect class="cls-2" x="73.83" y="129.18" width="28.41" height="0.89" transform="translate(-67.47 148.85) rotate(-62.87)"/><rect class="cls-2" x="60.45" y="118.37" width="52.58" height="0.89" transform="translate(-58.46 142.46) rotate(-63.12)"/><rect class="cls-2" x="51.74" y="114.97" width="60.32" height="0.89" transform="translate(-58.17 135.67) rotate(-62.87)"/><rect class="cls-2" x="45.04" y="114.97" width="60.32" height="0.89" transform="translate(-61.81 129.71) rotate(-62.87)"/><rect class="cls-2" x="38.33" y="114.97" width="60.32" height="0.89" transform="translate(-65.46 123.74) rotate(-62.87)"/><rect class="cls-2" x="31.63" y="114.97" width="60.32" height="0.89" transform="translate(-69.11 117.78) rotate(-62.87)"/><rect class="cls-2" x="24.93" y="114.97" width="60.32" height="0.89" transform="translate(-72.75 111.81) rotate(-62.87)"/><rect class="cls-2" x="18.22" y="114.97" width="60.32" height="0.89" transform="translate(-76.4 105.85) rotate(-62.87)"/><rect class="cls-2" x="11.52" y="114.97" width="60.32" height="0.89" transform="translate(-80.05 99.88) rotate(-62.87)"/><rect class="cls-2" x="4.82" y="114.97" width="60.32" height="0.89" transform="translate(-83.69 93.91) rotate(-62.87)"/><rect class="cls-2" x="0.05" y="113.79" width="57.66" height="0.89" transform="translate(-85.95 87.85) rotate(-62.87)"/><rect class="cls-2" x="-0.98" y="110.32" width="49.87" height="0.89" transform="translate(-85.55 81.57) rotate(-62.87)"/><rect class="cls-2" x="0.55" y="105.29" width="38.56" height="0.89" transform="translate(-83.31 75.17) rotate(-62.87)"/><rect class="cls-2" x="2.09" y="100.26" width="27.25" height="0.89" transform="matrix(0.46, -0.89, 0.89, 0.46, -81.08, 68.76)"/><rect class="cls-2" x="4.32" y="94.79" width="14.96" height="0.89" transform="translate(-78.33 62.31) rotate(-62.87)"/><rect class="cls-2" x="15.83" y="118.87" width="0.89" height="24.75" transform="translate(-58.06 21.87) rotate(-27.13)"/><rect class="cls-2" x="18.16" y="100.66" width="0.89" height="44.1" transform="translate(-53.91 21.99) rotate(-27.13)"/><rect class="cls-2" x="21.13" y="85.26" width="0.89" height="60.32" transform="translate(-50.26 22.54) rotate(-27.13)"/><rect class="cls-2" x="27.83" y="85.26" width="0.89" height="60.32" transform="translate(-49.52 25.6) rotate(-27.13)"/><rect class="cls-2" x="34.53" y="85.26" width="0.89" height="60.32" transform="translate(-48.79 28.65) rotate(-27.13)"/><rect class="cls-2" x="41.24" y="85.26" width="0.89" height="60.32" transform="translate(-48.05 31.71) rotate(-27.13)"/><rect class="cls-2" x="47.94" y="85.26" width="0.89" height="60.32" transform="translate(-47.31 34.77) rotate(-27.13)"/><rect class="cls-2" x="54.64" y="85.26" width="0.89" height="60.32" transform="translate(-46.57 37.82) rotate(-27.13)"/><rect class="cls-2" x="61.35" y="85.26" width="0.89" height="60.32" transform="translate(-45.84 40.88) rotate(-27.13)"/><rect class="cls-2" x="68.05" y="85.26" width="0.89" height="60.32" transform="translate(-45.1 43.94) rotate(-27.13)"/><rect class="cls-2" x="74.75" y="85.26" width="0.89" height="60.32" transform="translate(-44.36 46.99) rotate(-27.13)"/><rect class="cls-2" x="79.55" y="85.72" width="0.89" height="51.97" transform="translate(-42.14 48.77) rotate(-27.13)"/><rect class="cls-2" x="83.68" y="86.34" width="0.89" height="40.68" transform="translate(-39.39 50.1) rotate(-27.13)"/><rect class="cls-2" x="87.8" y="86.96" width="0.89" height="29.37" transform="translate(-36.64 51.43) rotate(-27.13)"/><rect class="cls-2" x="91.93" y="87.58" width="0.89" height="18.05" transform="translate(-33.89 52.76) rotate(-27.13)"/><rect class="cls-2" x="95.64" y="87.75" width="0.89" height="9.87" transform="translate(-31.81 54.39) rotate(-27.3)"/></g><rect class="cls-3" y="66.53" width="103.62" height="22.49" rx="6.26"/><g class="cls-1"><rect class="cls-2" x="94.83" y="81.33" width="14.11" height="0.89" transform="translate(-12.55 144.8) rotate(-67.59)"/><rect class="cls-2" x="85.14" y="76.96" width="23.59" height="0.89" transform="translate(-11.74 137.21) rotate(-67.43)"/><rect class="cls-2" x="78.05" y="76.53" width="24.48" height="0.89" transform="translate(-15.3 131.11) rotate(-67.59)"/><rect class="cls-2" x="71.26" y="76.53" width="24.48" height="0.89" transform="translate(-19.5 124.83) rotate(-67.59)"/><rect class="cls-2" x="64.47" y="76.53" width="24.48" height="0.89" transform="translate(-23.7 118.55) rotate(-67.59)"/><rect class="cls-2" x="57.68" y="76.53" width="24.48" height="0.89" transform="translate(-27.9 112.27) rotate(-67.59)"/><rect class="cls-2" x="50.89" y="76.53" width="24.48" height="0.89" transform="translate(-32.1 106) rotate(-67.59)"/><rect class="cls-2" x="44.1" y="76.53" width="24.48" height="0.89" transform="translate(-36.3 99.72) rotate(-67.59)"/><rect class="cls-2" x="37.31" y="76.53" width="24.48" height="0.89" transform="translate(-40.51 93.44) rotate(-67.59)"/><rect class="cls-2" x="30.52" y="76.53" width="24.48" height="0.89" transform="translate(-44.71 87.16) rotate(-67.59)"/><rect class="cls-2" x="23.73" y="76.53" width="24.48" height="0.89" transform="translate(-48.91 80.89) rotate(-67.59)"/><rect class="cls-2" x="16.94" y="76.53" width="24.48" height="0.89" transform="translate(-53.11 74.61) rotate(-67.59)"/><rect class="cls-2" x="10.15" y="76.53" width="24.48" height="0.89" transform="translate(-57.31 68.33) rotate(-67.59)"/><rect class="cls-2" x="3.36" y="76.53" width="24.48" height="0.89" transform="translate(-61.51 62.06) rotate(-67.59)"/><rect class="cls-2" x="-2.84" y="76.11" width="23.59" height="0.89" transform="translate(-65.18 55.44) rotate(-67.43)"/><rect class="cls-2" x="-2.99" y="71.69" width="14.01" height="0.89" transform="translate(-64.21 48.35) rotate(-67.59)"/><rect class="cls-2" x="3.57" y="74.81" width="0.89" height="14.01" transform="translate(-30.9 7.71) rotate(-22.42)"/><rect class="cls-2" x="8.5" y="65.61" width="0.89" height="23.59" transform="translate(-29.02 9.36) rotate(-22.57)"/><rect class="cls-2" x="15.15" y="64.74" width="0.89" height="24.48" transform="translate(-28.18 11.76) rotate(-22.42)"/><rect class="cls-2" x="21.94" y="64.74" width="0.89" height="24.48" transform="translate(-27.66 14.35) rotate(-22.42)"/><rect class="cls-2" x="28.73" y="64.74" width="0.89" height="24.48" transform="translate(-27.15 16.94) rotate(-22.42)"/><rect class="cls-2" x="35.52" y="64.74" width="0.89" height="24.48" transform="translate(-26.64 19.53) rotate(-22.42)"/><rect class="cls-2" x="42.31" y="64.74" width="0.89" height="24.48" transform="translate(-26.12 22.12) rotate(-22.42)"/><rect class="cls-2" x="49.1" y="64.74" width="0.89" height="24.48" transform="translate(-25.61 24.71) rotate(-22.42)"/><rect class="cls-2" x="55.89" y="64.74" width="0.89" height="24.48" transform="translate(-25.1 27.3) rotate(-22.42)"/><rect class="cls-2" x="62.68" y="64.74" width="0.89" height="24.48" transform="translate(-24.58 29.89) rotate(-22.42)"/><rect class="cls-2" x="69.47" y="64.74" width="0.89" height="24.48" transform="translate(-24.07 32.48) rotate(-22.42)"/><rect class="cls-2" x="76.26" y="64.74" width="0.89" height="24.48" transform="translate(-23.56 35.07) rotate(-22.42)"/><rect class="cls-2" x="83.05" y="64.74" width="0.89" height="24.48" transform="translate(-23.05 37.66) rotate(-22.42)"/><rect class="cls-2" x="89.84" y="64.74" width="0.89" height="24.48" transform="translate(-22.53 40.25) rotate(-22.42)"/><rect class="cls-2" x="96.49" y="64.76" width="0.89" height="23.59" transform="translate(-21.96 43.06) rotate(-22.57)"/><rect class="cls-2" x="101.44" y="65.13" width="0.89" height="14.11" transform="translate(-19.83 44.31) rotate(-22.42)"/></g><g class="cls-4"><path class="cls-5" d="M4.14,85.35V75.19A6.16,6.16,0,0,1,10.3,69h91.3a6.11,6.11,0,0,1,2.86.7,6.15,6.15,0,0,0-6-4.66H7.19A6.16,6.16,0,0,0,1,71.23V81.39a6.19,6.19,0,0,0,3.29,5.46A6.69,6.69,0,0,1,4.14,85.35Z"/></g><path class="cls-2" d="M83.63,144.52H22.25a10.58,10.58,0,0,1-10.43-9.05L5.14,88.33a1.15,1.15,0,0,1,.26-.91A1.18,1.18,0,0,1,6.26,87H99.63a1.14,1.14,0,0,1,1.12,1.3l-6.69,47.14A10.58,10.58,0,0,1,83.63,144.52ZM7.56,89.3l6.5,45.85a8.31,8.31,0,0,0,8.19,7.11H83.63a8.31,8.31,0,0,0,8.19-7.11l6.5-45.85Z"/><path class="cls-2" d="M98.59,89.3H7.3A7.3,7.3,0,0,1,0,82V71.84a7.3,7.3,0,0,1,7.3-7.29H98.59a7.3,7.3,0,0,1,7.29,7.29V82A7.3,7.3,0,0,1,98.59,89.3ZM7.3,66.81a5,5,0,0,0-5,5V82a5,5,0,0,0,5,5H98.59a5,5,0,0,0,5-5V71.84a5,5,0,0,0-5-5Z"/><g class="cls-6"><path class="cls-2" d="M90.18,88.17l-5.72,40.35a9.4,9.4,0,0,1-9.31,8.08H13.76l-.55,0a9.41,9.41,0,0,0,9,6.81H83.63a9.39,9.39,0,0,0,9.31-8.08l6.69-47.14Z"/></g><g class="cls-6"><path class="cls-2" d="M104.75,71.84V82a6.16,6.16,0,0,1-6.16,6.17H7.3A6.17,6.17,0,0,1,1.13,82v-.72a6.36,6.36,0,0,0,1.07.1l49.61-.09h0C44.18,81.65,55.7,69,55.7,69c-7.35.42-8.27-3.36-8.27-3.36l52.23.16v3.8H81.9c-2.16,15-8.31,8.15-8.31,8.15S73,80,72.47,82l21-.62a6.17,6.17,0,0,0,6.17-6.17V69.62h.63v-3.7A6.17,6.17,0,0,1,104.75,71.84Z"/></g><g class="cls-1"><path class="cls-2" d="M100.29,65.92v3.7h-.63V65.77l.26.06h0A2.37,2.37,0,0,1,100.29,65.92Z"/></g><path class="cls-7" d="M58.57,86.85s-3.44,22.71-12.39,13.29S54,86.57,58.57,86.85Z"/><path class="cls-8" d="M101.65,48.28a44.16,44.16,0,0,1-2.78,15.2l-24.29-.15c-.29,10.22-1.46,19.14-7.76,19.1s-2.56-11-8.32-12.12C51.26,69,55.18,98.1,48.36,98.05s-6.73-13.68-6.69-21-3.7-4-9.41-4.78c-6-.84-8.64-6.6-9.53-9.24l-14-.08A44.32,44.32,0,0,1,7.39,37.64C12.28,17.16,31.42,2,54.19,2.09c20.48.12,37.87,12.63,44.55,30.09A44.23,44.23,0,0,1,101.65,48.28Z"/><g class="cls-4"><path class="cls-5" d="M7.74,52.91A44.45,44.45,0,0,1,9,42.86C13.85,22.38,33,7.16,55.76,7.3c20.47.13,37.87,12.63,44.54,30.09.17.44.32.88.47,1.32a45.26,45.26,0,0,0-2-7c-6.68-17.46-24.07-30-44.55-30.1C31.42,1.42,12.28,16.64,7.39,37.12A44.24,44.24,0,0,0,8.62,62,44.31,44.31,0,0,1,7.74,52.91Z"/></g><g class="cls-9"><path class="cls-10" d="M101.65,48.28a44.16,44.16,0,0,1-2.78,15.2l-24.29-.15c-.29,10.22-1.46,19.14-7.76,19.1s-2.56-11-8.32-12.12C51.26,69,55.18,98.1,48.36,98.05s-6.73-13.68-6.69-21-3.7-4-9.41-4.78c-6-.84-8.64-6.6-9.53-9.24l-14-.08A44.32,44.32,0,0,1,7.39,37.64C9.54,52.85,19.61,54.88,24.32,57.09s4.05,6.08,8,7.67,10.69-1.06,12.51,0,.26,24.23,2.87,24,2.61-7.82,2.61-14.6,3.24-11.91,8.63-10.74c3.88.84,5.58,6.24,7,11.26.94,3.33,4,3.24,3.65-3.64-.79-15.12,5.21-17.21,5.21-17.21,21.75-2.9,23.78-19.24,24-21.61A44.23,44.23,0,0,1,101.65,48.28Z"/></g><path class="cls-10" d="M48.38,100.14h0c-4.09,0-6.76-3.21-8-9.47A73.47,73.47,0,0,1,39.59,77c0-2.26-.39-2.7-.39-2.7a7.83,7.83,0,0,0-2.29,0,22,22,0,0,1-4.94,0c-6.21-.87-9.32-6-10.68-9.23L8.76,65a2.06,2.06,0,0,1-1.95-1.38A46.14,46.14,0,0,1,4.09,47.69C4.25,21.33,26.56,0,53.89,0h.32A50.47,50.47,0,0,1,89.32,14.24a46.79,46.79,0,0,1,14.42,34.05,46.25,46.25,0,0,1-2.91,15.91,2.08,2.08,0,0,1-2,1.36L76.6,65.43c-.28,7.61-1.32,19.08-9.74,19.09h0c-5,0-5.85-4.59-6.45-7.61s-1-4.3-2.25-4.54H58s-.73.35-1.43,3.27a75.66,75.66,0,0,0-1.27,8.72C54.42,92.46,53.58,100.14,48.38,100.14ZM38.44,70.07A5,5,0,0,1,42,71.26c1.21,1.12,1.74,2.9,1.73,5.78a69.71,69.71,0,0,0,.73,12.85c.77,4,2.08,6.07,3.89,6.08h0c.12,0,.75-.5,1.37-2.81a69.37,69.37,0,0,0,1.41-9.28c.74-6.8,1.38-12.68,4.31-14.85a4.31,4.31,0,0,1,3.42-.77c4.17.79,5,4.86,5.56,7.83.7,3.53,1.1,4.25,2.38,4.25h0c3.61,0,5.3-5.11,5.63-17.07a2.09,2.09,0,0,1,2.1-2l22.81.14a42.14,42.14,0,0,0,2.17-13.11,42.66,42.66,0,0,0-13.16-31A46.33,46.33,0,0,0,54.18,4.17h-.29c-25,0-45.48,19.47-45.63,43.54a41.94,41.94,0,0,0,2,13.14l12.48.08a2.06,2.06,0,0,1,2,1.42c.72,2.13,2.91,7.15,7.83,7.84a17.33,17.33,0,0,0,4,0C37.19,70.12,37.82,70.07,38.44,70.07Zm63.21-21.79h0Z"/><g class="cls-1"><path class="cls-2" d="M69.8,88.76a7.38,7.38,0,0,1-1.45.13,5.34,5.34,0,0,1-1.23-.13Z"/></g><g class="cls-1"><polygon class="cls-2" points="97.74 66.42 97.74 70.22 97.1 70.22 97.1 66.42 97.37 66.42 97.74 66.42"/></g><ellipse class="cls-10" cx="43.17" cy="26.37" rx="3.8" ry="6.08"/><ellipse class="cls-10" cx="59.83" cy="26.46" rx="3.74" ry="5.99"/><ellipse class="cls-5" cx="59.08" cy="24.97" rx="1.5" ry="2.39"/><ellipse class="cls-5" cx="43.93" cy="24.85" rx="1.52" ry="2.43"/><path class="cls-10" d="M52.18,44.07a41.61,41.61,0,0,1-9.7-1.18A48.71,48.71,0,0,1,27.4,36.48a1.91,1.91,0,1,1,2.17-3.15h0c.92.63,22.73,15.33,42.52.06a1.91,1.91,0,1,1,2.33,3A35.81,35.81,0,0,1,52.18,44.07Z"/><path class="cls-10" d="M70.26,31.27a5.56,5.56,0,0,1,3.18.9,7.32,7.32,0,0,1,2.37,2.36,7.14,7.14,0,0,1,1.08,3.18,6.58,6.58,0,0,1-.06,1.66,4,4,0,0,1-.2.81,5.69,5.69,0,0,1-.32.77,16,16,0,0,1-.72-1.43c-.24-.44-.4-.88-.64-1.29a24.85,24.85,0,0,0-1.3-2.34c-.46-.75-1-1.48-1.53-2.22S71,32.16,70.26,31.27Z"/><path class="cls-10" d="M26.23,38a4.25,4.25,0,0,1-.62-2.8,7.16,7.16,0,0,1,.76-2.66,8.12,8.12,0,0,1,1.6-2.2A9,9,0,0,1,29,29.43a6.18,6.18,0,0,1,1.29-.63,7,7,0,0,1-.28,1.38c-.12.43-.26.84-.41,1.23-.29.78-.64,1.5-1,2.21s-.74,1.39-1.13,2.09S26.7,37.09,26.23,38Z"/></svg>